<?xml version="1.0" encoding="utf-8"?>
<!-- Generator: Adobe Illustrator 17.1.0, SVG Export Plug-In . SVG Version: 6.00 Build 0)  -->
<!DOCTYPE svg PUBLIC "-//W3C//DTD SVG 1.1//EN" "http://www.w3.org/Graphics/SVG/1.1/DTD/svg11.dtd">
<svg version="1.1" id="Layer_1" xmlns="http://www.w3.org/2000/svg" xmlns:xlink="http://www.w3.org/1999/xlink" x="0px" y="0px"
	 viewBox="481 86.3 884 800" enable-background="new 481 86.3 884 800" xml:space="preserve">
<g id="only_logo">
	<g>
		
			<linearGradient id="SVGID_1_" gradientUnits="userSpaceOnUse" x1="-238.6919" y1="1029.6768" x2="-238.6919" y2="1001.0909" gradientTransform="matrix(27.2633 0 0 27.2633 7430.5391 -27206.7812)">
			<stop  offset="0" style="stop-color:#5A5A5A"/>
			<stop  offset="1" style="stop-color:#7A7A7A"/>
		</linearGradient>
		<polygon fill="url(#SVGID_1_)" points="1143.3,87.7 1143.3,86.3 1143.3,87.7 1141.9,86.3 1141.9,87.7 923,174.4 702.7,87.7 
			702.7,86.3 701.3,87.7 701.3,86.3 701.3,87.7 481,175.8 481,865.6 701.3,781.7 923,865.6 923,865.6 923,865.6 923,865.6 
			923,865.6 1143.3,781.7 1365,865.6 1365,175.8 		"/>
		<g>
			
				<linearGradient id="SVGID_2_" gradientUnits="userSpaceOnUse" x1="-250.8384" y1="1029.6768" x2="-250.8384" y2="1001.0909" gradientTransform="matrix(27.2633 0 0 27.2633 7430.5391 -27206.7812)">
				<stop  offset="0" style="stop-color:#4D4D4D"/>
				<stop  offset="1" style="stop-color:#6B6B6B"/>
			</linearGradient>
			<polygon fill="url(#SVGID_2_)" points="481,175.8 481,865.6 702.7,781.7 702.7,86.3 			"/>
			
				<linearGradient id="SVGID_3_" gradientUnits="userSpaceOnUse" x1="-242.7576" y1="1029.6768" x2="-242.7576" y2="1001.0909" gradientTransform="matrix(27.2633 0 0 27.2633 7430.5391 -27206.7812)">
				<stop  offset="0" style="stop-color:#5A5A5A"/>
				<stop  offset="1" style="stop-color:#7A7A7A"/>
			</linearGradient>
			<polygon fill="url(#SVGID_3_)" points="923,175.8 923,865.6 701.3,781.7 701.3,86.3 			"/>
			
				<linearGradient id="SVGID_4_" gradientUnits="userSpaceOnUse" x1="-234.6515" y1="1029.6768" x2="-234.6515" y2="1001.0909" gradientTransform="matrix(27.2633 0 0 27.2633 7430.5391 -27206.7812)">
				<stop  offset="0" style="stop-color:#4D4D4D"/>
				<stop  offset="1" style="stop-color:#6B6B6B"/>
			</linearGradient>
			<polygon fill="url(#SVGID_4_)" points="923,175.8 923,865.6 1143.3,781.7 1143.3,86.3 			"/>
			
				<linearGradient id="SVGID_5_" gradientUnits="userSpaceOnUse" x1="-226.5707" y1="1029.6768" x2="-226.5707" y2="1001.0909" gradientTransform="matrix(27.2633 0 0 27.2633 7430.5391 -27206.7812)">
				<stop  offset="0" style="stop-color:#5A5A5A"/>
				<stop  offset="1" style="stop-color:#7A7A7A"/>
			</linearGradient>
			<polygon fill="url(#SVGID_5_)" points="1365,175.8 1365,865.6 1141.9,781.7 1141.9,86.3 			"/>
		</g>
		<g>
			<g>
				<g>
					<g>
						<g>
							<defs>
								<path id="SVGID_6_" d="M1238.3,491.1c-8.3-23.4-5.5-63.3-9.6-68.8c-26.2-35.8-119.8-41.3-162.5-88.1
									c6.9-23.4-8.3-41.3-23.4-56.5c-23.4-16.5-55.1-9.6-79.9-2.8c-27.5-5.5-53.7-16.5-81.2-23.4c-60.6-6.9-121.2,35.8-121.2,35.8
									c-44.1,27.5-111.5,85.4-144.6,118.4c8.3,1.4,16.5-5.5,26.2-5.5l63.3-16.5c-26.2,22-81.2,59.2-97.8,89.5
									c19.3-6.9,60.6-28.9,81.2-31.7c-17.9,15.1-55.1,45.4-67.5,64.7c1.4,1.4,0,2.8,0,4.1c15.1-8.3,52.3-30.3,70.2-31.7
									c-17.9,17.9-49.6,53.7-56.5,77.1c15.1-9.6,53.7-30.3,70.2-35.8c-4.1,9.6-12.4,16.5-17.9,24.8c-8.3,12.4-26.2,27.5-26.2,42.7
									c13.8-12.4,30.3-23.4,46.8-31.7c-6.9,15.1-20.7,27.5-24.8,46.8c11-11,31.7-16.5,45.4-20.7l-1.4,1.4
									c-1.4,1.4-16.5,12.4-27.5,24.8c9.6,0,2.8-1.4,15.1,1.4h6.9c-2.8,1.4-6.9,4.1-11,5.5l0,0c-5.5,2.8-12.4,6.9-17.9,9.6
									c26.2,33,57.8,60.6,95,78.5c48.2,23.4,100.5,31.7,154.2,24.8c0-2.8-1.4-5.5-2.8-9.6l0,0l0,0c-1.4-4.1-2.8-6.9-2.8-11l0,0
									l0,0c17.9-33,8.3-90.9,55.1-114.3c31.7-16.5,34.4-24.8,70.2-17.9c19.3,4.1,62,17.9,81.2,13.8c17.9-9.6,27.5-15.1,44.1-26.2
									c19.3,4.1,26.2,1.4,33-8.3c-6.9,9.6,12.4-35.8,20.7-52.3L1238.3,491.1z"/>
							</defs>
							<clipPath id="SVGID_7_">
								<use xlink:href="#SVGID_6_"  overflow="visible"/>
							</clipPath>
							<ellipse clip-path="url(#SVGID_7_)" fill="#DEDEDE" cx="923" cy="493.9" rx="410.3" ry="278.1"/>
						</g>
					</g>
				</g>
			</g>
			<g>
				<g>
					<g>
						<g>
							<defs>
								<path id="SVGID_8_" d="M1238.3,491.1c-8.3-23.4-5.5-63.3-9.6-68.8c-26.2-35.8-119.8-41.3-162.5-88.1
									c6.9-23.4-8.3-41.3-23.4-56.5c-23.4-16.5-55.1-9.6-79.9-2.8c-27.5-5.5-53.7-16.5-81.2-23.4c-60.6-6.9-121.2,35.8-121.2,35.8
									c-44.1,27.5-111.5,85.4-144.6,118.4c8.3,1.4,16.5-5.5,26.2-5.5l63.3-16.5c-26.2,22-81.2,59.2-97.8,89.5
									c19.3-6.9,60.6-28.9,81.2-31.7c-17.9,15.1-55.1,45.4-67.5,64.7c1.4,1.4,0,2.8,0,4.1c15.1-8.3,52.3-30.3,70.2-31.7
									c-17.9,17.9-49.6,53.7-56.5,77.1c15.1-9.6,53.7-30.3,70.2-35.8c-4.1,9.6-12.4,16.5-17.9,24.8c-8.3,12.4-26.2,27.5-26.2,42.7
									c13.8-12.4,30.3-23.4,46.8-31.7c-6.9,15.1-20.7,27.5-24.8,46.8c11-11,31.7-16.5,45.4-20.7l-1.4,1.4
									c-1.4,1.4-16.5,12.4-27.5,24.8c9.6,0,2.8-1.4,15.1,1.4h6.9c-2.8,1.4-6.9,4.1-11,5.5l0,0c-5.5,2.8-12.4,6.9-17.9,9.6
									c26.2,33,57.8,60.6,95,78.5c48.2,23.4,100.5,31.7,154.2,24.8c0-2.8-1.4-5.5-2.8-9.6l0,0l0,0c-1.4-4.1-2.8-6.9-2.8-11l0,0
									l0,0c17.9-33,8.3-90.9,55.1-114.3c31.7-16.5,34.4-24.8,70.2-17.9c19.3,4.1,62,17.9,81.2,13.8c17.9-9.6,27.5-15.1,44.1-26.2
									c19.3,4.1,26.2,1.4,33-8.3c-6.9,9.6,12.4-35.8,20.7-52.3L1238.3,491.1z"/>
							</defs>
							<clipPath id="SVGID_9_">
								<use xlink:href="#SVGID_8_"  overflow="visible"/>
							</clipPath>
							<polygon clip-path="url(#SVGID_9_)" fill="#D3D3D3" points="486.5,188.2 486.5,886.3 705.4,799.6 705.4,100.1 							"/>
						</g>
					</g>
				</g>
			</g>
			<g>
				<g>
					<g>
						<g>
							<defs>
								<path id="SVGID_10_" d="M1238.3,491.1c-8.3-23.4-5.5-63.3-9.6-68.8c-26.2-35.8-119.8-41.3-162.5-88.1
									c6.9-23.4-8.3-41.3-23.4-56.5c-23.4-16.5-55.1-9.6-79.9-2.8c-27.5-5.5-53.7-16.5-81.2-23.4c-60.6-6.9-121.2,35.8-121.2,35.8
									c-44.1,27.5-111.5,85.4-144.6,118.4c8.3,1.4,16.5-5.5,26.2-5.5l63.3-16.5c-26.2,22-81.2,59.2-97.8,89.5
									c19.3-6.9,60.6-28.9,81.2-31.7c-17.9,15.1-55.1,45.4-67.5,64.7c1.4,1.4,0,2.8,0,4.1c15.1-8.3,52.3-30.3,70.2-31.7
									c-17.9,17.9-49.6,53.7-56.5,77.1c15.1-9.6,53.7-30.3,70.2-35.8c-4.1,9.6-12.4,16.5-17.9,24.8c-8.3,12.4-26.2,27.5-26.2,42.7
									c13.8-12.4,30.3-23.4,46.8-31.7c-6.9,15.1-20.7,27.5-24.8,46.8c11-11,31.7-16.5,45.4-20.7l-1.4,1.4
									c-1.4,1.4-16.5,12.4-27.5,24.8c9.6,0,2.8-1.4,15.1,1.4h6.9c-2.8,1.4-6.9,4.1-11,5.5l0,0c-5.5,2.8-12.4,6.9-17.9,9.6
									c26.2,33,57.8,60.6,95,78.5c48.2,23.4,100.5,31.7,154.2,24.8c0-2.8-1.4-5.5-2.8-9.6l0,0l0,0c-1.4-4.1-2.8-6.9-2.8-11l0,0
									l0,0c17.9-33,8.3-90.9,55.1-114.3c31.7-16.5,34.4-24.8,70.2-17.9c19.3,4.1,62,17.9,81.2,13.8c17.9-9.6,27.5-15.1,44.1-26.2
									c19.3,4.1,26.2,1.4,33-8.3c-6.9,9.6,12.4-35.8,20.7-52.3L1238.3,491.1z"/>
							</defs>
							<clipPath id="SVGID_11_">
								<use xlink:href="#SVGID_10_"  overflow="visible"/>
							</clipPath>
							<polygon clip-path="url(#SVGID_11_)" fill="#DEDEDE" points="924.4,188.2 924.4,886.3 704.1,799.6 704.1,100.1 							"/>
						</g>
					</g>
				</g>
			</g>
			<g>
				<g>
					<g>
						<g>
							<defs>
								<path id="SVGID_12_" d="M1238.3,491.1c-8.3-23.4-5.5-63.3-9.6-68.8c-26.2-35.8-119.8-41.3-162.5-88.1
									c6.9-23.4-8.3-41.3-23.4-56.5c-23.4-16.5-55.1-9.6-79.9-2.8c-27.5-5.5-53.7-16.5-81.2-23.4c-60.6-6.9-121.2,35.8-121.2,35.8
									c-44.1,27.5-111.5,85.4-144.6,118.4c8.3,1.4,16.5-5.5,26.2-5.5l63.3-16.5c-26.2,22-81.2,59.2-97.8,89.5
									c19.3-6.9,60.6-28.9,81.2-31.7c-17.9,15.1-55.1,45.4-67.5,64.7c1.4,1.4,0,2.8,0,4.1c15.1-8.3,52.3-30.3,70.2-31.7
									c-17.9,17.9-49.6,53.7-56.5,77.1c15.1-9.6,53.7-30.3,70.2-35.8c-4.1,9.6-12.4,16.5-17.9,24.8c-8.3,12.4-26.2,27.5-26.2,42.7
									c13.8-12.4,30.3-23.4,46.8-31.7c-6.9,15.1-20.7,27.5-24.8,46.8c11-11,31.7-16.5,45.4-20.7l-1.4,1.4
									c-1.4,1.4-16.5,12.4-27.5,24.8c9.6,0,2.8-1.4,15.1,1.4h6.9c-2.8,1.4-6.9,4.1-11,5.5l0,0c-5.5,2.8-12.4,6.9-17.9,9.6
									c26.2,33,57.8,60.6,95,78.5c48.2,23.4,100.5,31.7,154.2,24.8c0-2.8-1.4-5.5-2.8-9.6l0,0l0,0c-1.4-4.1-2.8-6.9-2.8-11l0,0
									l0,0c17.9-33,8.3-90.9,55.1-114.3c31.7-16.5,34.4-24.8,70.2-17.9c19.3,4.1,62,17.9,81.2,13.8c17.9-9.6,27.5-15.1,44.1-26.2
									c19.3,4.1,26.2,1.4,33-8.3c-6.9,9.6,12.4-35.8,20.7-52.3L1238.3,491.1z"/>
							</defs>
							<clipPath id="SVGID_13_">
								<use xlink:href="#SVGID_12_"  overflow="visible"/>
							</clipPath>
							<polygon clip-path="url(#SVGID_13_)" fill="#D3D3D3" points="924.4,188.2 924.4,886.3 1141.9,799.6 1141.9,100.1 							"/>
						</g>
					</g>
				</g>
			</g>
			<g>
				<g>
					<g>
						<g>
							<defs>
								<path id="SVGID_14_" d="M1238.3,491.1c-8.3-23.4-5.5-63.3-9.6-68.8c-26.2-35.8-119.8-41.3-162.5-88.1
									c6.9-23.4-8.3-41.3-23.4-56.5c-23.4-16.5-55.1-9.6-79.9-2.8c-27.5-5.5-53.7-16.5-81.2-23.4c-60.6-6.9-121.2,35.8-121.2,35.8
									c-44.1,27.5-111.5,85.4-144.6,118.4c8.3,1.4,16.5-5.5,26.2-5.5l63.3-16.5c-26.2,22-81.2,59.2-97.8,89.5
									c19.3-6.9,60.6-28.9,81.2-31.7c-17.9,15.1-55.1,45.4-67.5,64.7c1.4,1.4,0,2.8,0,4.1c15.1-8.3,52.3-30.3,70.2-31.7
									c-17.9,17.9-49.6,53.7-56.5,77.1c15.1-9.6,53.7-30.3,70.2-35.8c-4.1,9.6-12.4,16.5-17.9,24.8c-8.3,12.4-26.2,27.5-26.2,42.7
									c13.8-12.4,30.3-23.4,46.8-31.7c-6.9,15.1-20.7,27.5-24.8,46.8c11-11,31.7-16.5,45.4-20.7l-1.4,1.4
									c-1.4,1.4-16.5,12.4-27.5,24.8c9.6,0,2.8-1.4,15.1,1.4h6.9c-2.8,1.4-6.9,4.1-11,5.5l0,0c-5.5,2.8-12.4,6.9-17.9,9.6
									c26.2,33,57.8,60.6,95,78.5c48.2,23.4,100.5,31.7,154.2,24.8c0-2.8-1.4-5.5-2.8-9.6l0,0l0,0c-1.4-4.1-2.8-6.9-2.8-11l0,0
									l0,0c17.9-33,8.3-90.9,55.1-114.3c31.7-16.5,34.4-24.8,70.2-17.9c19.3,4.1,62,17.9,81.2,13.8c17.9-9.6,27.5-15.1,44.1-26.2
									c19.3,4.1,26.2,1.4,33-8.3c-6.9,9.6,12.4-35.8,20.7-52.3L1238.3,491.1z"/>
							</defs>
							<clipPath id="SVGID_15_">
								<use xlink:href="#SVGID_14_"  overflow="visible"/>
							</clipPath>
							<polygon clip-path="url(#SVGID_15_)" fill="#DEDEDE" points="1362.2,188.2 1362.2,886.3 1141.9,799.6 1141.9,100.1 							
								"/>
						</g>
					</g>
				</g>
			</g>
		</g>
	</g>
</g>
<g id="logo_white">
</g>
</svg>
