<?xml version="1.0" encoding="utf-8"?>
<!-- Generator: Adobe Illustrator 17.1.0, SVG Export Plug-In . SVG Version: 6.00 Build 0)  -->
<!DOCTYPE svg PUBLIC "-//W3C//DTD SVG 1.1//EN" "http://www.w3.org/Graphics/SVG/1.1/DTD/svg11.dtd">
<svg version="1.1" id="Layer_1" xmlns="http://www.w3.org/2000/svg" xmlns:xlink="http://www.w3.org/1999/xlink" x="0px" y="0px"
	 viewBox="304.9 3.2 830.4 796.8" enable-background="new 304.9 3.2 830.4 796.8" xml:space="preserve">
<path fill="#B3B3B3" d="M357.9,187.1c-74.2,104.8-64.5,243.5-8.1,354.8c0,3.2,1.6,6.5,3.2,9.7c0,1.6,1.6,3.2,3.2,4.8
	c0,1.6,1.6,1.6,1.6,3.2c1.6,1.6,1.6,3.2,3.2,4.8c1.6,3.2,3.2,6.5,4.8,9.7c1.6,1.6,1.6,3.2,3.2,4.8c1.6,3.2,4.8,6.5,6.5,9.7
	c1.6,1.6,1.6,3.2,3.2,4.8c3.2,4.8,6.5,8.1,9.7,12.9l0,0l1.6,1.6c3.2,3.2,4.8,8.1,8.1,11.3c1.6,1.6,1.6,3.2,3.2,3.2
	c3.2,3.2,4.8,6.5,8.1,9.7c1.6,1.6,1.6,1.6,3.2,3.2c3.2,4.8,6.5,8.1,11.3,11.3l0,0l0,0c3.2,3.2,6.5,8.1,11.3,11.3
	c-1.6,1.6,0,3.2,0,4.8c3.2,3.2,4.8,4.8,8.1,8.1c1.6,1.6,1.6,1.6,3.2,3.2c3.2,3.2,8.1,6.5,11.3,11.3l0,0l1.6,1.6
	c3.2,3.2,6.5,6.5,11.3,9.7c1.6,1.6,3.2,1.6,4.8,3.2c3.2,1.6,6.5,4.8,9.7,6.5c1.6,1.6,3.2,1.6,4.8,3.2c3.2,3.2,6.5,4.8,9.7,6.5
	c1.6,1.6,1.6,1.6,3.2,3.2c0,0,0,0,1.6,0c3.2,1.6,6.5,4.8,9.7,6.5c1.6,1.6,3.2,1.6,4.8,3.2c4.8,3.2,9.7,6.5,14.5,9.7
	c1.6,0,3.2,1.6,4.8,1.6c3.2,1.6,8.1,4.8,11.3,6.5c1.6,1.6,4.8,1.6,6.5,3.2c3.2,1.6,4.8,3.2,8.1,4.8c0,0,1.6,0,1.6,1.6
	c1.6,0,1.6,1.6,3.2,1.6c4.8,1.6,8.1,4.8,12.9,6.5c1.6,0,1.6,0,3.2,1.6c4.8,1.6,9.7,4.8,14.5,6.5c1.6,0,1.6,1.6,3.2,1.6
	c4.8,1.6,9.7,3.2,14.5,4.8h1.6c4.8,1.6,11.3,3.2,16.1,4.8c1.6,0,3.2,1.6,3.2,1.6c4.8,1.6,11.3,3.2,16.1,4.8
	c354.8,64.5,458.1-212.9,458.1-212.9c-87.1,112.9-240.3,141.9-387.1,109.7c-4.8-1.6-11.3-3.2-16.1-4.8c-1.6,0-3.2,0-3.2-1.6
	c-4.8-1.6-11.3-3.2-16.1-4.8c0,0-1.6,0-1.6-1.6c-4.8-1.6-9.7-3.2-14.5-4.8c-1.6,0-3.2-1.6-3.2-1.6c-4.8-1.6-9.7-4.8-14.5-6.5
	c-1.6,0-1.6-1.6-3.2-1.6c-4.8-1.6-8.1-3.2-12.9-6.5c-1.6,0-1.6-1.6-3.2-1.6c-3.2-1.6-6.5-3.2-9.7-4.8c-1.6-1.6-4.8-1.6-6.5-3.2
	c-3.2-1.6-8.1-4.8-11.3-6.5c-1.6-1.6-3.2-1.6-3.2-1.6c-4.8-3.2-9.7-6.5-14.5-9.7c-1.6-1.6-3.2-1.6-4.8-3.2
	c-3.2-1.6-8.1-4.8-11.3-6.5c-1.6-1.6-1.6-1.6-3.2-3.2c-3.2-1.6-6.5-4.8-9.7-8.1c-1.6-1.6-3.2-1.6-4.8-3.2c-3.2-1.6-6.5-4.8-9.7-6.5
	c-1.6-1.6-3.2-1.6-4.8-3.2c-3.2-3.2-8.1-6.5-11.3-9.7c0,0-1.6,0-1.6-1.6c-3.2-3.2-8.1-8.1-11.3-11.3c-1.6-1.6-1.6-1.6-3.2-3.2
	c-3.2-3.2-6.5-4.8-8.1-8.1c-1.6-1.6-1.6-1.6-3.2-3.2c-3.2-3.2-6.5-8.1-11.3-11.3l0,0c-3.2-3.2-6.5-8.1-11.3-12.9
	c-1.6-1.6-1.6-1.6-3.2-3.2c-3.2-3.2-4.8-6.5-8.1-9.7c-1.6-1.6-1.6-1.6-3.2-3.2c-3.2-3.2-6.5-8.1-9.7-11.3
	c-80.6-109.7-109.7-262.9-45.2-387.1"/>
<path fill="#B3B3B3" d="M585.3,98.4c-53.2,75.8-50,179-8.1,259.7c6.5,12.9,14.5,27.4,24.2,38.7c8.1,11.3,16.1,24.2,27.4,33.9
	c3.2,4.8,8.1,8.1,11.3,12.9c1.6,1.6,1.6,1.6,3.2,3.2c3.2,3.2,8.1,8.1,12.9,11.3l0,0l0,0c4.8,4.8,9.7,8.1,14.5,11.3
	c1.6,1.6,1.6,1.6,3.2,3.2c4.8,3.2,9.7,8.1,14.5,11.3l0,0c1.6,1.6,4.8,3.2,6.5,4.8c1.6,0,1.6,1.6,3.2,1.6c3.2,1.6,8.1,4.8,11.3,6.5
	c0,0,1.6,0,1.6,1.6c3.2,1.6,6.5,3.2,9.7,4.8c1.6,0,1.6,1.6,3.2,1.6c1.6,1.6,4.8,1.6,6.5,3.2c0,0,0,0,1.6,0c4.8,1.6,9.7,4.8,14.5,6.5
	c1.6,0,1.6,1.6,3.2,1.6c3.2,1.6,8.1,3.2,11.3,4.8c1.6,0,3.2,1.6,4.8,1.6c3.2,1.6,6.5,3.2,11.3,3.2c1.6,0,3.2,1.6,4.8,1.6
	c4.8,1.6,9.7,3.2,16.1,4.8c274.2,45.2,337.1-166.1,337.1-166.1c-56.5,82.3-167.7,121-285.5,90.3c-4.8-1.6-9.7-3.2-16.1-4.8
	c-1.6,0-3.2-1.6-4.8-1.6c-3.2,1.6-8.1,1.6-11.3,0c-1.6,0-3.2-1.6-4.8-1.6c-3.2-1.6-8.1-3.2-11.3-4.8c-1.6,0-1.6-1.6-3.2-1.6
	c-4.8-1.6-9.7-4.8-14.5-6.5c-1.6-1.6-4.8-3.2-6.5-3.2s-3.2-1.6-4.8-1.6c-3.2-1.6-6.5-3.2-9.7-4.8c0,0-1.6,0-1.6-1.6
	c-3.2-1.6-8.1-4.8-11.3-6.5c-1.6,0-1.6-1.6-3.2-1.6c-1.6-1.6-4.8-3.2-6.5-4.8c-4.8-3.2-9.7-6.5-14.5-11.3c-1.6-1.6-1.6-1.6-3.2-3.2
	c-51.6-40.3-91.9-96.8-111.3-159.7C590.2,171,595,98.4,630.5,38.7"/>
<path fill="#B3B3B3" d="M777.3,32.3c-30.6,46.8-33.9,103.2-12.9,154.8c22.6,54.8,69.4,96.8,124.2,116.1c1.6,1.6,4.8,1.6,6.5,1.6
	c1.6,0,1.6,0,3.2,1.6c3.2,1.6,6.5,1.6,9.7,3.2c151.6,29,191.9-77.4,203.2-93.5c-35.5,51.6-96.8,64.5-171,46.8
	c-6.5-1.6-12.9-3.2-17.7-4.8c-6.5-3.2-14.5-4.8-21-8.1c-12.9-6.5-25.8-14.5-37.1-22.6c-66.1-50-108.1-146.8-64.5-224.2"/>
</svg>
