<?xml version="1.0" encoding="utf-8"?>
<!-- Generator: Adobe Illustrator 17.1.0, SVG Export Plug-In . SVG Version: 6.00 Build 0)  -->
<!DOCTYPE svg PUBLIC "-//W3C//DTD SVG 1.1//EN" "http://www.w3.org/Graphics/SVG/1.1/DTD/svg11.dtd">
<svg version="1.1" id="Layer_1" xmlns="http://www.w3.org/2000/svg" xmlns:xlink="http://www.w3.org/1999/xlink" x="0px" y="0px"
	 viewBox="319.8 0 800.3 800" enable-background="new 319.8 0 800.3 800" xml:space="preserve">
<g>
	<g>
		<rect x="319.8" fill="#979797" width="800.3" height="800"/>
	</g>
	<g>
		<path d="M530,667.9l61.2-36.9c11.7,20.9,22.5,38.7,48.2,38.7c24.7,0,40.3-9.7,40.3-47.3V367.1h75.2v256.4
			c0,77.9-45.7,113.2-112.1,113.2C582.6,736.6,547.7,705.5,530,667.9"/>
		<path d="M795.6,659.8l61.2-35.4c16.2,26.3,36.9,45.7,74.1,45.7c31.1,0,50.9-15.5,50.9-36.9c0-25.7-20.5-34.9-54.7-50l-18.7-8.1
			c-54.2-23-90.1-52-90.1-113.2c0-56.3,43-99.3,110-99.3c47.7,0,82.1,16.7,106.7,60.1l-58.7,37.6c-12.8-23-26.8-32.2-48.2-32.2
			c-22,0-36,14-36,32.2c0,22.5,14,31.7,46.1,45.7l18.7,8.1c63.9,27.4,99.7,55.2,99.7,118c0,67.6-53.1,104.7-124.5,104.7
			C862.6,736.6,817.6,703.3,795.6,659.8"/>
	</g>
</g>
</svg>
