<?xml version="1.0" encoding="utf-8"?>
<!-- Generator: Adobe Illustrator 17.1.0, SVG Export Plug-In . SVG Version: 6.00 Build 0)  -->
<!DOCTYPE svg PUBLIC "-//W3C//DTD SVG 1.1//EN" "http://www.w3.org/Graphics/SVG/1.1/DTD/svg11.dtd">
<svg version="1.1" id="Layer_1" xmlns="http://www.w3.org/2000/svg" xmlns:xlink="http://www.w3.org/1999/xlink" x="0px" y="0px"
	 viewBox="639.8 -0.2 799.9 800" enable-background="new 639.8 -0.2 799.9 800" xml:space="preserve">
<g>
	<path fill="#999999" d="M1424.9,364.5L1075.1,14.8c-20-20-53.1-20-73.1,0l-72.3,72.3l92.3,92.3c21.8-7,46.1-2.6,62.7,14.8
		c17.4,17.4,21.8,41.8,14.8,63.5l88.8,88.8c21.8-7,46.1-2.6,63.5,14.8c24.4,23.5,24.4,62.7,0,87.1c-24.4,24.4-62.7,24.4-87.1,0
		c-18.3-18.3-22.6-44.4-13.1-67l-82.7-82.7V516c6.1,2.6,11.3,7,16.5,11.3c24.4,23.5,24.4,62.7,0,87.1c-24.4,23.5-62.7,23.5-87.1,0
		c-24.4-24.4-24.4-62.7,0-87.1c6.1-6.1,13.1-10.4,20-13.1V294.1c-7-2.6-13.9-7.8-20-13.1c-18.3-18.3-22.6-44.4-13.1-67l-91.4-90.5
		L654.8,362.8c-20,20-20,53.1,0,73.1l348.9,348.9c20,20,53.1,20,73.1,0L1424,437.7C1444.8,416.8,1444.8,384.6,1424.9,364.5z"/>
</g>
</svg>
