<?xml version="1.0" encoding="utf-8"?>
<!-- Generator: Adobe Illustrator 17.1.0, SVG Export Plug-In . SVG Version: 6.00 Build 0)  -->
<!DOCTYPE svg PUBLIC "-//W3C//DTD SVG 1.1//EN" "http://www.w3.org/Graphics/SVG/1.1/DTD/svg11.dtd">
<svg version="1.1" id="Layer_1" xmlns="http://www.w3.org/2000/svg" xmlns:xlink="http://www.w3.org/1999/xlink" x="0px" y="0px"
	 viewBox="803.9 157.2 705.4 800" enable-background="new 803.9 157.2 705.4 800" xml:space="preserve">
<title>HTML5 Logo</title>
<polygon fill="#505050" points="868.1,877.2 803.9,157.2 1509.3,157.2 1445.1,877.2 1156.2,957.2 "/>
<polygon fill="#626262" points="1156.6,896 1390,831.3 1445,216.1 1156.6,216.1 "/>
<polygon fill="#C5C5C5" points="1156.6,483.1 1039.7,483.1 1031.6,392.7 1156.6,392.7 1156.6,304.4 1156.4,304.4 935.2,304.4 
	937.3,328.1 959,571.4 1156.6,571.4 "/>
<polygon fill="#C5C5C5" points="1156.6,712.5 1156.2,712.5 1057.9,686 1051.6,615.6 1003.8,615.6 962.9,615.6 975.3,754.2 
	1156.2,804.5 1156.6,804.4 "/>
<polygon fill="#D9D9D9" points="1156.4,483.1 1156.4,571.4 1265,571.4 1254.8,686 1156.4,712.5 1156.4,804.4 1337.3,754.2 
	1338.7,739.3 1359.5,506.8 1361.6,483.1 1337.8,483.1 "/>
<polygon fill="#D9D9D9" points="1156.4,304.4 1156.4,359.2 1156.4,392.5 1156.4,392.7 1369.3,392.7 1369.3,392.7 1369.5,392.7 
	1371.4,372.9 1375.4,328.1 1377.5,304.4 "/>
</svg>
