<?xml version="1.0" encoding="utf-8"?>
<!-- Generator: Adobe Illustrator 18.0.0, SVG Export Plug-In . SVG Version: 6.00 Build 0)  -->
<!DOCTYPE svg PUBLIC "-//W3C//DTD SVG 1.1//EN" "http://www.w3.org/Graphics/SVG/1.1/DTD/svg11.dtd">
<svg version="1.1" id="Layer_1" xmlns="http://www.w3.org/2000/svg" xmlns:xlink="http://www.w3.org/1999/xlink" x="0px" y="0px"
	 viewBox="0 158 612 538" enable-background="new 0 158 612 538" xml:space="preserve">
<g>
	<g id="leaf">
		<path fill="#424242" d="M519.5,196.9c-81,0-141.5,85.7-113.6,147.3C520.7,344.1,473.9,238.2,519.5,196.9z"/>
	</g>
	<path id="body" fill="#525252" d="M545.7,428.2c0-27.3-129.8-40.8-202.1-45.1C271.2,378.9,6.9,429,38.2,495.2S148.9,632,238.2,632
		c46.3,0,99.9-32.6,102.9-92.5C394.6,521.6,545.7,520.7,545.7,428.2z"/>
	<path id="wing_tip" fill="#3B3B3B" d="M479.3,446.2c8.4,8.5-18.2,31.4-41.4,20.7c10.4,23.5-35.5,43.2-57.7,26.3
		c2.4,19-43.2,29.9-57.7,8.7c3.7,10,6.9,17.8,9.8,24.1c0-0.1,0-0.1,0-0.1c7.5,9.9,17.8,17.8,62.6,17.8c69,0,180.5-52.4,180.5-90.8
		c0-31.8-12-34.8-32.5-32.5s-128.1,13.5-151,9C404.3,432,466.8,444.1,479.3,446.2z"/>
	<path id="head" fill="#4A4A4A" d="M237.3,179.3c-132,0-264.4,131.1-201.3,312.1c42.8,25.7,99.9,15.5,112.7,1.8
		c19.4,6.2,36.6,8.7,52,8.7c80.1,0,148.6-85.1,148.6-191.6C349.3,201.3,277.2,179.3,237.3,179.3z"/>
	<path id="eye_rim" fill="#525252" d="M183.2,296.1c0,29.4,23.9,53.3,53.3,53.3s53.3-23.9,53.3-53.3s-23.9-53.3-53.3-53.3
		S183.2,266.7,183.2,296.1z"/>
	<path id="eye" fill="#333333" d="M204.6,296.1c0,17.6,14.3,31.9,31.9,31.9s31.9-14.3,31.9-31.9c0-17.6-14.3-31.9-31.9-31.9
		S204.6,278.5,204.6,296.1z"/>
	<ellipse id="pupil_highlight" fill="#666666" cx="236.6" cy="282" rx="18.6" ry="11.6"/>
	<path id="beak" fill="#595959" d="M345.9,268.8c-24.3,14.1-23.4,59.8-12.7,82.1c20.8-7.8,50-23.1,54.4-25.8
		c4.5-2.7-2.5-13.1,15.1-13.1c24.3,0,46.3,7.5,52.6,10.3C451.2,314,401.4,268.8,345.9,268.8z"/>
	<path id="outline" fill="#333333" d="M600.3,420.7c-31.4-30.2-188.9-49.1-238.6-54.6c2.4-5.7,4.4-11.6,6.1-17.6
		c6.8-3,14.1-5.7,21.6-8c1,2.7,5.3,13.1,7.8,18c99.9,2.7,104.9-74.2,109-95.3c3.9-20.6,3.8-40.5,38-77
		c-51-14.8-124.4,23.1-149.1,79.5c-9.2-3.5-18.5-6-27.6-7.6C361,231.8,326.8,158,237.1,158c-58.1,0-116.7,24-160.6,65.7
		c-23.8,22.5-42.3,49.2-55.3,79.5C7.2,336,0,371.9,0,410.2c0,133.3,91,250.1,142.4,250.1c22.5,0,41.7-16.9,46.3-31.9
		c3.8,10.3,15.4,42.4,19.2,50.7c5.6,12.1,31.8,22.6,43.3,10c14.7,8.1,41.7,13.1,56.5-8.7c28.3,6,53.4-10.9,54-31.1
		c13.9-0.7,20.8-20.3,17.7-35.9c-2.3-11.5-26.2-52.6-35.5-66.8c18.5,15.1,65.3,19.2,71,0c29.8,23.4,76.3,11.1,80-7.9
		c36.2,9.4,77.8-11.2,70.9-36.3C624.1,498.3,616.7,436.4,600.3,420.7z M448.8,318.2c-15.3-6-34.8-9.8-48.4-9.8
		c-19.4,0-31.1,11-49.2,11c-3.8,0-12.9,0-20.2-2.6c4.8,5,10.8,7.8,22.4,7.8c6.9,0,20.7-3.6,31.8-6.9c0.1,2.4,0.4,4.7,0.7,6.9
		c-20.8,5-42.7,18.2-48.9,21.6c-14.1-31.1-1.9-60.4,9.2-73.9C396,272.4,436.4,306.7,448.8,318.2z M470.5,315.8l-7.6-7.2
		c-7.9-7.4-16-14-24.5-20c12.6-24.9,28.3-52,48.2-68.8c-21.9,8.8-43.5,35.1-56.3,63.4c-6.5-4.2-13.1-7.9-19.8-11.1
		c17.8-38,59.3-69.8,104.9-72.3C484.7,227.7,496.2,283,470.5,315.8z M407.6,341.7c-3.3-7.3-6.8-19.5-6.3-26.5
		c5.7-0.1,16.6,2,18.3,2.4c-0.7,3.3-1.1,10.6-1.1,11.6c1.1-1.9,4.1-8.2,5.3-10.8c10.9,2,25.2,5.6,33.7,9.4
		C447.6,334.3,430.8,341.3,407.6,341.7z M339.5,255.9c-39.9,40.4-24.1,91.6-9.6,114.8c-20.7,34.4-61.3,57.9-108.5,68.6
		c53,0,84.2-13.6,102.3-27c11.6-8.5,17.8-17,21-21.6c78.5,5.1,203,30.4,215,38.6c4.9,3.3,9.9,10.5,10.6,17.6
		c-59-8.2-165.4-17-193.3-18.4c19.7,2.7,164,30.1,189.1,36.6c-7.6,12.4-25,21.2-51,15.1c14.1,19.2-13.3,42.3-51.5,29.6
		c8.4,18.9-25.6,35.9-64.2,16.3c0.5,18.9-47.9,21-67.1,0.2c0.4,2.5,2.6,7.3,3.6,9.3c-6.2,55.1-51.4,89.4-97.7,89.4
		c-113.3,0-212-92-212-214.4c0-129.5,95.6-226,211.1-226C303.4,184.2,333.3,236.2,339.5,255.9z"/>
</g>
</svg>
