<?xml version="1.0" encoding="utf-8"?>
<!-- Generator: Adobe Illustrator 17.1.0, SVG Export Plug-In . SVG Version: 6.00 Build 0)  -->
<!DOCTYPE svg PUBLIC "-//W3C//DTD SVG 1.1 Tiny//EN" "http://www.w3.org/Graphics/SVG/1.1/DTD/svg11-tiny.dtd">
<svg version="1.1" baseProfile="tiny" id="Layer_1" xmlns="http://www.w3.org/2000/svg" xmlns:xlink="http://www.w3.org/1999/xlink"
	 x="0px" y="0px" viewBox="0 0 213.5 232.3" xml:space="preserve">
<path fill="#404040" d="M114.3,232.3c-54.7,0-99.2-44.9-99.2-100c0-55.2,44.5-100,99.2-100c54.7,0,99.2,44.9,99.2,100
	C213.5,187.4,169,232.3,114.3,232.3z M114.3,37.2c-51.9,0-94.2,42.6-94.2,95c0,52.4,42.3,95,94.2,95c51.9,0,94.2-42.6,94.2-95
	C208.5,79.8,166.3,37.2,114.3,37.2z"/>
<g>
	<path fill="none" d="M179.2,93.4c0,0.2,0,0.5,0,0.7C179.2,93.9,179.2,93.6,179.2,93.4z"/>
	<path fill="none" d="M36.3,136.7c0,0.1,0,0.1,0.1,0.2c0.2,0.6,0.4,1.2,0.6,1.8c0,0,0,0,0,0c0,0,0,0,0,0c0.7,1.8,1.5,3.6,2.4,5.3
		c0,0,0,0,0,0c0,0,0,0,0,0c0.3,0.5,0.6,1,0.9,1.6c0,0,0,0,0,0c0,0,0,0.1,0.1,0.1c0.3,0.5,0.6,1,0.9,1.5c0,0,0,0,0,0c0,0,0,0,0,0
		c0,0,0,0,0,0c6.8,10.6,18.9,19.3,40,20.2l-0.2-4.2l-1.4-25.7c-12.8-0.7-20.6-6.5-20.6-6.5s5.5-13.3,16.3-22.6
		c-7.6-0.3-13.7-6.2-14.4-13.7c0,0,0,0,0,0c0-0.2,0-0.4,0-0.6c0-0.3,0-0.5,0-0.8c0-0.4,0-0.8,0.1-1.3c-0.1,0-0.2,0.1-0.2,0.1
		c-0.1,0.1-0.2,0.1-0.3,0.2c-0.2,0.1-0.4,0.2-0.6,0.3c-0.1,0-0.2,0.1-0.3,0.1c-0.2,0.1-0.4,0.2-0.6,0.3c-0.1,0-0.2,0.1-0.3,0.1
		c-0.3,0.1-0.5,0.2-0.8,0.3c0,0,0,0-0.1,0c-0.3,0.1-0.5,0.2-0.8,0.2c-0.1,0-0.1,0-0.2,0c-0.2,0.1-0.4,0.1-0.6,0.1
		c-0.1,0-0.2,0-0.2,0c-0.2,0-0.3,0.1-0.5,0.1c-0.1,0-0.2,0-0.2,0c-0.2,0-0.3,0-0.5,0.1c-0.1,0-0.1,0-0.2,0c-0.2,0-0.4,0-0.6,0
		c0,0,0,0-0.1,0c-0.2,0-0.4,0-0.7,0c0,0,0,0-0.1,0c-0.2,0-0.4,0-0.6-0.1c-0.1,0-0.1,0-0.1,0c-0.1,0-0.3,0-0.4-0.1
		c-0.1,0-0.1,0-0.2,0c-0.1,0-0.3-0.1-0.4-0.1c0,0-0.1,0-0.1,0c-0.2,0-0.3-0.1-0.5-0.1c0,0,0,0-0.1,0c-0.3-0.1-0.7-0.2-1-0.4
		c0,0-0.1,0-0.1,0c-0.1-0.1-0.2-0.1-0.4-0.2c0,0-0.1,0-0.1-0.1c-0.1-0.1-0.2-0.1-0.3-0.2c0,0-0.1,0-0.1,0c-0.1-0.1-0.2-0.1-0.3-0.2
		c0,0,0,0,0,0c-0.2-0.2-0.5-0.3-0.7-0.5c0,0,0,0,0,0c-0.1-0.1-0.2-0.1-0.2-0.2c0,0,0,0-0.1-0.1c-0.1-0.1-0.1-0.1-0.2-0.2
		c0,0,0,0-0.1-0.1c-0.1-0.1-0.1-0.1-0.2-0.2c0,0,0,0,0,0c-0.1-0.1-0.2-0.3-0.3-0.4c0,0,0,0,0,0c-0.3-0.3-0.4-0.5-0.4-0.5
		c0.2,1.2,0.2,2.3,0.1,3.4c0,0,0,0,0,0c0,0.3-0.1,0.7-0.1,1c0,0,0,0,0,0c0,0.3-0.1,0.6-0.2,0.9c0,0,0,0,0,0
		c-0.1,0.3-0.1,0.6-0.2,0.8c0,0,0,0,0,0c-0.1,0.3-0.2,0.5-0.3,0.8c0,0,0,0,0,0c-0.1,0.2-0.2,0.5-0.3,0.7c0,0,0,0,0,0
		c-0.1,0.2-0.2,0.4-0.4,0.6c0,0,0,0,0,0c-0.1,0.2-0.3,0.4-0.4,0.6c0,0,0,0,0,0c-0.1,0.2-0.3,0.4-0.5,0.5c0,0,0,0,0,0
		c-0.2,0.2-0.3,0.3-0.5,0.5c0,0,0,0,0,0c-0.2,0.1-0.3,0.3-0.5,0.4c0,0,0,0,0,0c-0.2,0.1-0.4,0.3-0.6,0.4c0,0,0,0,0,0
		c-0.2,0.1-0.4,0.2-0.6,0.3c0,0,0,0,0,0c-0.2,0.1-0.4,0.2-0.6,0.3c0,0,0,0,0,0c-0.2,0.1-0.4,0.2-0.6,0.2c0,0,0,0,0,0
		c-0.2,0.1-0.4,0.1-0.6,0.2c0,0,0,0,0,0c-0.2,0.1-0.4,0.1-0.6,0.2c0,0,0,0,0,0c-2.7,0.7-5.1,0.4-5.4,0.4c0,0,0,0,0,0s0,0,0,0.1
		c0,0,0,0,0,0c-0.2,0.9-1.3,8.2-0.6,17.6c0.3,4.4,1.1,9.3,2.6,14.3c0,0,0,0,0,0C35.9,135.5,36.1,136.1,36.3,136.7z"/>
	<path fill="none" d="M60.9,93.4c0,0.2,0,0.5,0,0.7C60.9,93.8,60.9,93.6,60.9,93.4z"/>
	<path fill="none" d="M69.9,79.6c0.1,0,0.1-0.1,0.2-0.1c0,0,0,0,0,0c0,0,0,0,0,0c1.2-0.5,2.4-0.8,3.7-1h-5.2c0.2,0.5,0.3,1,0.4,1.5
		C69.3,79.8,69.6,79.7,69.9,79.6z"/>
	<path fill="none" d="M47.3,58l-7.2,9.4l6.3,14.4c7-7.2,11.3-8.4,14.3-8.2l-1.9-5.8C48.3,71.6,47.3,58,47.3,58z"/>
	<path fill="none" d="M179.2,93.4c0-0.2,0-0.5,0-0.7C179.2,92.9,179.2,93.1,179.2,93.4z"/>
	<path fill="#404040" d="M189.3,193.8c0.6-0.7,1.2-1.5,1.7-2.2c-4.3-4.2-8.6-7.7-12.8-10.6C182.4,184.9,186.1,189.2,189.3,193.8z"/>
	<path fill="#DEDEDE" d="M62.8,98.3c-0.1-0.1-0.1-0.1-0.2-0.2C62.7,98.2,62.8,98.3,62.8,98.3z"/>
	<path fill="#DEDEDE" d="M70.3,86.4c3,0.9,5.1,3.7,5.1,7c0,4-3.3,7.3-7.3,7.3c-0.3,0-0.6,0-0.9-0.1c0,0,0,0,0,0
		c-0.2,0-0.5,0.1-0.7,0.1c-2.8,0-5.1-2.6-5.6-5.9c0,0,0,0,0,0c0.7,7.5,6.8,13.4,14.4,13.7c0.8-0.7,1.7-1.4,2.6-2.1l-1.5-27.9h-2.6
		c-1.3,0.2-2.6,0.5-3.7,1C71,81.4,71.3,83.8,70.3,86.4z"/>
	<path fill="#DEDEDE" d="M62.4,97.8c-0.1-0.1-0.1-0.2-0.2-0.2C62.3,97.7,62.3,97.8,62.4,97.8z"/>
	<path fill="#DEDEDE" d="M63.3,98.8c-0.1-0.1-0.1-0.1-0.2-0.2C63.2,98.7,63.2,98.7,63.3,98.8z"/>
	<path fill="#DEDEDE" d="M63.8,99.2c0,0-0.1-0.1-0.1-0.1C63.7,99.1,63.7,99.2,63.8,99.2z"/>
	<path fill="#DEDEDE" d="M64.3,99.5C64.2,99.5,64.2,99.5,64.3,99.5C64.2,99.5,64.2,99.5,64.3,99.5z"/>
	<path fill="#DEDEDE" d="M62,97.3c-0.1-0.1-0.1-0.2-0.2-0.3C61.9,97.1,62,97.2,62,97.3z"/>
	<path fill="#DEDEDE" d="M67.3,100.6C67.3,100.6,67.3,100.6,67.3,100.6C67.3,100.6,67.3,100.6,67.3,100.6
		C67.3,100.6,67.3,100.6,67.3,100.6z"/>
	<path fill="#DEDEDE" d="M61.2,95.5c0-0.1-0.1-0.3-0.1-0.4C61.1,95.2,61.1,95.3,61.2,95.5z"/>
	<path fill="#DEDEDE" d="M61.7,96.7c-0.1-0.1-0.1-0.2-0.1-0.3C61.6,96.5,61.6,96.6,61.7,96.7z"/>
	<path fill="#DEDEDE" d="M69.9,79.6c0.1,0,0.1-0.1,0.2-0.1C70,79.5,70,79.5,69.9,79.6z"/>
	<path fill="#DEDEDE" d="M61.4,96.1c0-0.1-0.1-0.2-0.1-0.3C61.3,95.9,61.4,96,61.4,96.1z"/>
	<path fill="#DEDEDE" d="M61,94.7C61,94.8,61,94.8,61,94.7C61,94.8,61,94.7,61,94.7C61,94.7,61,94.7,61,94.7z"/>
	<path fill="#DEDEDE" d="M60.9,94.1c0-0.2,0-0.5,0-0.7C60.9,93.6,60.9,93.8,60.9,94.1C60.9,94.1,60.9,94.1,60.9,94.1z"/>
	<path fill="#DEDEDE" d="M60.9,93.4c0-0.2,0-0.5,0-0.7C60.9,92.9,60.9,93.1,60.9,93.4z"/>
	<path fill="#DEDEDE" d="M70.3,86.4c1-2.6,0.7-5.1-0.2-6.9c0,0,0,0,0,0c0,0,0,0,0,0c-0.1,0-0.1,0.1-0.2,0.1
		c-0.3,0.1-0.6,0.3-0.9,0.4c0.3,1.8,0,4-1.3,6.1c0.1,0,0.3,0,0.4,0C68.9,86.1,69.6,86.2,70.3,86.4z"/>
	<path fill="#DEDEDE" d="M61,92.1C61,92.1,61,92.1,61,92.1c0,0.1,0,0.2-0.1,0.3C60.9,92.3,61,92.2,61,92.1z"/>
	<path fill="#DEDEDE" d="M61,92.1C60.9,92.1,60.9,92.1,61,92.1c-0.1,0.4-0.1,0.9-0.1,1.3C60.9,92.9,60.9,92.5,61,92.1z"/>
	<path fill="#DEDEDE" d="M60.9,94.3c0,0.1,0,0.3,0.1,0.4c0,0,0,0,0,0C61,94.6,61,94.5,60.9,94.3z"/>
	<path fill="#DEDEDE" d="M60.9,94.2c0,0.2,0,0.4,0,0.6c0,0,0,0,0,0c0,0,0,0,0,0C60.9,94.6,60.9,94.4,60.9,94.2z"/>
	<path fill="#DEDEDE" d="M68.1,100.7c-0.3,0-0.6,0-0.9-0.1C67.6,100.6,67.9,100.7,68.1,100.7z"/>
	<path fill="#DEDEDE" d="M60.9,94.3c0,0.1,0,0.3,0.1,0.4c0,0,0,0,0,0.1c0,0.1,0,0.2,0.1,0.3c0,0.1,0.1,0.3,0.1,0.4
		c0,0.1,0.1,0.2,0.1,0.3c0,0.1,0.1,0.2,0.1,0.3c0,0.1,0.1,0.2,0.1,0.3c0,0.1,0.1,0.2,0.1,0.3c0.1,0.1,0.1,0.2,0.2,0.3
		c0.1,0.1,0.1,0.2,0.2,0.3c0.1,0.1,0.1,0.2,0.2,0.3c0.1,0.1,0.1,0.2,0.2,0.2c0.1,0.1,0.2,0.2,0.2,0.3c0.1,0.1,0.1,0.1,0.2,0.2
		c0.1,0.1,0.2,0.2,0.3,0.3c0.1,0.1,0.1,0.1,0.2,0.2c0.1,0.1,0.2,0.2,0.3,0.3c0,0,0.1,0.1,0.1,0.1c0.1,0.1,0.3,0.2,0.4,0.3
		c0,0,0.1,0,0.1,0.1c0.9,0.6,1.9,0.9,3,1.1c0,0,0,0,0,0c2.8-0.4,5-3.5,5-7.2c0-3.5-2-6.5-4.6-7.1c-1,1.7-2.7,3.3-5.1,4.9
		c-0.3,0.2-0.6,0.4-1,0.6c-0.1,0.1-0.2,0.1-0.3,0.2C61.2,92,61.1,92,61,92.1c0,0.1,0,0.2-0.1,0.3c0,0.1,0,0.2,0,0.2
		c0,0.2,0,0.5,0,0.7c0,0.2,0,0.5,0,0.7C60.9,94.2,60.9,94.3,60.9,94.3z"/>
	<path fill="#DEDEDE" d="M67.8,86.1C67.8,86.1,67.8,86.1,67.8,86.1c0.1,0,0.3,0,0.4,0C68,86.1,67.9,86.1,67.8,86.1z"/>
	<path fill="#C6C6C6" d="M72.3,93.4c0,3.7-2.2,6.8-5,7.2c0,0,0,0,0,0c0,0,0,0,0,0c0.3,0,0.6,0.1,0.9,0.1c4,0,7.3-3.3,7.3-7.3
		c0-3.3-2.2-6.1-5.1-7c-0.7-0.2-1.4-0.3-2.1-0.3c-0.1,0-0.3,0-0.4,0c0,0,0,0.1-0.1,0.1C70.3,86.9,72.3,89.8,72.3,93.4z"/>
	<path fill="#DEDEDE" d="M60.9,92.4c0-0.1,0-0.2,0-0.3c0,0,0,0,0,0c-0.1,0.4-0.1,0.8-0.1,1.3c0-0.2,0-0.5,0-0.7
		C60.9,92.6,60.9,92.5,60.9,92.4z"/>
	<path fill="#DEDEDE" d="M61,94.7c0.5,3.4,2.8,5.9,5.6,5.9c0.2,0,0.5,0,0.7-0.1c0,0,0,0,0,0c-1.1-0.1-2.1-0.5-3-1.1
		c0,0-0.1,0-0.1-0.1c-0.1-0.1-0.3-0.2-0.4-0.3c0,0-0.1-0.1-0.1-0.1c-0.1-0.1-0.2-0.2-0.3-0.3c-0.1-0.1-0.1-0.1-0.2-0.2
		c-0.1-0.1-0.2-0.2-0.3-0.3c-0.1-0.1-0.1-0.1-0.2-0.2c-0.1-0.1-0.2-0.2-0.2-0.3c-0.1-0.1-0.1-0.2-0.2-0.2c-0.1-0.1-0.1-0.2-0.2-0.3
		c-0.1-0.1-0.1-0.2-0.2-0.3c-0.1-0.1-0.1-0.2-0.2-0.3c-0.1-0.1-0.1-0.2-0.1-0.3c0-0.1-0.1-0.2-0.1-0.3c0-0.1-0.1-0.2-0.1-0.3
		c0-0.1-0.1-0.2-0.1-0.3c0-0.1-0.1-0.3-0.1-0.4C61,95,61,94.9,61,94.7C61,94.8,61,94.8,61,94.7c0-0.1,0-0.3,0-0.4c0-0.1,0-0.2,0-0.2
		c0,0,0,0,0,0c0-0.2,0-0.5,0-0.7c0,0.3,0,0.5,0,0.8C60.9,94.4,60.9,94.6,61,94.7z"/>
	<path fill="#DEDEDE" d="M175.8,99.5C175.8,99.5,175.9,99.5,175.8,99.5C175.9,99.5,175.8,99.5,175.8,99.5z"/>
	<path fill="#DEDEDE" d="M178.7,96.1c0-0.1,0.1-0.2,0.1-0.4C178.8,95.9,178.7,96,178.7,96.1z"/>
	<path fill="#DEDEDE" d="M177,98.6c-0.1,0.1-0.1,0.1-0.2,0.2C176.8,98.7,176.9,98.7,177,98.6z"/>
	<path fill="#DEDEDE" d="M179.2,92.7c0,0.2,0,0.5,0,0.7C179.2,93.1,179.2,92.9,179.2,92.7C179.2,92.7,179.2,92.7,179.2,92.7z"/>
	<path fill="#DEDEDE" d="M179.1,94.8c0-0.2,0-0.3,0.1-0.5C179.1,94.5,179.1,94.6,179.1,94.8z"/>
	<path fill="#DEDEDE" d="M178.4,90c0.1,0.1,0.1,0.2,0.2,0.3C178.5,90.2,178.4,90.1,178.4,90z"/>
	<path fill="#DEDEDE" d="M163.4,83.4L163.4,83.4l-1.2,22.9c0.9,0.7,1.8,1.4,2.6,2.1c7.8-0.3,14-6.5,14.4-14.2
		c-0.3,3.6-2.8,6.4-5.7,6.4c-0.2,0-0.5,0-0.7-0.1c0,0,0,0,0,0c-0.3,0-0.6,0.1-0.9,0.1c-4,0-7.3-3.3-7.3-7.3c0-4,3.3-7.3,7.3-7.3
		c0.3,0,0.6,0,0.9,0.1c0.2,0,0.5-0.1,0.7-0.1c2.9,0,5.3,2.8,5.7,6.4c-0.4-7.2-5.9-13.1-13-14.1h-2.6L163.4,83.4z"/>
	<path fill="#DEDEDE" d="M178.1,97.3c0.1-0.1,0.1-0.2,0.2-0.3C178.2,97.1,178.1,97.2,178.1,97.3z"/>
	<path fill="#DEDEDE" d="M177.7,97.9c0.1-0.1,0.1-0.2,0.2-0.2C177.8,97.7,177.7,97.8,177.7,97.9z"/>
	<path fill="#DEDEDE" d="M177.2,98.3c0.1-0.1,0.1-0.1,0.2-0.2C177.4,98.2,177.3,98.3,177.2,98.3z"/>
	<path fill="#DEDEDE" d="M178.9,95.5c0-0.1,0.1-0.3,0.1-0.4C179,95.2,178.9,95.3,178.9,95.5z"/>
	<path fill="#DEDEDE" d="M176.3,99.2c0.1,0,0.1-0.1,0.2-0.1C176.4,99.1,176.4,99.2,176.3,99.2z"/>
	<path fill="#DEDEDE" d="M178.4,96.7c0.1-0.1,0.1-0.2,0.2-0.3C178.5,96.5,178.4,96.6,178.4,96.7z"/>
	<path fill="#DEDEDE" d="M179.2,94.1c0-0.2,0-0.5,0-0.7C179.2,93.6,179.2,93.9,179.2,94.1C179.2,94.1,179.2,94.1,179.2,94.1z"/>
	<path fill="#DEDEDE" d="M176.8,88c0.1,0.1,0.1,0.1,0.2,0.2C176.9,88.1,176.8,88,176.8,88z"/>
	<path fill="#DEDEDE" d="M177.2,88.4c0.1,0.1,0.1,0.1,0.2,0.2C177.4,88.6,177.3,88.5,177.2,88.4z"/>
	<path fill="#DEDEDE" d="M177.7,88.9c0.1,0.1,0.1,0.2,0.2,0.2C177.8,89.1,177.7,89,177.7,88.9z"/>
	<path fill="#DEDEDE" d="M172.8,100.6C172.8,100.6,172.8,100.6,172.8,100.6C172.8,100.6,172.8,100.6,172.8,100.6
		C172.8,100.6,172.8,100.6,172.8,100.6z"/>
	<path fill="#DEDEDE" d="M178.1,89.5c0.1,0.1,0.1,0.2,0.2,0.3C178.2,89.6,178.1,89.5,178.1,89.5z"/>
	<path fill="#DEDEDE" d="M178.7,90.6c0,0.1,0.1,0.2,0.1,0.4C178.8,90.9,178.7,90.8,178.7,90.6z"/>
	<path fill="#DEDEDE" d="M178.9,91.3c0,0.1,0.1,0.3,0.1,0.4C179,91.6,178.9,91.4,178.9,91.3z"/>
	<path fill="#DEDEDE" d="M175.8,87.2C175.8,87.2,175.9,87.3,175.8,87.2C175.9,87.3,175.8,87.2,175.8,87.2z"/>
	<path fill="#DEDEDE" d="M176.3,87.6c0.1,0,0.1,0.1,0.2,0.1C176.4,87.6,176.4,87.6,176.3,87.6z"/>
	<path fill="#DEDEDE" d="M179.1,92c0,0.2,0.1,0.3,0.1,0.5C179.1,92.3,179.1,92.1,179.1,92z"/>
	<path fill="#DEDEDE" d="M172.8,86.2c-0.3,0-0.6-0.1-0.9-0.1C172.2,86.1,172.5,86.1,172.8,86.2C172.8,86.2,172.8,86.2,172.8,86.2z"
		/>
	<path fill="#DEDEDE" d="M172.8,100.6c-0.3,0-0.6,0.1-0.9,0.1C172.2,100.7,172.5,100.6,172.8,100.6z"/>
	<path fill="#DEDEDE" d="M179.1,92.4c0-0.2,0-0.3-0.1-0.5c0-0.1,0-0.2-0.1-0.3c0-0.1-0.1-0.3-0.1-0.4c0-0.1-0.1-0.2-0.1-0.3
		c0-0.1-0.1-0.2-0.1-0.4c0-0.1-0.1-0.2-0.1-0.3c0-0.1-0.1-0.2-0.2-0.3c-0.1-0.1-0.1-0.2-0.2-0.3c-0.1-0.1-0.1-0.2-0.2-0.3
		c-0.1-0.1-0.1-0.2-0.2-0.3c-0.1-0.1-0.1-0.2-0.2-0.2c-0.1-0.1-0.2-0.2-0.2-0.3c-0.1-0.1-0.1-0.1-0.2-0.2c-0.1-0.1-0.2-0.2-0.3-0.3
		c-0.1-0.1-0.1-0.1-0.2-0.2c-0.1-0.1-0.2-0.2-0.3-0.3c0,0-0.1-0.1-0.2-0.1c-0.1-0.1-0.3-0.2-0.4-0.3c0,0-0.1,0-0.1-0.1
		c-0.9-0.6-1.9-0.9-3-1.1c-2.8,0.4-5,3.5-5,7.2c0,3.7,2.2,6.8,5,7.2c0,0,0,0,0,0c1.1-0.1,2.1-0.5,3-1.1c0,0,0.1,0,0.1-0.1
		c0.1-0.1,0.3-0.2,0.4-0.3c0.1,0,0.1-0.1,0.2-0.1c0.1-0.1,0.2-0.2,0.3-0.3c0.1-0.1,0.1-0.1,0.2-0.2c0.1-0.1,0.2-0.2,0.3-0.3
		c0.1-0.1,0.1-0.1,0.2-0.2c0.1-0.1,0.2-0.2,0.2-0.3c0.1-0.1,0.1-0.2,0.2-0.2c0.1-0.1,0.1-0.2,0.2-0.3c0.1-0.1,0.1-0.2,0.2-0.3
		c0.1-0.1,0.1-0.2,0.2-0.3c0.1-0.1,0.1-0.2,0.2-0.3c0-0.1,0.1-0.2,0.1-0.3c0-0.1,0.1-0.2,0.1-0.4c0-0.1,0.1-0.2,0.1-0.3
		c0-0.1,0.1-0.3,0.1-0.4c0-0.1,0-0.2,0.1-0.3c0-0.2,0-0.3,0.1-0.5c0-0.1,0-0.2,0-0.2c0-0.2,0-0.5,0-0.7s0-0.5,0-0.7
		C179.2,92.6,179.2,92.5,179.1,92.4z"/>
	<path fill="#C6C6C6" d="M167.8,93.4c0-3.7,2.2-6.8,5-7.2c-0.3,0-0.6-0.1-0.9-0.1c-4,0-7.3,3.3-7.3,7.3c0,4,3.3,7.3,7.3,7.3
		c0.3,0,0.6,0,0.9-0.1c0,0,0,0,0,0c0,0,0,0,0,0C170,100.2,167.8,97.1,167.8,93.4z"/>
	<path fill="#DEDEDE" d="M173.5,86.1c-0.2,0-0.5,0-0.7,0.1c0,0,0,0,0,0c1.1,0.1,2.1,0.5,3,1.1c0,0,0.1,0,0.1,0.1
		c0.1,0.1,0.3,0.2,0.4,0.3c0.1,0,0.1,0.1,0.2,0.1c0.1,0.1,0.2,0.2,0.3,0.3c0.1,0.1,0.1,0.1,0.2,0.2c0.1,0.1,0.2,0.2,0.3,0.3
		c0.1,0.1,0.1,0.1,0.2,0.2c0.1,0.1,0.2,0.2,0.2,0.3c0.1,0.1,0.1,0.2,0.2,0.2c0.1,0.1,0.1,0.2,0.2,0.3c0.1,0.1,0.1,0.2,0.2,0.3
		c0.1,0.1,0.1,0.2,0.2,0.3c0.1,0.1,0.1,0.2,0.2,0.3c0,0.1,0.1,0.2,0.1,0.3c0,0.1,0.1,0.2,0.1,0.4c0,0.1,0.1,0.2,0.1,0.3
		c0,0.1,0.1,0.3,0.1,0.4c0,0.1,0,0.2,0.1,0.3c0,0.2,0.1,0.3,0.1,0.5c0,0.1,0,0.2,0,0.2c0,0,0,0,0,0c0,0.2,0,0.5,0,0.7
		c0-0.3,0-0.6,0-0.9C178.8,88.9,176.4,86.1,173.5,86.1z"/>
	<path fill="#DEDEDE" d="M179.2,94.1c0,0.1,0,0.2,0,0.2c0,0.2,0,0.3-0.1,0.5c0,0.1,0,0.2-0.1,0.3c0,0.1-0.1,0.3-0.1,0.4
		c0,0.1-0.1,0.2-0.1,0.3c0,0.1-0.1,0.2-0.1,0.4c0,0.1-0.1,0.2-0.1,0.3c0,0.1-0.1,0.2-0.2,0.3c-0.1,0.1-0.1,0.2-0.2,0.3
		c-0.1,0.1-0.1,0.2-0.2,0.3c-0.1,0.1-0.1,0.2-0.2,0.3c-0.1,0.1-0.1,0.2-0.2,0.2c-0.1,0.1-0.2,0.2-0.2,0.3c-0.1,0.1-0.1,0.1-0.2,0.2
		c-0.1,0.1-0.2,0.2-0.3,0.3c-0.1,0.1-0.1,0.1-0.2,0.2c-0.1,0.1-0.2,0.2-0.3,0.3c0,0-0.1,0.1-0.2,0.1c-0.1,0.1-0.3,0.2-0.4,0.3
		c0,0-0.1,0-0.1,0.1c-0.9,0.6-1.9,0.9-3,1.1c0,0,0,0,0,0c0.2,0,0.5,0.1,0.7,0.1c2.9,0,5.3-2.8,5.7-6.4c0-0.3,0-0.6,0-0.9
		C179.2,93.6,179.2,93.9,179.2,94.1C179.2,94.1,179.2,94.1,179.2,94.1z"/>
	<path fill="#DEDEDE" d="M40.9,42.5c0.1-0.1,0.1-0.1,0.2-0.2C41,42.4,40.9,42.4,40.9,42.5z"/>
	<path fill="#DEDEDE" d="M21.3,97.4c0.2-0.6,0.4-1.1,0.6-1.7C21.7,96.3,21.6,96.8,21.3,97.4z"/>
	<path fill="#DEDEDE" d="M12.4,49.4c0-0.3,0-0.6,0-0.8C12.4,48.8,12.4,49.1,12.4,49.4z"/>
	<path fill="#DEDEDE" d="M9.9,42.6c-0.6-0.1-1.2-0.2-1.9-0.1C8.7,42.4,9.3,42.4,9.9,42.6z"/>
	<path fill="#DEDEDE" d="M22,95.4c0.1-0.5,0.3-1.1,0.4-1.6C22.3,94.3,22.1,94.8,22,95.4z"/>
	<path fill="#DEDEDE" d="M54.7,94.1c-0.1,0-0.1,0-0.2,0C54.5,94.1,54.6,94.1,54.7,94.1z"/>
	<path fill="#DEDEDE" d="M42.9,101c0.2-0.1,0.4-0.3,0.5-0.4C43.3,100.7,43.1,100.9,42.9,101z"/>
	<path fill="#DEDEDE" d="M40.5,102.2c0.2-0.1,0.4-0.2,0.6-0.2C40.9,102.1,40.7,102.2,40.5,102.2z"/>
	<path fill="#DEDEDE" d="M44.5,99.5c0.1-0.2,0.3-0.4,0.4-0.6C44.8,99.1,44.6,99.3,44.5,99.5z"/>
	<path fill="#DEDEDE" d="M42.3,101.4c0.2-0.1,0.4-0.2,0.6-0.4C42.7,101.1,42.5,101.3,42.3,101.4z"/>
	<path fill="#DEDEDE" d="M46.4,94.9c0-0.3,0.1-0.7,0.1-1C46.4,94.2,46.4,94.6,46.4,94.9z"/>
	<path fill="#DEDEDE" d="M41.7,101.7c0.2-0.1,0.4-0.2,0.6-0.3C42.1,101.5,41.9,101.6,41.7,101.7z"/>
	<path fill="#DEDEDE" d="M44,100.1c0.2-0.2,0.3-0.3,0.5-0.5C44.3,99.7,44.1,99.9,44,100.1z"/>
	<path fill="#DEDEDE" d="M46,96.7c0.1-0.3,0.2-0.5,0.2-0.8C46.1,96.2,46,96.4,46,96.7z"/>
	<path fill="#DEDEDE" d="M44.9,98.9c0.1-0.2,0.3-0.4,0.4-0.6C45.2,98.5,45.1,98.7,44.9,98.9z"/>
	<path fill="#DEDEDE" d="M46.2,95.8c0.1-0.3,0.1-0.6,0.2-0.9C46.3,95.2,46.3,95.5,46.2,95.8z"/>
	<path fill="#DEDEDE" d="M45.7,97.5c0.1-0.2,0.2-0.5,0.3-0.8C45.9,97,45.8,97.3,45.7,97.5z"/>
	<path fill="#DEDEDE" d="M45.3,98.2c0.1-0.2,0.2-0.5,0.3-0.7C45.5,97.8,45.4,98,45.3,98.2z"/>
	<path fill="#DEDEDE" d="M41.1,102c0.2-0.1,0.4-0.2,0.6-0.3C41.5,101.8,41.3,101.9,41.1,102z"/>
	<path fill="#DEDEDE" d="M39.9,102.5c0.2-0.1,0.4-0.1,0.6-0.2C40.3,102.3,40.1,102.4,39.9,102.5z"/>
	<path fill="#DEDEDE" d="M62.4,64.6c0,0.1-0.1,0.1-0.1,0.2C62.3,64.7,62.4,64.6,62.4,64.6z"/>
	<path fill="#DEDEDE" d="M62.8,63.7c0,0.1-0.1,0.2-0.1,0.3C62.8,63.9,62.8,63.8,62.8,63.7z"/>
	<path fill="#DEDEDE" d="M63.4,61.9c0,0.1,0,0.2-0.1,0.3C63.3,62.1,63.4,62,63.4,61.9z"/>
	<path fill="#DEDEDE" d="M63.6,60.8C63.6,60.9,63.5,60.9,63.6,60.8C63.5,60.9,63.6,60.9,63.6,60.8z"/>
	<path fill="#DEDEDE" d="M63.1,62.8c0,0.1-0.1,0.2-0.1,0.3C63.1,63,63.1,62.9,63.1,62.8z"/>
	<path fill="#DEDEDE" d="M61.8,65.5c0,0.1-0.1,0.1-0.1,0.2C61.7,65.6,61.8,65.5,61.8,65.5z"/>
	<path fill="#DEDEDE" d="M39.3,102.6c0.2-0.1,0.4-0.1,0.6-0.2C39.7,102.5,39.5,102.6,39.3,102.6z"/>
	<path fill="#DEDEDE" d="M59.8,67.2c-0.1,0-0.2,0.1-0.3,0.1C59.6,67.3,59.7,67.3,59.8,67.2z"/>
	<path fill="#DEDEDE" d="M61.2,66.1c-0.1,0.1-0.1,0.1-0.2,0.2C61.1,66.3,61.2,66.2,61.2,66.1z"/>
	<path fill="#DEDEDE" d="M60.6,66.7c-0.1,0.1-0.2,0.1-0.3,0.2C60.4,66.8,60.5,66.8,60.6,66.7z"/>
	<path fill="#DEDEDE" d="M48.5,92.6C48.5,92.6,48.5,92.6,48.5,92.6C48.5,92.6,48.5,92.6,48.5,92.6z"/>
	<path fill="#DEDEDE" d="M51.4,93.9c0,0-0.1,0-0.1,0C51.3,93.9,51.3,93.9,51.4,93.9z"/>
	<path fill="#DEDEDE" d="M63.7,59.6c0,0.1,0,0.2,0,0.3C63.6,59.8,63.7,59.7,63.7,59.6z"/>
	<path fill="#DEDEDE" d="M46.4,91.6c0.1,0.8,0.1,1.6,0,2.3c0.1-1,0-2.1-0.1-3.4c0,0,0.1,0.2,0.4,0.5c0.3-0.7,0.4-1.1,0.4-1.1
		C59.3,92.7,60,81.9,60,81.9l-3.7-7.6c1.7-0.7,3.1-0.8,4.3-0.7l0,0c-3-0.2-7.3,1-14.3,8.2L38.1,71L24,74.6L35.3,68l14.4-16.7
		c3.1,14.5,11.2,7.7,13.8,5c-1-7.4-6-15.5-11.5-15.5c-9.4,0-16.9,9.7-16.9,9.7s0.6-1.6,2.4-4.1C26.3,57.1,29,70.5,29,70.5
		c-6.6-21.7,14.1-36.1,19.9-40.1c2.8-2,4.3-4.8,5-7.1C50,16,21.3,22.1,16.6,59.6c0,0-0.1-0.1-0.3-0.3c2.6,10.5,8.9,13.5,8.9,13.5
		C8.7,67.9,7.5,50.9,8,42.5C3.8,43-1.5,47.8,0.4,58c3.1,16.9,19.4,20.3,19.4,20.3s4.2,6.8,2.6,15.3c0-0.1,0-0.2,0.1-0.3
		C38.1,101.4,44.6,94.9,46.4,91.6z"/>
	<path fill="#DEDEDE" d="M47.8,92.1C47.8,92.1,47.8,92.1,47.8,92.1C47.8,92.1,47.8,92.1,47.8,92.1z"/>
	<path fill="#DEDEDE" d="M50.8,93.7C50.8,93.7,50.8,93.7,50.8,93.7C50.8,93.7,50.8,93.7,50.8,93.7z"/>
	<path fill="#DEDEDE" d="M49.8,93.3C49.8,93.3,49.7,93.3,49.8,93.3C49.7,93.3,49.8,93.3,49.8,93.3z"/>
	<path fill="#DEDEDE" d="M48.9,92.9C48.9,92.9,48.9,92.8,48.9,92.9C48.9,92.8,48.9,92.9,48.9,92.9z"/>
	<path fill="#DEDEDE" d="M44,100.1c-0.2,0.2-0.3,0.3-0.5,0.5C43.6,100.4,43.8,100.3,44,100.1z"/>
	<path fill="#DEDEDE" d="M39.3,102.6c-2.6,0.7-5.1,0.4-5.4,0.4C34.2,103.1,36.6,103.3,39.3,102.6z"/>
	<path fill="#DEDEDE" d="M47.6,91.9C47.5,91.9,47.5,91.8,47.6,91.9C47.5,91.8,47.5,91.9,47.6,91.9z"/>
	<path fill="#DEDEDE" d="M47.3,91.6C47.3,91.6,47.3,91.6,47.3,91.6C47.3,91.6,47.3,91.6,47.3,91.6z"/>
	<path fill="#DEDEDE" d="M47.1,91.4C47.1,91.4,47.1,91.4,47.1,91.4C47.1,91.4,47.1,91.4,47.1,91.4z"/>
	<path fill="#DEDEDE" d="M49.3,93.1C49.3,93.1,49.3,93.1,49.3,93.1C49.3,93.1,49.3,93.1,49.3,93.1z"/>
	<path fill="#DEDEDE" d="M57.8,93.5C57.8,93.5,57.8,93.5,57.8,93.5C57.8,93.5,57.8,93.5,57.8,93.5z"/>
	<path fill="#DEDEDE" d="M58.8,93.1c-0.1,0-0.2,0.1-0.3,0.1C58.7,93.2,58.8,93.1,58.8,93.1z"/>
	<path fill="#DEDEDE" d="M59.8,92.7c-0.1,0-0.2,0.1-0.3,0.1C59.5,92.8,59.7,92.7,59.8,92.7z"/>
	<path fill="#DEDEDE" d="M56.9,93.7c-0.1,0-0.1,0-0.2,0C56.8,93.8,56.9,93.8,56.9,93.7z"/>
	<path fill="#DEDEDE" d="M60.7,92.2c-0.1,0.1-0.2,0.1-0.3,0.2C60.5,92.4,60.6,92.3,60.7,92.2z"/>
	<path fill="#DEDEDE" d="M56.2,93.9c-0.1,0-0.2,0-0.2,0C56,93.9,56.1,93.9,56.2,93.9z"/>
	<path fill="#DEDEDE" d="M53.2,94.2C53.1,94.2,53.1,94.2,53.2,94.2C53.1,94.2,53.1,94.2,53.2,94.2z"/>
	<path fill="#DEDEDE" d="M52.5,94.1c0,0-0.1,0-0.1,0C52.4,94.1,52.5,94.1,52.5,94.1z"/>
	<path fill="#DEDEDE" d="M55.4,94.1c-0.1,0-0.2,0-0.2,0C55.3,94.1,55.3,94.1,55.4,94.1z"/>
	<path fill="#DEDEDE" d="M52,94c-0.1,0-0.1,0-0.2,0C51.9,94,51.9,94,52,94z"/>
	<path fill="#DEDEDE" d="M53.9,94.2C53.9,94.2,53.8,94.2,53.9,94.2C53.8,94.2,53.9,94.2,53.9,94.2z"/>
	<path fill="#DEDEDE" d="M63.5,56.3c0,0.1,0,0.2,0,0.3C63.5,56.5,63.5,56.4,63.5,56.3z"/>
	<path fill="#DEDEDE" d="M13.8,55.5c0.1,0.2,0.2,0.4,0.3,0.5C14,55.8,13.9,55.6,13.8,55.5z"/>
	<path fill="#DEDEDE" d="M12.2,44.2c0,0,0.1,0.1,0.1,0.1C12.3,44.3,12.2,44.2,12.2,44.2z"/>
	<path fill="#DEDEDE" d="M12.6,45.3c0,0.1,0,0.1,0,0.2C12.6,45.5,12.6,45.4,12.6,45.3z"/>
	<path fill="#DEDEDE" d="M12.5,44.8c0,0.1,0,0.1,0,0.2C12.5,44.9,12.5,44.8,12.5,44.8z"/>
	<path fill="#DEDEDE" d="M11.9,43.7c0,0.1,0.1,0.1,0.1,0.2C12,43.9,12,43.8,11.9,43.7z"/>
	<path fill="#DEDEDE" d="M14.3,56.3c0.1,0.2,0.2,0.3,0.2,0.4C14.4,56.6,14.3,56.4,14.3,56.3z"/>
	<path fill="#DEDEDE" d="M49.3,36c-0.2,0.1-0.3,0.2-0.5,0.3C49,36.2,49.2,36.1,49.3,36z"/>
	<path fill="#DEDEDE" d="M50.6,35.3c-0.1,0.1-0.3,0.2-0.4,0.2C50.3,35.5,50.5,35.4,50.6,35.3z"/>
	<path fill="#DEDEDE" d="M14.7,57c0.1,0.1,0.2,0.3,0.2,0.4C14.8,57.3,14.8,57.2,14.7,57z"/>
	<path fill="#DEDEDE" d="M15.5,58.2c0.1,0.1,0.1,0.1,0.2,0.2C15.6,58.4,15.5,58.3,15.5,58.2z"/>
	<path fill="#DEDEDE" d="M13,53.3c0.1,0.3,0.2,0.7,0.3,1C13.2,53.9,13.1,53.6,13,53.3z"/>
	<path fill="#DEDEDE" d="M10.5,42.7c0.3,0.1,0.7,0.3,0.9,0.5C11.1,43,10.8,42.9,10.5,42.7z"/>
	<path fill="#DEDEDE" d="M12.7,52.2c0.1,0.2,0.1,0.5,0.2,0.7C12.8,52.7,12.8,52.5,12.7,52.2z"/>
	<path fill="#DEDEDE" d="M13.3,54.3c0.1,0.3,0.2,0.6,0.3,0.8C13.6,54.9,13.5,54.6,13.3,54.3z"/>
	<path fill="#DEDEDE" d="M63.7,58.5c0,0.1,0,0.3,0,0.4C63.7,58.8,63.7,58.6,63.7,58.5z"/>
	<path fill="#DEDEDE" d="M12.6,46.8c-0.1,0.5-0.1,0.9-0.2,1.3C12.5,47.7,12.5,47.2,12.6,46.8z"/>
	<path fill="#DEDEDE" d="M12.6,45.9c0,0.1,0,0.1,0,0.2C12.6,46.1,12.6,46,12.6,45.9z"/>
	<path fill="#DEDEDE" d="M12.4,49.9c0,0.3,0,0.5,0.1,0.7C12.4,50.4,12.4,50.1,12.4,49.9z"/>
	<path fill="#DEDEDE" d="M12.5,51.1c0,0.2,0.1,0.5,0.1,0.7C12.6,51.6,12.6,51.3,12.5,51.1z"/>
	<path fill="#DEDEDE" d="M15.1,57.7c0.1,0.1,0.1,0.2,0.2,0.3C15.2,57.9,15.2,57.8,15.1,57.7z"/>
	<path fill="#DEDEDE" d="M39.7,43.7c0,0.1-0.1,0.1-0.1,0.2C39.6,43.8,39.6,43.8,39.7,43.7z"/>
	<path fill="#DEDEDE" d="M63.6,57.4c0,0.1,0,0.3,0,0.4C63.6,57.7,63.6,57.5,63.6,57.4z"/>
	<path fill="#DEDEDE" d="M10,42.6c0.1,0,0.3,0.1,0.4,0.1C10.3,42.7,10.1,42.6,10,42.6z"/>
	<path fill="#DEDEDE" d="M11.6,43.4c0.1,0.1,0.1,0.1,0.2,0.2C11.7,43.5,11.6,43.4,11.6,43.4z"/>
	<path fill="#DEDEDE" d="M39,44.5C39,44.5,39,44.5,39,44.5C39,44.5,39,44.5,39,44.5z"/>
	<path fill="#DEDEDE" d="M40.4,43c-0.1,0.1-0.1,0.1-0.2,0.2C40.2,43.1,40.3,43.1,40.4,43z"/>
	<path fill="#DEDEDE" d="M48.1,36.8c-0.2,0.1-0.3,0.2-0.5,0.3C47.8,37,48,36.9,48.1,36.8z"/>
	<path fill="#DEDEDE" d="M41.8,41.6c-0.1,0.1-0.1,0.1-0.2,0.2C41.7,41.7,41.8,41.6,41.8,41.6z"/>
	<path fill="#DEDEDE" d="M42.7,40.8c0,0-0.1,0.1-0.1,0.1C42.6,40.9,42.6,40.9,42.7,40.8z"/>
	<path fill="#DEDEDE" d="M43.6,40C43.6,40,43.6,40.1,43.6,40C43.6,40.1,43.6,40,43.6,40z"/>
	<path fill="#DEDEDE" d="M44.8,39.1c-0.1,0.1-0.2,0.1-0.3,0.2C44.6,39.3,44.7,39.2,44.8,39.1z"/>
	<path fill="#DEDEDE" d="M45.8,38.3c-0.1,0.1-0.3,0.2-0.4,0.3C45.6,38.5,45.7,38.4,45.8,38.3z"/>
	<path fill="#DEDEDE" d="M46.9,37.5c-0.1,0.1-0.3,0.2-0.4,0.3C46.7,37.7,46.8,37.6,46.9,37.5z"/>
	<path fill="#DEDEDE" d="M61.3,91.9c0.1-0.1,0.2-0.1,0.3-0.2C61.5,91.8,61.4,91.8,61.3,91.9z"/>
	<path fill="#DEDEDE" d="M47,91.4C47.1,91.4,47.1,91.4,47,91.4c0.1,0.1,0.2,0.2,0.2,0.2c0,0,0,0,0.1,0.1c0.1,0.1,0.1,0.1,0.2,0.2
		c0,0,0,0,0.1,0.1c0.1,0.1,0.2,0.1,0.2,0.2c0,0,0,0,0,0c0.2,0.2,0.4,0.3,0.7,0.5c0,0,0,0,0,0c0.1,0.1,0.2,0.1,0.3,0.2
		c0,0,0.1,0,0.1,0c0.1,0.1,0.2,0.1,0.3,0.2c0,0,0.1,0,0.1,0.1c0.1,0.1,0.2,0.1,0.4,0.2c0,0,0.1,0,0.1,0c0.3,0.1,0.6,0.3,1,0.4
		c0,0,0,0,0.1,0c0.1,0,0.3,0.1,0.5,0.1c0,0,0.1,0,0.1,0c0.1,0,0.3,0.1,0.4,0.1c0.1,0,0.1,0,0.2,0c0.1,0,0.3,0,0.4,0.1
		c0,0,0.1,0,0.1,0c0.2,0,0.4,0,0.6,0.1c0,0,0,0,0.1,0c0.2,0,0.4,0,0.7,0c0,0,0,0,0.1,0c0.2,0,0.4,0,0.6,0c0.1,0,0.1,0,0.2,0
		c0.2,0,0.3,0,0.5-0.1c0.1,0,0.2,0,0.2,0c0.2,0,0.3-0.1,0.5-0.1c0.1,0,0.2,0,0.2,0c0.2,0,0.4-0.1,0.6-0.1c0.1,0,0.1,0,0.2,0
		c0.3-0.1,0.5-0.2,0.8-0.2c0,0,0,0,0.1,0c0.3-0.1,0.5-0.2,0.8-0.3c0.1,0,0.2-0.1,0.3-0.1c0.2-0.1,0.4-0.2,0.6-0.3
		c0.1,0,0.2-0.1,0.3-0.1c0.2-0.1,0.4-0.2,0.6-0.3c0.1-0.1,0.2-0.1,0.3-0.2c0.1,0,0.2-0.1,0.2-0.1c0,0,0,0,0,0c0,0,0,0,0,0
		c0,0,0,0,0,0c0.1-0.1,0.2-0.1,0.3-0.2c0.1-0.1,0.2-0.1,0.3-0.2c0.3-0.2,0.6-0.4,1-0.6c2.5-1.6,4.1-3.2,5.1-4.9c0,0,0-0.1,0.1-0.1
		c0,0,0,0,0,0c1.3-2.2,1.6-4.3,1.3-6.1c-0.1-0.5-0.2-1-0.4-1.5h-6.4l-1.6-4.9c-1.2-0.1-2.6,0.1-4.3,0.7l3.7,7.6
		c0,0-0.8,10.8-12.9,8.1c0,0-0.1,0.4-0.4,1.1c0,0,0,0,0,0C46.8,91.1,46.9,91.3,47,91.4z"/>
	<path fill="#DEDEDE" d="M33.9,103c0.3,0,2.8,0.3,5.4-0.4c0,0,0,0,0,0c0.2-0.1,0.4-0.1,0.6-0.2c0,0,0,0,0,0c0.2-0.1,0.4-0.1,0.6-0.2
		c0,0,0,0,0,0c0.2-0.1,0.4-0.2,0.6-0.2c0,0,0,0,0,0c0.2-0.1,0.4-0.2,0.6-0.3c0,0,0,0,0,0c0.2-0.1,0.4-0.2,0.6-0.3c0,0,0,0,0,0
		c0.2-0.1,0.4-0.2,0.6-0.4c0,0,0,0,0,0c0.2-0.1,0.4-0.3,0.5-0.4c0,0,0,0,0,0c0.2-0.1,0.3-0.3,0.5-0.5c0,0,0,0,0,0
		c0.2-0.2,0.3-0.3,0.5-0.5c0,0,0,0,0,0c0.1-0.2,0.3-0.4,0.4-0.6c0,0,0,0,0,0c0.1-0.2,0.3-0.4,0.4-0.6c0,0,0,0,0,0
		c0.1-0.2,0.2-0.5,0.3-0.7c0,0,0,0,0,0c0.1-0.2,0.2-0.5,0.3-0.8c0,0,0,0,0,0c0.1-0.3,0.2-0.5,0.2-0.8c0,0,0,0,0,0
		c0.1-0.3,0.1-0.6,0.2-0.9c0,0,0,0,0,0c0-0.3,0.1-0.7,0.1-1c0,0,0,0,0,0c0-0.7,0-1.5,0-2.3c-1.9,3.4-8.4,9.8-24,1.8
		c0,0.1,0,0.2-0.1,0.3c0,0,0,0.1,0,0.1c-0.1,0.6-0.2,1.1-0.4,1.6c0,0.1-0.1,0.2-0.1,0.3c-0.2,0.6-0.3,1.1-0.6,1.7L33.9,103
		C33.8,103,33.8,103,33.9,103z"/>
	<path fill="#DEDEDE" d="M49.7,51.3L35.3,68L24,74.6L38.1,71l8.2,10.7l-6.3-14.4l7.2-9.4c0,0,1,13.5,11.4,9.7
		c0.3-0.1,0.6-0.2,0.9-0.4c0.1,0,0.2-0.1,0.3-0.1c0.2-0.1,0.4-0.2,0.5-0.3c0.1-0.1,0.2-0.1,0.3-0.2c0.2-0.1,0.3-0.2,0.4-0.4
		c0.1-0.1,0.2-0.1,0.2-0.2c0.2-0.2,0.3-0.3,0.4-0.5c0-0.1,0.1-0.1,0.1-0.2c0.2-0.2,0.3-0.5,0.5-0.7c0-0.1,0.1-0.1,0.1-0.2
		c0.1-0.2,0.2-0.4,0.3-0.6c0-0.1,0.1-0.2,0.1-0.3c0.1-0.2,0.1-0.4,0.2-0.6c0-0.1,0.1-0.2,0.1-0.3c0.1-0.2,0.1-0.4,0.2-0.6
		c0-0.1,0.1-0.2,0.1-0.3c0.1-0.3,0.1-0.6,0.2-0.9c0,0,0-0.1,0-0.1c0-0.3,0.1-0.6,0.1-0.9c0-0.1,0-0.2,0-0.3c0-0.2,0-0.5,0-0.7
		c0-0.1,0-0.3,0-0.4c0-0.2,0-0.5,0-0.7c0-0.1,0-0.3,0-0.4c0-0.3,0-0.5-0.1-0.8c0-0.1,0-0.2,0-0.3c0,0,0,0,0,0c0,0,0,0,0,0
		C60.9,59,52.8,65.8,49.7,51.3z"/>
	<path fill="#DEDEDE" d="M48.9,30.4c-5.8,4-26.5,18.4-19.9,40.1c0,0-2.7-13.4,8.4-24.1c0,0,0,0,0,0c0.4-0.6,0.9-1.2,1.5-1.9
		c0,0,0,0,0.1-0.1c0.2-0.2,0.3-0.4,0.5-0.6c0-0.1,0.1-0.1,0.1-0.2c0.2-0.2,0.3-0.3,0.5-0.5c0.1-0.1,0.1-0.1,0.2-0.2
		c0.2-0.2,0.3-0.3,0.5-0.5c0.1-0.1,0.1-0.1,0.2-0.2c0.2-0.2,0.4-0.4,0.6-0.5c0.1-0.1,0.1-0.1,0.2-0.2c0.2-0.2,0.5-0.4,0.7-0.6
		c0,0,0.1-0.1,0.1-0.1c0.3-0.3,0.6-0.5,0.9-0.8c0,0,0,0,0,0c0.3-0.2,0.6-0.5,0.9-0.7c0.1-0.1,0.2-0.1,0.3-0.2
		c0.2-0.2,0.5-0.3,0.7-0.5c0.1-0.1,0.3-0.2,0.4-0.3c0.2-0.2,0.4-0.3,0.7-0.5c0.1-0.1,0.3-0.2,0.4-0.3c0.2-0.2,0.5-0.3,0.7-0.5
		c0.2-0.1,0.3-0.2,0.5-0.3c0.2-0.2,0.5-0.3,0.8-0.5c0.2-0.1,0.3-0.2,0.5-0.3c0.3-0.2,0.6-0.3,0.9-0.5c0.1-0.1,0.3-0.2,0.4-0.2
		c0.4-0.2,0.9-0.5,1.3-0.7c0,0,5.3-3.1,2.2-10.9c-0.1-0.1-0.1-0.3-0.2-0.4c0,0,0,0,0,0C53.2,25.6,51.8,28.4,48.9,30.4z"/>
	<path fill="#DEDEDE" d="M25.2,72.8c0,0-6.3-3-8.9-13.5c0,0,0,0,0,0c-0.2-0.2-0.4-0.5-0.7-0.8c-0.1-0.1-0.1-0.1-0.2-0.2
		c-0.1-0.1-0.1-0.2-0.2-0.2c-0.1-0.1-0.1-0.2-0.2-0.3c-0.1-0.1-0.1-0.2-0.2-0.3c-0.1-0.1-0.2-0.2-0.2-0.4c-0.1-0.1-0.1-0.2-0.2-0.3
		c-0.1-0.1-0.2-0.3-0.2-0.4c-0.1-0.1-0.1-0.2-0.2-0.3c-0.1-0.2-0.2-0.4-0.3-0.5c0-0.1-0.1-0.2-0.1-0.3c-0.1-0.3-0.2-0.6-0.3-0.8
		c0,0,0,0,0-0.1c-0.1-0.3-0.2-0.6-0.3-1c0-0.1-0.1-0.2-0.1-0.3c-0.1-0.2-0.1-0.5-0.2-0.7c0-0.1-0.1-0.3-0.1-0.4
		c0-0.2-0.1-0.5-0.1-0.7c0-0.2,0-0.3-0.1-0.5c0-0.2,0-0.5-0.1-0.7c0-0.2,0-0.3,0-0.5c0-0.3,0-0.6,0-0.8c0-0.1,0-0.3,0-0.4
		c0-0.4,0.1-0.9,0.2-1.3c0-0.2,0.1-0.4,0.1-0.6c0-0.1,0-0.1,0-0.2c0-0.1,0-0.3,0-0.4c0-0.1,0-0.1,0-0.2c0-0.1,0-0.3-0.1-0.4
		c0-0.1,0-0.1,0-0.2c-0.1-0.2-0.1-0.3-0.2-0.5c0,0,0-0.1-0.1-0.1c-0.1-0.1-0.1-0.2-0.2-0.3c0-0.1-0.1-0.1-0.1-0.2
		c-0.1-0.1-0.1-0.1-0.2-0.2c-0.1-0.1-0.1-0.1-0.2-0.2c-0.1,0-0.1-0.1-0.2-0.1c-0.3-0.2-0.6-0.4-0.9-0.5c0,0-0.1,0-0.1,0
		c-0.1,0-0.2-0.1-0.4-0.1c0,0-0.1,0-0.1,0c-0.6-0.1-1.2-0.2-1.9-0.1c0,0,0,0,0,0l0,0C7.5,50.9,8.7,67.9,25.2,72.8z"/>
	<path fill="#404040" d="M63.5,179.5C63.5,179.5,63.5,179.5,63.5,179.5c0.6-0.5,1.2-1.1,1.8-1.6c0.6-0.5,1.2-1,1.9-1.5
		c0.4-0.3,0.9-0.7,1.3-1c0,0,0,0,0,0c3.9-3,8.1-5.6,12.8-7.9l0-0.1c-21.2-0.9-33.2-9.5-40-20.2c-8.8,5.1-17.9,6.4-24.2,6.4
		c0.3,1.4,0.7,2.8,1.1,4.1c5.8,19.9,22.1,37.6,27.8,43.4C50.7,193.1,56.5,185.8,63.5,179.5z"/>
	<path fill="#404040" d="M33.8,103.1C33.8,103.1,33.8,103.1,33.8,103.1C33.8,103.1,33.8,103.1,33.8,103.1z"/>
	<path fill="#404040" d="M37,138.7c-7.6,4.1-16.4,4.9-21.8,4.9c0.2,1.8,0.5,3.7,0.9,5.5c11.4-0.1,20.2-3.6,23.3-5.1
		C38.5,142.2,37.7,140.5,37,138.7z"/>
	<path fill="#404040" d="M41.2,147.2C41.3,147.2,41.3,147.2,41.2,147.2C41.2,147.2,41.2,147.2,41.2,147.2
		C41.2,147.1,41.2,147.2,41.2,147.2z"/>
	<polygon fill="#404040" points="40.3,145.5 40.3,145.5 40.3,145.5 	"/>
	<path fill="#404040" d="M14.8,139.5c10.7,0.1,18.2-3.1,21-4.6c0,0,0,0,0,0c-1.5-4.9-2.2-9.8-2.6-14.3c0,0,0,0,0,0
		c-5.8,3.8-11.8,3.7-17.7,2.6C14.8,128.9,14.6,134.4,14.8,139.5C14.8,139.5,14.8,139.5,14.8,139.5C14.8,139.5,14.8,139.5,14.8,139.5
		z"/>
	<path fill="#757575" d="M37,138.7C37,138.7,37,138.7,37,138.7c-0.2-0.6-0.4-1.2-0.6-1.8c0-0.1,0-0.1-0.1-0.2
		c-0.2-0.6-0.4-1.1-0.5-1.7c0,0,0,0,0,0C36.1,136.2,36.5,137.4,37,138.7C37,138.7,37,138.7,37,138.7z"/>
	<path fill="#404040" d="M35.8,134.9C35.8,134.9,35.8,134.9,35.8,134.9c-2.8,1.4-10.2,4.7-21,4.6c0,0,0,0,0,0
		c0.1,1.3,0.3,2.7,0.4,4.1c5.4,0,14.1-0.8,21.8-4.9C36.5,137.4,36.1,136.2,35.8,134.9z"/>
	<path fill="#757575" d="M35.8,134.9C35.8,134.9,35.8,134.9,35.8,134.9c-2.8,1.4-10.2,4.7-21,4.6c0,0,0,0,0,0
		c0.1,1.3,0.3,2.7,0.4,4.1c5.4,0,14.1-0.8,21.8-4.9C36.5,137.4,36.1,136.2,35.8,134.9z"/>
	<path fill="#757575" d="M41.3,147.2C41.3,147.2,41.3,147.2,41.3,147.2C41.3,147.2,41.3,147.2,41.3,147.2
		C41.3,147.2,41.3,147.2,41.3,147.2z"/>
	<path fill="#757575" d="M40.3,145.5c0.3,0.5,0.6,1.1,1,1.6C40.9,146.6,40.6,146.1,40.3,145.5C40.3,145.6,40.3,145.6,40.3,145.5z"/>
	<path fill="#757575" d="M39.4,144C39.4,144,39.4,144,39.4,144c0.3,0.5,0.6,1,0.9,1.6C40,145,39.7,144.5,39.4,144
		C39.4,144,39.4,144,39.4,144z"/>
	<path fill="#404040" d="M41.3,147.2C41.3,147.2,41.3,147.2,41.3,147.2C41.2,147.2,41.2,147.1,41.3,147.2c-0.4-0.6-0.7-1.1-1-1.6
		c0,0,0,0,0,0c0,0,0,0,0,0c-0.3-0.5-0.6-1-0.9-1.6c-3.2,1.5-11.9,5-23.3,5.1c0.3,1.5,0.6,3,1,4.5C23.4,153.6,32.4,152.3,41.3,147.2
		C41.3,147.2,41.3,147.2,41.3,147.2z"/>
	<path fill="#757575" d="M41.3,147.2C41.3,147.2,41.3,147.2,41.3,147.2C41.2,147.2,41.2,147.1,41.3,147.2c-0.4-0.6-0.7-1.1-1-1.6
		c0,0,0,0,0,0c0,0,0,0,0,0c-0.3-0.5-0.6-1-0.9-1.6c-3.2,1.5-11.9,5-23.3,5.1c0.3,1.5,0.6,3,1,4.5C23.4,153.6,32.4,152.3,41.3,147.2
		C41.3,147.2,41.3,147.2,41.3,147.2z"/>
	<path fill="#757575" d="M33.8,103.1c-0.2,0.9-1.3,8.2-0.6,17.6C32.5,111.3,33.7,104,33.8,103.1z"/>
	<path fill="#757575" d="M15.4,123.2C15.4,123.2,15.4,123.2,15.4,123.2c1-8,2.9-16.7,5.9-25.8C17.9,106.7,16.5,115.2,15.4,123.2z"/>
	<path fill="#757575" d="M33.8,103.1C33.8,103,33.8,103,33.8,103.1C33.8,103,33.8,103,33.8,103.1z"/>
	<path fill="#404040" d="M33.2,120.7C33.2,120.7,33.2,120.7,33.2,120.7c-0.7-9.4,0.5-16.7,0.6-17.6c0,0,0,0,0,0c0,0,0-0.1,0-0.1
		l-12.5-5.6c-3.1,9.2-4.9,17.8-5.9,25.8C21.4,124.4,27.4,124.5,33.2,120.7z"/>
	<path fill="#757575" d="M33.2,120.7C33.2,120.7,33.2,120.7,33.2,120.7c-0.7-9.4,0.5-16.7,0.6-17.6c0,0,0,0,0,0c0,0,0-0.1,0-0.1
		l-12.5-5.6c-3.1,9.2-4.9,17.8-5.9,25.8C21.4,124.4,27.4,124.5,33.2,120.7z"/>
	<path fill="#404040" d="M121.9,176.8c0.7,0,1.4-0.1,2.1-0.1C123.2,176.8,122.5,176.8,121.9,176.8z"/>
	<path fill="#404040" d="M119.4,176.9c0.8,0,1.5,0,2.3,0C120.9,176.9,120.2,176.9,119.4,176.9z"/>
	<path fill="#404040" d="M103,175.2c0.4,0.1,0.7,0.2,1.1,0.2C103.7,175.4,103.3,175.3,103,175.2z"/>
	<path fill="#404040" d="M99.2,174.2c0.2,0.1,0.4,0.1,0.6,0.2C99.7,174.4,99.4,174.3,99.2,174.2z"/>
	<path fill="#404040" d="M101.1,174.7c0.3,0.1,0.6,0.1,0.9,0.2C101.7,174.9,101.4,174.8,101.1,174.7z"/>
	<path fill="#404040" d="M109.3,176.3c0.3,0,0.7,0.1,1,0.1C110,176.4,109.7,176.3,109.3,176.3z"/>
	<path fill="#404040" d="M111.7,176.5c0.3,0,0.6,0,0.9,0.1C112.3,176.6,112,176.6,111.7,176.5z"/>
	<path fill="#404040" d="M114.1,176.7c1.7,0.1,3.4,0.2,5.3,0.2C117.6,176.9,115.8,176.8,114.1,176.7z"/>
	<path fill="#404040" d="M105,175.6c0.3,0.1,0.7,0.1,1,0.2C105.7,175.7,105.3,175.7,105,175.6z"/>
	<path fill="#404040" d="M97.5,173.7c0.2,0.1,0.4,0.1,0.6,0.2C97.9,173.8,97.7,173.8,97.5,173.7z"/>
	<path fill="#404040" d="M107.1,176c0.4,0.1,0.8,0.1,1.1,0.2C107.9,176.1,107.5,176,107.1,176z"/>
	<path fill="#404040" d="M91.6,171.3c0.1,0.1,0.3,0.1,0.4,0.2C91.9,171.5,91.8,171.4,91.6,171.3z"/>
	<path fill="#404040" d="M88.2,169.4c0.1,0,0.1,0.1,0.2,0.1C88.3,169.5,88.2,169.5,88.2,169.4z"/>
	<path fill="#404040" d="M89.2,170.1c0.1,0.1,0.2,0.1,0.3,0.2C89.5,170.2,89.4,170.1,89.2,170.1z"/>
	<path fill="#404040" d="M90.4,170.7c0.1,0.1,0.3,0.1,0.4,0.2C90.7,170.8,90.5,170.8,90.4,170.7z"/>
	<path fill="#404040" d="M95.9,173.1c0.2,0.1,0.5,0.2,0.7,0.2C96.4,173.3,96.1,173.2,95.9,173.1z"/>
	<path fill="#404040" d="M124.5,176.7c0.5,0,1-0.1,1.5-0.1C125.6,176.6,125,176.6,124.5,176.7z"/>
	<path fill="#404040" d="M87.2,168.8C87.2,168.8,87.2,168.8,87.2,168.8C87.2,168.8,87.2,168.8,87.2,168.8z"/>
	<path fill="#404040" d="M93,172c0.1,0.1,0.3,0.1,0.4,0.2C93.2,172.1,93.1,172,93,172z"/>
	<path fill="#404040" d="M94.4,172.6c0.2,0.1,0.4,0.2,0.6,0.2C94.8,172.7,94.6,172.6,94.4,172.6z"/>
	<path fill="#404040" d="M86.3,168.2C86.3,168.2,86.3,168.2,86.3,168.2C86.3,168.2,86.3,168.2,86.3,168.2z"/>
	<path fill="#404040" d="M173,176.5c0.6,0.5,1.2,1,1.8,1.5C174.2,177.4,173.6,177,173,176.5z"/>
	<path fill="#404040" d="M85.5,167.6C85.5,167.6,85.5,167.6,85.5,167.6C85.5,167.6,85.5,167.6,85.5,167.6z"/>
	<path fill="#404040" d="M138.4,174c0.4-0.1,0.7-0.2,1.1-0.3C139.2,173.8,138.8,173.9,138.4,174z"/>
	<path fill="#404040" d="M148,170.3c0.1-0.1,0.3-0.1,0.4-0.2C148.3,170.1,148.2,170.2,148,170.3z"/>
	<path fill="#404040" d="M143.4,172.3c0.3-0.1,0.6-0.2,0.9-0.4C144,172.1,143.7,172.2,143.4,172.3z"/>
	<path fill="#404040" d="M149.4,169.6c0.1-0.1,0.2-0.1,0.3-0.2C149.6,169.5,149.5,169.5,149.4,169.6z"/>
	<path fill="#404040" d="M144.9,171.7c0.3-0.1,0.6-0.2,0.8-0.4C145.5,171.4,145.2,171.6,144.9,171.7z"/>
	<path fill="#404040" d="M146.5,171c0.2-0.1,0.4-0.2,0.6-0.3C146.9,170.8,146.7,170.9,146.5,171z"/>
	<path fill="#404040" d="M135,227.6c6.9-1.5,13.4-3.7,19.7-6.6c-6.3-0.6-12.9-1-19.7-1.2V227.6z"/>
	<path fill="#404040" d="M127.1,176.4c0.4,0,0.7-0.1,1.1-0.1C127.8,176.3,127.5,176.4,127.1,176.4z"/>
	<path fill="#404040" d="M127,219.6h-14c-0.6,0-1,0.4-1,1v9.2c0.8,0,1.5,0,2.3,0c4.7,0,9.2-0.3,13.7-1v-8.2
		C128,220,127.6,219.6,127,219.6z"/>
	<path fill="#404040" d="M76.1,221.9c9,3.9,18.8,6.5,29,7.5v-9.7C95,220.1,85.2,220.8,76.1,221.9z"/>
	<path fill="#404040" d="M132.9,175.5c0.4-0.1,0.9-0.2,1.3-0.3C133.7,175.3,133.3,175.4,132.9,175.5z"/>
	<path fill="#404040" d="M130.9,175.9c0.4-0.1,0.9-0.2,1.3-0.2C131.8,175.7,131.3,175.8,130.9,175.9z"/>
	<path fill="#404040" d="M134.8,175c0.4-0.1,0.8-0.2,1.2-0.3C135.6,174.8,135.2,174.9,134.8,175z"/>
	<path fill="#404040" d="M129.1,176.2c0.4-0.1,0.8-0.1,1.2-0.2C129.8,176,129.4,176.1,129.1,176.2z"/>
	<path fill="#404040" d="M140.2,173.5c0.3-0.1,0.6-0.2,1-0.3C140.9,173.3,140.5,173.4,140.2,173.5z"/>
	<path fill="#404040" d="M136.7,174.5c0.4-0.1,0.7-0.2,1.1-0.3C137.4,174.4,137.1,174.4,136.7,174.5z"/>
	<path fill="#404040" d="M141.9,172.9c0.3-0.1,0.6-0.2,0.9-0.3C142.5,172.7,142.2,172.8,141.9,172.9z"/>
	<path fill="#404040" d="M158,182.6c0,0-14.6,13.3-38.6,13.3c-28.5,0-37.3-13.3-37.3-13.3l-0.8-15.1c-4.6,2.3-8.9,4.9-12.8,7.9
		c-4.8,6.6-11.8,18.4-14.2,33.3c5.3,4.2,11,7.9,17.1,11c10.5-1.4,21.9-2.4,33.9-2.8c0.7-2.2,2.8-3.9,5.2-3.9h19
		c2.5,0,4.5,1.6,5.2,3.9c8.5,0.3,16.8,0.9,24.6,1.7c9.1-4.8,17.4-11.1,24.5-18.5c-3.2-10.9-8.4-19.4-12.3-24.7
		c-3.9-3-8.1-5.6-12.8-7.9L158,182.6z M170,195.8h-2.7l-4.6,5.7v3.6h2.7v1.8H158V205h2.7v-3.6l-4.6-5.7h-2.8V194h6.9v1.8h-1.8l3.2,4
		l3.2-4H163V194h6.9V195.8z"/>
	<path fill="#404040" d="M186.3,197.4c1-1.2,2-2.4,3-3.6c-3.3-4.6-7-8.9-11.1-12.8c-0.6-0.5-1.1-1-1.7-1.6
		C181.1,185.3,184.2,191.5,186.3,197.4z"/>
	<path fill="#404040" d="M67.2,176.4c-0.6,0.5-1.3,1-1.9,1.5C66,177.4,66.6,176.9,67.2,176.4z"/>
	<path fill="#404040" d="M45.9,201.2c1.3,1.3,2,2,2,2c1.1,1,2.2,2,3.3,3c1.9-8.2,5.5-17.8,12.3-26.6
		C56.5,185.8,50.7,193.1,45.9,201.2z"/>
	<path fill="#404040" d="M105.1,218.5c0-0.6,0.1-1.1,0.2-1.6c-12,0.4-23.4,1.4-33.9,2.8c1.5,0.8,3.1,1.5,4.7,2.2
		c9.1-1.1,18.8-1.8,29-2.2V218.5z"/>
	<path fill="#757575" d="M105.1,218.5c0-0.6,0.1-1.1,0.2-1.6c-12,0.4-23.4,1.4-33.9,2.8c1.5,0.8,3.1,1.5,4.7,2.2
		c9.1-1.1,18.8-1.8,29-2.2V218.5z"/>
	<path fill="#404040" d="M135,218.5v1.2c6.8,0.2,13.3,0.7,19.7,1.2c1.6-0.7,3.1-1.5,4.7-2.3c-7.8-0.8-16.1-1.4-24.6-1.7
		C134.9,217.4,135,217.9,135,218.5z"/>
	<path fill="#757575" d="M135,218.5v1.2c6.8,0.2,13.3,0.7,19.7,1.2c1.6-0.7,3.1-1.5,4.7-2.3c-7.8-0.8-16.1-1.4-24.6-1.7
		C134.9,217.4,135,217.9,135,218.5z"/>
	<path fill="#404040" d="M68.5,175.4C68.5,175.4,68.5,175.3,68.5,175.4c-0.4,0.3-0.9,0.7-1.3,1c-0.6,0.5-1.3,1-1.9,1.5
		c-0.6,0.5-1.2,1-1.8,1.6c0,0,0,0,0,0c-6.8,8.8-10.5,18.5-12.3,26.6c1,0.9,2.1,1.8,3.1,2.6C56.7,193.7,63.7,182,68.5,175.4z"/>
	<path fill="#757575" d="M68.5,175.4C68.5,175.4,68.5,175.3,68.5,175.4c-0.4,0.3-0.9,0.7-1.3,1c-0.6,0.5-1.3,1-1.9,1.5
		c-0.6,0.5-1.2,1-1.8,1.6c0,0,0,0,0,0c-6.8,8.8-10.5,18.5-12.3,26.6c1,0.9,2.1,1.8,3.1,2.6C56.7,193.7,63.7,182,68.5,175.4z"/>
	<path fill="#757575" d="M176.5,179.5c-0.6-0.5-1.2-1-1.8-1.5C175.4,178.4,176,178.9,176.5,179.5
		C176.5,179.5,176.5,179.5,176.5,179.5z"/>
	<path fill="#757575" d="M171.5,175.3C171.5,175.3,171.5,175.4,171.5,175.3c0.5,0.4,1,0.8,1.4,1.1
		C172.5,176.1,172,175.7,171.5,175.3z"/>
	<path fill="#404040" d="M183.8,200.1c0.8-0.9,1.7-1.8,2.5-2.7c-2.1-5.9-5.2-12.1-9.8-17.9c-0.6-0.5-1.2-1-1.8-1.5
		c-0.6-0.5-1.2-1-1.8-1.5c-0.5-0.4-0.9-0.7-1.4-1.1C175.4,180.6,180.6,189.2,183.8,200.1z"/>
	<path fill="#757575" d="M183.8,200.1c0.8-0.9,1.7-1.8,2.5-2.7c-2.1-5.9-5.2-12.1-9.8-17.9c-0.6-0.5-1.2-1-1.8-1.5
		c-0.6-0.5-1.2-1-1.8-1.5c-0.5-0.4-0.9-0.7-1.4-1.1C175.4,180.6,180.6,189.2,183.8,200.1z"/>
	<path fill="#DEDEDE" d="M152,137.2c-9.8-1.3-18.6-7.6-24.4-14.8c-2.2,0.9-4.8,1.7-7.5,1.7c-2.8,0-5.3-0.8-7.5-1.7
		c-5.9,7.2-14.7,13.6-24.4,14.8c-3,0.4-5.8,0.5-8.4,0.3l1.4,25.7c0,0,1.3,1.9,4.4,4.3c0,0,0,0,0.1,0c0.2,0.2,0.5,0.4,0.8,0.6
		c0,0,0,0,0,0c0.3,0.2,0.6,0.4,0.9,0.6c0,0,0,0,0,0c0.3,0.2,0.6,0.4,0.9,0.6c0.1,0,0.1,0.1,0.2,0.1c0.3,0.2,0.6,0.3,0.9,0.5
		c0.1,0.1,0.2,0.1,0.3,0.2c0.3,0.1,0.5,0.3,0.8,0.4c0.1,0.1,0.3,0.1,0.4,0.2c0.3,0.1,0.6,0.3,0.8,0.4c0.1,0.1,0.3,0.1,0.4,0.2
		c0.3,0.1,0.6,0.3,0.9,0.4c0.1,0.1,0.3,0.1,0.4,0.2c0.3,0.1,0.7,0.3,1,0.4c0.2,0.1,0.4,0.2,0.6,0.2c0.3,0.1,0.6,0.2,0.9,0.3
		c0.2,0.1,0.5,0.2,0.7,0.2c0.3,0.1,0.6,0.2,0.9,0.3c0.2,0.1,0.4,0.1,0.6,0.2c0.4,0.1,0.7,0.2,1.1,0.4c0.2,0.1,0.4,0.1,0.6,0.2
		c0.4,0.1,0.8,0.2,1.2,0.3c0.3,0.1,0.6,0.1,0.9,0.2c0.3,0.1,0.6,0.2,1,0.2c0.4,0.1,0.7,0.2,1.1,0.2c0.3,0.1,0.6,0.1,0.9,0.2
		c0.3,0.1,0.7,0.1,1,0.2c0.4,0.1,0.7,0.1,1.1,0.2c0.4,0.1,0.8,0.1,1.1,0.2c0.4,0.1,0.7,0.1,1.1,0.2c0.3,0,0.7,0.1,1,0.1
		c0.5,0,0.9,0.1,1.4,0.1c0.3,0,0.6,0,0.9,0.1c0.5,0,1.1,0.1,1.6,0.1c1.7,0.1,3.4,0.2,5.3,0.2c0.8,0,1.5,0,2.3,0c0.1,0,0.1,0,0.2,0
		c0.7,0,1.4-0.1,2.1-0.1c0.2,0,0.4,0,0.6-0.1c0.5,0,1-0.1,1.5-0.1c0.3,0,0.7-0.1,1-0.1c0.4,0,0.7-0.1,1.1-0.1c0.3,0,0.6-0.1,0.9-0.1
		c0.4-0.1,0.8-0.1,1.2-0.2c0.2,0,0.4-0.1,0.6-0.1c0.4-0.1,0.9-0.2,1.3-0.2c0.2,0,0.4-0.1,0.6-0.1c0.4-0.1,0.9-0.2,1.3-0.3
		c0.2-0.1,0.4-0.1,0.7-0.2c0.4-0.1,0.8-0.2,1.2-0.3c0.2-0.1,0.5-0.1,0.7-0.2c0.4-0.1,0.7-0.2,1.1-0.3c0.2-0.1,0.4-0.1,0.6-0.2
		c0.4-0.1,0.7-0.2,1.1-0.3c0.2-0.1,0.5-0.2,0.7-0.2c0.3-0.1,0.6-0.2,1-0.3c0.2-0.1,0.5-0.2,0.7-0.3c0.3-0.1,0.6-0.2,0.9-0.3
		c0.2-0.1,0.4-0.2,0.6-0.3c0.3-0.1,0.6-0.2,0.9-0.4c0.2-0.1,0.4-0.2,0.6-0.3c0.3-0.1,0.6-0.2,0.8-0.4c0.3-0.1,0.5-0.2,0.8-0.4
		c0.2-0.1,0.4-0.2,0.6-0.3c0.3-0.1,0.6-0.3,0.9-0.4c0.1-0.1,0.3-0.1,0.4-0.2c0.3-0.2,0.6-0.3,0.9-0.5c0.1-0.1,0.2-0.1,0.3-0.2
		c6-3.2,9.3-6.2,9.3-6.2l0,0c0,0,0,0,0,0l1.4-25.7C157.8,137.7,155,137.6,152,137.2z M120,129.3c2.9,0,5.7-0.5,8-1.4
		c-1.8,2.4-4.7,3.9-8,3.9c-3.2,0-6.1-1.5-8-3.9C114.4,128.8,117.1,129.3,120,129.3z M120,155.1c5,0,9.7-0.9,13.6-2.4
		c-3.1,4.1-8,6.7-13.6,6.7c-5.6,0-10.5-2.6-13.6-6.7C110.3,154.2,115,155.1,120,155.1z"/>
	<path fill="#DEDEDE" d="M112.1,98.1H128c1.5-6,0.1-14.2,0.1-14.2l0.3-0.5h-16.7l0.3,0.5C112,83.9,110.6,92.2,112.1,98.1z"/>
	<path fill="#DEDEDE" d="M149.1,83.4c2.9,2,4.5,4,4.5,4c-3.4-1.8-6.4-3.1-9-4h-12.8l-0.5,0.6c4.3,8.5,14.3,9.2,14.3,9.2
		c-10.5,1.1-14.4-5.5-14.4-5.5c0.6,5.2-0.5,12-0.5,12l0,0c4.6-1.2,10.9-1.6,19,0.4c4.7,1.2,8.9,3.4,12.5,6.1l1.2-22.9H149.1z"/>
	<path fill="#DEDEDE" d="M90.5,100.2c8.1-2,14.3-1.6,19-0.4l0,0c0,0-1.1-6.8-0.5-12c0,0-3.9,6.6-14.4,5.5c0,0,10-0.7,14.3-9.2
		l-0.5-0.6H95.5c-2.6,0.9-5.7,2.2-9,4c0,0,1.6-2,4.5-4H76.7l-0.3-5h0l1.5,27.9C81.6,103.6,85.8,101.4,90.5,100.2z"/>
	<path fill="#939393" d="M86.5,87.4c3.4-1.8,6.4-3.1,9-4H91C88.1,85.4,86.5,87.4,86.5,87.4z"/>
	<path fill="#939393" d="M131.2,87.8c0,0,3.9,6.6,14.4,5.5c0,0-10-0.7-14.3-9.2l0.5-0.6h-3.3l-0.3,0.5c0,0,1.4,8.2-0.1,14.2h-15.9
		c-1.5-6-0.1-14.2-0.1-14.2l-0.3-0.5h-3.3l0.5,0.6c-4.3,8.5-14.3,9.2-14.3,9.2c10.5,1.1,14.4-5.5,14.4-5.5c-0.6,5.2,0.5,12,0.5,12
		l0,0c0.1,0,0.1,0,0.2,0.1h20.8c0.1,0,0.1,0,0.2-0.1l0,0C130.7,99.8,131.8,93,131.2,87.8z"/>
	<path fill="#939393" d="M153.6,87.4c0,0-1.6-2-4.5-4h-4.6C147.2,84.3,150.2,85.6,153.6,87.4z"/>
	<path fill="#404040" d="M114.5,119.8c1.6-0.6,3.5-1,5.6-1c2.1,0,4,0.4,5.6,1c-1-1.4-1.8-2.8-2.6-4.1h-6
		C116.3,117.1,115.4,118.4,114.5,119.8z"/>
	<path fill="#DEDEDE" d="M120,123.6c-2.7,0-5.3-0.5-7.5-1.3c0,0,0,0,0,0c2.2,0.9,4.8,1.7,7.5,1.7c2.8,0,5.3-0.8,7.5-1.7c0,0,0,0,0,0
		C125.3,123.2,122.8,123.6,120,123.6z"/>
	<path fill="#757575" d="M120,123.6c-2.7,0-5.3-0.5-7.5-1.3c0,0,0,0,0,0c2.2,0.9,4.8,1.7,7.5,1.7c2.8,0,5.3-0.8,7.5-1.7c0,0,0,0,0,0
		C125.3,123.2,122.8,123.6,120,123.6z"/>
	<path fill="#404040" d="M114.5,119.8c-0.6,0.9-1.2,1.7-1.9,2.5c2.2,0.8,4.7,1.3,7.5,1.3c2.7,0,5.3-0.5,7.5-1.3
		c-0.7-0.8-1.3-1.7-1.9-2.5c-1.6-0.6-3.5-1-5.6-1C118,118.8,116.1,119.2,114.5,119.8z"/>
	<path fill="#757575" d="M114.5,119.8c-0.6,0.9-1.2,1.7-1.9,2.5c2.2,0.8,4.7,1.3,7.5,1.3c2.7,0,5.3-0.5,7.5-1.3
		c-0.7-0.8-1.3-1.7-1.9-2.5c-1.6-0.6-3.5-1-5.6-1C118,118.8,116.1,119.2,114.5,119.8z"/>
	<path fill="#FFFFFF" d="M120,107.2L120,107.2L120,107.2c-0.4,2.6-1.4,5.5-3,8.5h6C121.4,112.7,120.4,109.7,120,107.2L120,107.2
		L120,107.2z"/>
	<path fill="#A5A5A5" d="M120,131.8c3.2,0,6.1-1.5,8-3.9c-2.3,0.9-5,1.4-8,1.4c-2.9,0-5.7-0.5-8-1.4
		C113.9,130.2,116.8,131.8,120,131.8z"/>
	<path fill="#A5A5A5" d="M120,159.4c5.6,0,10.5-2.6,13.6-6.7c-3.9,1.5-8.6,2.4-13.6,2.4c-5,0-9.7-0.9-13.6-2.4
		C109.6,156.7,114.5,159.4,120,159.4z"/>
	<polygon fill="#BABABA" points="91,83.4 95.5,83.4 108.4,83.4 111.7,83.4 128.4,83.4 131.7,83.4 144.6,83.4 149.1,83.4 163.4,83.4 
		163.4,83.4 163.6,78.5 76.4,78.5 76.7,83.4 	"/>
	<path fill="#404040" d="M107.2,48.5c2.3-4.8,7.2-8.1,12.9-8.1c5.7,0,10.6,3.3,12.9,8.1h34.8l-3.3,19.2l7.8-44.8
		c0,0-11.7-22.9-51.9-22.9C71.5,0,67.9,22.9,67.9,22.9l7.8,44.8l-3.3-19.2H107.2z"/>
	<path fill="#404040" d="M132.9,48.5c0.9,1.9,1.4,3.9,1.4,6.1c0,5.8-3.5,10.9-8.5,13.1h38.4h0.2l3.3-19.2H132.9z"/>
	<path fill="#757575" d="M132.9,48.5c0.9,1.9,1.4,3.9,1.4,6.1c0,5.8-3.5,10.9-8.5,13.1h38.4h0.2l3.3-19.2H132.9z"/>
	<path fill="#404040" d="M114.3,67.8c-5-2.2-8.5-7.2-8.5-13.1c0-2.2,0.5-4.3,1.4-6.1H72.3l3.3,19.2h0.2H114.3z"/>
	<path fill="#757575" d="M114.3,67.8c-5-2.2-8.5-7.2-8.5-13.1c0-2.2,0.5-4.3,1.4-6.1H72.3l3.3,19.2h0.2H114.3z"/>
	<path fill="#404040" d="M60.6,73.5l1.6,4.9h6.4h5.2h2.6h0h87.2h2.6h11.6l3.6-10.7h-17h-0.2h-38.4c-1.8,0.8-3.7,1.2-5.7,1.2
		c-2,0-4-0.4-5.7-1.2H75.9h-0.2h-17L60.6,73.5L60.6,73.5z"/>
	<path fill="#404040" d="M123.4,56.6l2.7,3.1c0.6-0.7,1-1.4,1.3-2.3L123.4,56.6z"/>
	<path fill="#404040" d="M134.3,54.7c0-2.2-0.5-4.3-1.4-6.1c-2.3-4.8-7.2-8.1-12.9-8.1c-5.7,0-10.6,3.3-12.9,8.1
		c-0.9,1.9-1.4,3.9-1.4,6.1c0,5.8,3.5,10.9,8.5,13.1c1.8,0.8,3.7,1.2,5.7,1.2c2,0,4-0.4,5.7-1.2C130.8,65.5,134.3,60.5,134.3,54.7z
		 M120,67.2c-6.9,0-12.5-5.6-12.5-12.5c0-6.9,5.6-12.5,12.5-12.5c6.9,0,12.5,5.6,12.5,12.5C132.6,61.6,127,67.2,120,67.2z"/>
	<path fill="#404040" d="M120,43.8c-6,0-10.9,4.9-10.9,10.9c0,6,4.9,10.9,10.9,10.9c6,0,10.9-4.9,10.9-10.9
		C130.9,48.7,126,43.8,120,43.8z M120,63.7c-5,0-9.1-4.1-9.1-9c0-5,4.1-9.1,9.1-9.1c5,0,9.1,4.1,9.1,9.1
		C129.1,59.7,125,63.7,120,63.7z"/>
	<path fill="#404040" d="M118.2,62.3c0.6,0.1,1.2,0.2,1.8,0.2c0.3,0,0.5,0,0.8,0l-1.1-3.9L118.2,62.3z"/>
	<path fill="#404040" d="M119.6,50.8l0.8-4c-0.1,0-0.2,0-0.4,0c-0.8,0-1.5,0.1-2.2,0.3L119.6,50.8z"/>
	<path fill="#404040" d="M122.3,51.5l3.3-2.4c-0.6-0.6-1.3-1.1-2.1-1.5L122.3,51.5z"/>
	<path fill="#404040" d="M121,50.9l2.2-3.4c-0.8-0.3-1.6-0.6-2.5-0.6L121,50.9z"/>
	<path fill="#404040" d="M118.2,51.2l-0.7-4c-0.8,0.3-1.6,0.7-2.3,1.2L118.2,51.2z"/>
	<path fill="#404040" d="M127.2,51.5c-0.4-0.8-0.8-1.5-1.4-2.2l-2.5,3.2L127.2,51.5z"/>
	<path fill="#404040" d="M123.9,61.5c0.8-0.4,1.4-1,2-1.6l-3.4-2.2L123.9,61.5z"/>
	<path fill="#404040" d="M127.9,54.3c0-0.9-0.2-1.8-0.5-2.5l-3.5,2.1L127.9,54.3z"/>
	<path fill="#404040" d="M115,48.6c-0.7,0.6-1.2,1.2-1.7,2l3.8,1.5L115,48.6z"/>
	<path fill="#404040" d="M127.5,57.2c0.3-0.8,0.4-1.6,0.4-2.5c0,0,0-0.1,0-0.1l-4,0.7L127.5,57.2z"/>
	<path fill="#404040" d="M112.4,56.5c0.2,0.9,0.5,1.7,1,2.4l3.1-2.7L112.4,56.5z"/>
	<path fill="#404040" d="M113.5,59.1c0.5,0.7,1.1,1.4,1.8,1.9l1.9-3.6L113.5,59.1z"/>
	<path fill="#404040" d="M115.6,61.2c0.7,0.5,1.5,0.9,2.4,1.1l0.4-4L115.6,61.2z"/>
	<path fill="#404040" d="M121.1,62.5c0.9-0.1,1.7-0.4,2.5-0.8l-2.4-3.3L121.1,62.5z"/>
	<path fill="#404040" d="M112.3,53.6c-0.1,0.4-0.1,0.7-0.1,1.1c0,0.5,0.1,1,0.2,1.5l3.8-1.4L112.3,53.6z"/>
	<path fill="#404040" d="M113.2,50.8c-0.4,0.8-0.7,1.6-0.9,2.5l4.1,0.1L113.2,50.8z"/>
	<path fill="#404040" d="M120,42.1c-6.9,0-12.5,5.6-12.5,12.5c0,6.9,5.6,12.5,12.5,12.5c6.9,0,12.5-5.6,12.5-12.5
		C132.6,47.8,127,42.1,120,42.1z M120,65.6c-6,0-10.9-4.9-10.9-10.9c0-6,4.9-10.9,10.9-10.9c6,0,10.9,4.9,10.9,10.9
		C130.9,60.7,126,65.6,120,65.6z"/>
	<path fill="#757575" d="M120,42.1c-6.9,0-12.5,5.6-12.5,12.5c0,6.9,5.6,12.5,12.5,12.5c6.9,0,12.5-5.6,12.5-12.5
		C132.6,47.8,127,42.1,120,42.1z M120,65.6c-6,0-10.9-4.9-10.9-10.9c0-6,4.9-10.9,10.9-10.9c6,0,10.9,4.9,10.9,10.9
		C130.9,60.7,126,65.6,120,65.6z"/>
	<path fill="#404040" d="M120,45.6c-5,0-9.1,4.1-9.1,9.1c0,5,4.1,9,9.1,9c5,0,9.1-4.1,9.1-9C129.1,49.7,125,45.6,120,45.6z
		 M126.7,60.5l-0.9-0.5c-0.6,0.6-1.3,1.2-2,1.6l0.3,0.9l-0.6-0.8c-0.8,0.4-1.6,0.7-2.5,0.8l0,1l-0.3-1c-0.3,0-0.5,0-0.8,0
		c-0.6,0-1.2-0.1-1.8-0.2l-0.4,0.9l0.1-1c-0.9-0.2-1.7-0.6-2.4-1.1l-0.7,0.7l0.5-0.9c-0.7-0.5-1.3-1.2-1.8-1.9l-0.9,0.4l0.8-0.7
		c-0.5-0.7-0.8-1.5-1-2.4l-1,0.1l0.9-0.3c-0.1-0.5-0.2-1-0.2-1.5c0-0.4,0-0.7,0.1-1.1l-1-0.3l1,0c0.2-0.9,0.5-1.7,0.9-2.5l-0.8-0.6
		l0.9,0.4c0.5-0.7,1-1.4,1.7-2l-0.5-0.9l0.7,0.7c0.7-0.5,1.5-0.9,2.3-1.2l-0.2-1l0.4,0.9c0.7-0.2,1.4-0.3,2.2-0.3c0.1,0,0.2,0,0.4,0
		l0.2-1l0.1,1c0.9,0.1,1.7,0.3,2.5,0.6l0.6-0.8l-0.3,1c0.8,0.4,1.5,0.9,2.1,1.5l0.8-0.6l-0.6,0.8c0.6,0.6,1.1,1.4,1.4,2.2l1-0.3
		l-0.9,0.5c0.3,0.8,0.5,1.7,0.5,2.5l1,0.1l-1,0.2c0,0,0,0.1,0,0.1c0,0.9-0.1,1.7-0.4,2.5l0.9,0.5l-1-0.2c-0.3,0.8-0.8,1.6-1.3,2.3
		L126.7,60.5z"/>
	<path fill="#757575" d="M120,45.6c-5,0-9.1,4.1-9.1,9.1c0,5,4.1,9,9.1,9c5,0,9.1-4.1,9.1-9C129.1,49.7,125,45.6,120,45.6z
		 M126.7,60.5l-0.9-0.5c-0.6,0.6-1.3,1.2-2,1.6l0.3,0.9l-0.6-0.8c-0.8,0.4-1.6,0.7-2.5,0.8l0,1l-0.3-1c-0.3,0-0.5,0-0.8,0
		c-0.6,0-1.2-0.1-1.8-0.2l-0.4,0.9l0.1-1c-0.9-0.2-1.7-0.6-2.4-1.1l-0.7,0.7l0.5-0.9c-0.7-0.5-1.3-1.2-1.8-1.9l-0.9,0.4l0.8-0.7
		c-0.5-0.7-0.8-1.5-1-2.4l-1,0.1l0.9-0.3c-0.1-0.5-0.2-1-0.2-1.5c0-0.4,0-0.7,0.1-1.1l-1-0.3l1,0c0.2-0.9,0.5-1.7,0.9-2.5l-0.8-0.6
		l0.9,0.4c0.5-0.7,1-1.4,1.7-2l-0.5-0.9l0.7,0.7c0.7-0.5,1.5-0.9,2.3-1.2l-0.2-1l0.4,0.9c0.7-0.2,1.4-0.3,2.2-0.3c0.1,0,0.2,0,0.4,0
		l0.2-1l0.1,1c0.9,0.1,1.7,0.3,2.5,0.6l0.6-0.8l-0.3,1c0.8,0.4,1.5,0.9,2.1,1.5l0.8-0.6l-0.6,0.8c0.6,0.6,1.1,1.4,1.4,2.2l1-0.3
		l-0.9,0.5c0.3,0.8,0.5,1.7,0.5,2.5l1,0.1l-1,0.2c0,0,0,0.1,0,0.1c0,0.9-0.1,1.7-0.4,2.5l0.9,0.5l-1-0.2c-0.3,0.8-0.8,1.6-1.3,2.3
		L126.7,60.5z"/>
	<path fill="#404040" d="M127.4,57.4c0-0.1,0.1-0.2,0.1-0.3l-3.6-1.9l4-0.7c0-0.1,0-0.2,0-0.3l-4-0.5l3.5-2.1c0-0.1-0.1-0.2-0.1-0.3
		l-3.9,1l2.5-3.2c-0.1-0.1-0.1-0.1-0.2-0.2l-3.3,2.4l1.2-3.9c-0.1,0-0.2-0.1-0.3-0.1l-2.2,3.4l-0.3-4.1c-0.1,0-0.2,0-0.3,0l-0.8,4
		l-1.8-3.7c-0.1,0-0.2,0.1-0.3,0.1l0.7,4l-3-2.8c-0.1,0.1-0.2,0.1-0.2,0.2l2.1,3.5l-3.8-1.5c0,0.1-0.1,0.2-0.1,0.2l3.2,2.5l-4.1-0.1
		c0,0.1,0,0.2,0,0.3l3.9,1.2l-3.8,1.4c0,0.1,0,0.2,0.1,0.3l4.1-0.3l-3.1,2.7c0.1,0.1,0.1,0.2,0.2,0.2l3.7-1.7l-1.9,3.6
		c0.1,0.1,0.1,0.1,0.2,0.2l2.8-3l-0.4,4c0.1,0,0.2,0,0.3,0.1l1.6-3.8l1.1,3.9c0.1,0,0.2,0,0.3,0l0.1-4.1l2.4,3.3
		c0.1,0,0.2-0.1,0.3-0.1l-1.4-3.8l3.4,2.2c0.1-0.1,0.1-0.1,0.2-0.2l-2.7-3.1L127.4,57.4z M120,57.4c-1.5,0-2.7-1.2-2.7-2.7
		c0-1.5,1.2-2.7,2.7-2.7c1.5,0,2.7,1.2,2.7,2.7C122.7,56.2,121.5,57.4,120,57.4z"/>
	<path fill="#757575" d="M127.4,57.4c0-0.1,0.1-0.2,0.1-0.3l-3.6-1.9l4-0.7c0-0.1,0-0.2,0-0.3l-4-0.5l3.5-2.1c0-0.1-0.1-0.2-0.1-0.3
		l-3.9,1l2.5-3.2c-0.1-0.1-0.1-0.1-0.2-0.2l-3.3,2.4l1.2-3.9c-0.1,0-0.2-0.1-0.3-0.1l-2.2,3.4l-0.3-4.1c-0.1,0-0.2,0-0.3,0l-0.8,4
		l-1.8-3.7c-0.1,0-0.2,0.1-0.3,0.1l0.7,4l-3-2.8c-0.1,0.1-0.2,0.1-0.2,0.2l2.1,3.5l-3.8-1.5c0,0.1-0.1,0.2-0.1,0.2l3.2,2.5l-4.1-0.1
		c0,0.1,0,0.2,0,0.3l3.9,1.2l-3.8,1.4c0,0.1,0,0.2,0.1,0.3l4.1-0.3l-3.1,2.7c0.1,0.1,0.1,0.2,0.2,0.2l3.7-1.7l-1.9,3.6
		c0.1,0.1,0.1,0.1,0.2,0.2l2.8-3l-0.4,4c0.1,0,0.2,0,0.3,0.1l1.6-3.8l1.1,3.9c0.1,0,0.2,0,0.3,0l0.1-4.1l2.4,3.3
		c0.1,0,0.2-0.1,0.3-0.1l-1.4-3.8l3.4,2.2c0.1-0.1,0.1-0.1,0.2-0.2l-2.7-3.1L127.4,57.4z M120,57.4c-1.5,0-2.7-1.2-2.7-2.7
		c0-1.5,1.2-2.7,2.7-2.7c1.5,0,2.7,1.2,2.7,2.7C122.7,56.2,121.5,57.4,120,57.4z"/>
	<path fill="#404040" d="M123.8,46.6l-0.6,0.8c0.1,0,0.2,0.1,0.3,0.1L123.8,46.6z"/>
	<path fill="#757575" d="M123.8,46.6l-0.6,0.8c0.1,0,0.2,0.1,0.3,0.1L123.8,46.6z"/>
	<path fill="#757575" d="M123.8,46.6l-0.6,0.8c0.1,0,0.2,0.1,0.3,0.1L123.8,46.6z"/>
	<path fill="#404040" d="M120.6,45.8l-0.2,1c0.1,0,0.2,0,0.3,0L120.6,45.8z"/>
	<path fill="#757575" d="M120.6,45.8l-0.2,1c0.1,0,0.2,0,0.3,0L120.6,45.8z"/>
	<path fill="#757575" d="M120.6,45.8l-0.2,1c0.1,0,0.2,0,0.3,0L120.6,45.8z"/>
	<path fill="#404040" d="M117.4,46.2l0.2,1c0.1,0,0.2-0.1,0.3-0.1L117.4,46.2z"/>
	<path fill="#757575" d="M117.4,46.2l0.2,1c0.1,0,0.2-0.1,0.3-0.1L117.4,46.2z"/>
	<path fill="#757575" d="M117.4,46.2l0.2,1c0.1,0,0.2-0.1,0.3-0.1L117.4,46.2z"/>
	<path fill="#404040" d="M115.2,48.5l-0.7-0.7l0.5,0.9C115.1,48.6,115.2,48.5,115.2,48.5z"/>
	<path fill="#757575" d="M115.2,48.5l-0.7-0.7l0.5,0.9C115.1,48.6,115.2,48.5,115.2,48.5z"/>
	<path fill="#757575" d="M115.2,48.5l-0.7-0.7l0.5,0.9C115.1,48.6,115.2,48.5,115.2,48.5z"/>
	<path fill="#404040" d="M121.1,63.5l0-1c-0.1,0-0.2,0-0.3,0L121.1,63.5z"/>
	<path fill="#757575" d="M121.1,63.5l0-1c-0.1,0-0.2,0-0.3,0L121.1,63.5z"/>
	<path fill="#757575" d="M121.1,63.5l0-1c-0.1,0-0.2,0-0.3,0L121.1,63.5z"/>
	<path fill="#404040" d="M128.4,57.6l-0.9-0.5c0,0.1-0.1,0.2-0.1,0.3L128.4,57.6z"/>
	<path fill="#757575" d="M128.4,57.6l-0.9-0.5c0,0.1-0.1,0.2-0.1,0.3L128.4,57.6z"/>
	<path fill="#757575" d="M128.4,57.6l-0.9-0.5c0,0.1-0.1,0.2-0.1,0.3L128.4,57.6z"/>
	<path fill="#404040" d="M124.2,62.5l-0.3-0.9c-0.1,0-0.2,0.1-0.3,0.1L124.2,62.5z"/>
	<path fill="#757575" d="M124.2,62.5l-0.3-0.9c-0.1,0-0.2,0.1-0.3,0.1L124.2,62.5z"/>
	<path fill="#757575" d="M124.2,62.5l-0.3-0.9c-0.1,0-0.2,0.1-0.3,0.1L124.2,62.5z"/>
	<path fill="#404040" d="M126.7,60.5l-0.7-0.8c-0.1,0.1-0.1,0.1-0.2,0.2L126.7,60.5z"/>
	<path fill="#757575" d="M126.7,60.5l-0.7-0.8c-0.1,0.1-0.1,0.1-0.2,0.2L126.7,60.5z"/>
	<path fill="#757575" d="M126.7,60.5l-0.7-0.8c-0.1,0.1-0.1,0.1-0.2,0.2L126.7,60.5z"/>
	<path fill="#404040" d="M128.2,51.2l-1,0.3c0,0.1,0.1,0.2,0.1,0.3L128.2,51.2z"/>
	<path fill="#757575" d="M128.2,51.2l-1,0.3c0,0.1,0.1,0.2,0.1,0.3L128.2,51.2z"/>
	<path fill="#757575" d="M128.2,51.2l-1,0.3c0,0.1,0.1,0.2,0.1,0.3L128.2,51.2z"/>
	<path fill="#404040" d="M112.6,59.5l0.9-0.4c-0.1-0.1-0.1-0.2-0.2-0.2L112.6,59.5z"/>
	<path fill="#757575" d="M112.6,59.5l0.9-0.4c-0.1-0.1-0.1-0.2-0.2-0.2L112.6,59.5z"/>
	<path fill="#757575" d="M112.6,59.5l0.9-0.4c-0.1-0.1-0.1-0.2-0.2-0.2L112.6,59.5z"/>
	<path fill="#404040" d="M114.9,61.9l0.7-0.7c-0.1-0.1-0.2-0.1-0.2-0.2L114.9,61.9z"/>
	<path fill="#757575" d="M114.9,61.9l0.7-0.7c-0.1-0.1-0.2-0.1-0.2-0.2L114.9,61.9z"/>
	<path fill="#757575" d="M114.9,61.9l0.7-0.7c-0.1-0.1-0.2-0.1-0.2-0.2L114.9,61.9z"/>
	<path fill="#404040" d="M112.4,50.2l0.8,0.6c0-0.1,0.1-0.2,0.1-0.2L112.4,50.2z"/>
	<path fill="#757575" d="M112.4,50.2l0.8,0.6c0-0.1,0.1-0.2,0.1-0.2L112.4,50.2z"/>
	<path fill="#757575" d="M112.4,50.2l0.8,0.6c0-0.1,0.1-0.2,0.1-0.2L112.4,50.2z"/>
	<path fill="#404040" d="M126.4,48.5l-0.8,0.6c0.1,0.1,0.1,0.1,0.2,0.2L126.4,48.5z"/>
	<path fill="#757575" d="M126.4,48.5l-0.8,0.6c0.1,0.1,0.1,0.1,0.2,0.2L126.4,48.5z"/>
	<path fill="#757575" d="M126.4,48.5l-0.8,0.6c0.1,0.1,0.1,0.1,0.2,0.2L126.4,48.5z"/>
	<path fill="#404040" d="M111.4,56.5l1-0.1c0-0.1,0-0.2-0.1-0.3L111.4,56.5z"/>
	<path fill="#757575" d="M111.4,56.5l1-0.1c0-0.1,0-0.2-0.1-0.3L111.4,56.5z"/>
	<path fill="#757575" d="M111.4,56.5l1-0.1c0-0.1,0-0.2-0.1-0.3L111.4,56.5z"/>
	<path fill="#404040" d="M117.9,63.3l0.4-0.9c-0.1,0-0.2,0-0.3-0.1L117.9,63.3z"/>
	<path fill="#757575" d="M117.9,63.3l0.4-0.9c-0.1,0-0.2,0-0.3-0.1L117.9,63.3z"/>
	<path fill="#757575" d="M117.9,63.3l0.4-0.9c-0.1,0-0.2,0-0.3-0.1L117.9,63.3z"/>
	<path fill="#404040" d="M128.9,54.4l-1-0.1c0,0.1,0,0.2,0,0.3L128.9,54.4z"/>
	<path fill="#757575" d="M128.9,54.4l-1-0.1c0,0.1,0,0.2,0,0.3L128.9,54.4z"/>
	<path fill="#757575" d="M128.9,54.4l-1-0.1c0,0.1,0,0.2,0,0.3L128.9,54.4z"/>
	<path fill="#404040" d="M111.3,53.3l1,0.3c0-0.1,0-0.2,0-0.3L111.3,53.3z"/>
	<path fill="#757575" d="M111.3,53.3l1,0.3c0-0.1,0-0.2,0-0.3L111.3,53.3z"/>
	<path fill="#757575" d="M111.3,53.3l1,0.3c0-0.1,0-0.2,0-0.3L111.3,53.3z"/>
	<path fill="#404040" d="M120,52c-1.5,0-2.7,1.2-2.7,2.7c0,1.5,1.2,2.7,2.7,2.7c1.5,0,2.7-1.2,2.7-2.7C122.7,53.2,121.5,52,120,52z"
		/>
	<path fill="#757575" d="M81.3,167.4C81.3,167.4,81.3,167.4,81.3,167.4c0.8-0.4,1.7-0.8,2.5-1.1c-2-1.8-2.8-3-2.8-3L81.3,167.4
		C81.3,167.4,81.3,167.4,81.3,167.4z"/>
	<path fill="#757575" d="M158.8,167.5l0.2-4.2c0,0-1.2,1.1-3.5,2.7C156.6,166.4,157.7,166.9,158.8,167.5z"/>
	<path fill="#404040" d="M149.7,169.4c-0.1,0.1-0.2,0.1-0.3,0.2c-0.3,0.2-0.6,0.3-0.9,0.5c-0.1,0.1-0.3,0.1-0.4,0.2
		c-0.3,0.1-0.6,0.3-0.9,0.4c-0.2,0.1-0.4,0.2-0.6,0.3c-0.3,0.1-0.5,0.2-0.8,0.4c-0.3,0.1-0.5,0.2-0.8,0.4c-0.2,0.1-0.4,0.2-0.6,0.3
		c-0.3,0.1-0.6,0.2-0.9,0.4c-0.2,0.1-0.4,0.2-0.6,0.3c-0.3,0.1-0.6,0.2-0.9,0.3c-0.2,0.1-0.5,0.2-0.7,0.3c-0.3,0.1-0.6,0.2-1,0.3
		c-0.2,0.1-0.5,0.2-0.7,0.2c-0.4,0.1-0.7,0.2-1.1,0.3c-0.2,0.1-0.4,0.1-0.6,0.2c-0.4,0.1-0.7,0.2-1.1,0.3c-0.2,0.1-0.5,0.1-0.7,0.2
		c-0.4,0.1-0.8,0.2-1.2,0.3c-0.2,0.1-0.4,0.1-0.7,0.2c-0.4,0.1-0.8,0.2-1.3,0.3c-0.2,0-0.4,0.1-0.6,0.1c-0.4,0.1-0.9,0.2-1.3,0.2
		c-0.2,0-0.4,0.1-0.6,0.1c-0.4,0.1-0.8,0.1-1.2,0.2c-0.3,0-0.6,0.1-0.9,0.1c-0.4,0-0.7,0.1-1.1,0.1c-0.3,0-0.7,0.1-1,0.1
		c-0.5,0.1-1,0.1-1.5,0.1c-0.2,0-0.4,0-0.6,0.1c-0.7,0-1.4,0.1-2.1,0.1c-0.1,0-0.1,0-0.2,0c-0.8,0-1.5,0-2.3,0
		c-1.8,0-3.6-0.1-5.3-0.2c-0.5,0-1.1-0.1-1.6-0.1c-0.3,0-0.6,0-0.9-0.1c-0.5,0-0.9-0.1-1.4-0.1c-0.3,0-0.7-0.1-1-0.1
		c-0.4,0-0.7-0.1-1.1-0.2c-0.4-0.1-0.8-0.1-1.1-0.2c-0.4-0.1-0.7-0.1-1.1-0.2c-0.3-0.1-0.7-0.1-1-0.2c-0.3-0.1-0.6-0.1-0.9-0.2
		c-0.4-0.1-0.8-0.1-1.1-0.2c-0.3-0.1-0.7-0.2-1-0.2c-0.3-0.1-0.6-0.1-0.9-0.2c-0.4-0.1-0.8-0.2-1.2-0.3c-0.2-0.1-0.4-0.1-0.6-0.2
		c-0.4-0.1-0.8-0.2-1.1-0.4c-0.2-0.1-0.4-0.1-0.6-0.2c-0.3-0.1-0.6-0.2-0.9-0.3c-0.2-0.1-0.5-0.2-0.7-0.2c-0.3-0.1-0.6-0.2-0.9-0.3
		c-0.2-0.1-0.4-0.2-0.6-0.2c-0.4-0.1-0.7-0.3-1-0.4c-0.1-0.1-0.3-0.1-0.4-0.2c-0.3-0.1-0.6-0.3-0.9-0.4c-0.1-0.1-0.3-0.1-0.4-0.2
		c-0.3-0.1-0.6-0.3-0.8-0.4c-0.1-0.1-0.3-0.1-0.4-0.2c-0.3-0.1-0.5-0.3-0.8-0.4c-0.1-0.1-0.2-0.1-0.3-0.2c-0.3-0.2-0.6-0.3-0.9-0.5
		c-0.1,0-0.1-0.1-0.2-0.1c-0.3-0.2-0.6-0.4-0.9-0.6c0,0,0,0,0,0c-0.3-0.2-0.6-0.4-0.9-0.6c0,0,0,0,0,0c-0.3-0.2-0.5-0.4-0.8-0.6
		c0,0,0,0-0.1,0c-0.6-0.5-1.1-0.9-1.6-1.3c-0.9,0.4-1.7,0.8-2.5,1.2c0,0,0,0,0,0c0,0,0,0-0.1,0l0,0.1l0.8,15.1
		c0,0,8.8,13.3,37.3,13.3c24,0,38.6-13.3,38.6-13.3l0.8-15.1c-1.1-0.5-2.2-1-3.3-1.5C154,166.9,152.1,168.2,149.7,169.4z M120,195.6
		c-0.7-2.5-1.1-5.8-1.1-9.3c0-3.5,0.4-6.8,1.1-9.3c0.7,2.5,1.1,5.8,1.1,9.3C121.2,189.9,120.8,193.1,120,195.6z M127,189.6
		c-0.9,0-1.7-0.4-2.2-1.1c-0.7-0.5-1.1-1.3-1.1-2.2c0-1.5,1.2-2.7,2.7-2.7c0.9,0,1.7,0.4,2.2,1.1c0.7,0.5,1.1,1.3,1.1,2.2
		C129.7,188.4,128.5,189.6,127,189.6z"/>
	<path fill="#757575" d="M149.7,169.4c-0.1,0.1-0.2,0.1-0.3,0.2c-0.3,0.2-0.6,0.3-0.9,0.5c-0.1,0.1-0.3,0.1-0.4,0.2
		c-0.3,0.1-0.6,0.3-0.9,0.4c-0.2,0.1-0.4,0.2-0.6,0.3c-0.3,0.1-0.5,0.2-0.8,0.4c-0.3,0.1-0.5,0.2-0.8,0.4c-0.2,0.1-0.4,0.2-0.6,0.3
		c-0.3,0.1-0.6,0.2-0.9,0.4c-0.2,0.1-0.4,0.2-0.6,0.3c-0.3,0.1-0.6,0.2-0.9,0.3c-0.2,0.1-0.5,0.2-0.7,0.3c-0.3,0.1-0.6,0.2-1,0.3
		c-0.2,0.1-0.5,0.2-0.7,0.2c-0.4,0.1-0.7,0.2-1.1,0.3c-0.2,0.1-0.4,0.1-0.6,0.2c-0.4,0.1-0.7,0.2-1.1,0.3c-0.2,0.1-0.5,0.1-0.7,0.2
		c-0.4,0.1-0.8,0.2-1.2,0.3c-0.2,0.1-0.4,0.1-0.7,0.2c-0.4,0.1-0.8,0.2-1.3,0.3c-0.2,0-0.4,0.1-0.6,0.1c-0.4,0.1-0.9,0.2-1.3,0.2
		c-0.2,0-0.4,0.1-0.6,0.1c-0.4,0.1-0.8,0.1-1.2,0.2c-0.3,0-0.6,0.1-0.9,0.1c-0.4,0-0.7,0.1-1.1,0.1c-0.3,0-0.7,0.1-1,0.1
		c-0.5,0.1-1,0.1-1.5,0.1c-0.2,0-0.4,0-0.6,0.1c-0.7,0-1.4,0.1-2.1,0.1c-0.1,0-0.1,0-0.2,0c-0.8,0-1.5,0-2.3,0
		c-1.8,0-3.6-0.1-5.3-0.2c-0.5,0-1.1-0.1-1.6-0.1c-0.3,0-0.6,0-0.9-0.1c-0.5,0-0.9-0.1-1.4-0.1c-0.3,0-0.7-0.1-1-0.1
		c-0.4,0-0.7-0.1-1.1-0.2c-0.4-0.1-0.8-0.1-1.1-0.2c-0.4-0.1-0.7-0.1-1.1-0.2c-0.3-0.1-0.7-0.1-1-0.2c-0.3-0.1-0.6-0.1-0.9-0.2
		c-0.4-0.1-0.8-0.1-1.1-0.2c-0.3-0.1-0.7-0.2-1-0.2c-0.3-0.1-0.6-0.1-0.9-0.2c-0.4-0.1-0.8-0.2-1.2-0.3c-0.2-0.1-0.4-0.1-0.6-0.2
		c-0.4-0.1-0.8-0.2-1.1-0.4c-0.2-0.1-0.4-0.1-0.6-0.2c-0.3-0.1-0.6-0.2-0.9-0.3c-0.2-0.1-0.5-0.2-0.7-0.2c-0.3-0.1-0.6-0.2-0.9-0.3
		c-0.2-0.1-0.4-0.2-0.6-0.2c-0.4-0.1-0.7-0.3-1-0.4c-0.1-0.1-0.3-0.1-0.4-0.2c-0.3-0.1-0.6-0.3-0.9-0.4c-0.1-0.1-0.3-0.1-0.4-0.2
		c-0.3-0.1-0.6-0.3-0.8-0.4c-0.1-0.1-0.3-0.1-0.4-0.2c-0.3-0.1-0.5-0.3-0.8-0.4c-0.1-0.1-0.2-0.1-0.3-0.2c-0.3-0.2-0.6-0.3-0.9-0.5
		c-0.1,0-0.1-0.1-0.2-0.1c-0.3-0.2-0.6-0.4-0.9-0.6c0,0,0,0,0,0c-0.3-0.2-0.6-0.4-0.9-0.6c0,0,0,0,0,0c-0.3-0.2-0.5-0.4-0.8-0.6
		c0,0,0,0-0.1,0c-0.6-0.5-1.1-0.9-1.6-1.3c-0.9,0.4-1.7,0.8-2.5,1.2c0,0,0,0,0,0c0,0,0,0-0.1,0l0,0.1l0.8,15.1
		c0,0,8.8,13.3,37.3,13.3c24,0,38.6-13.3,38.6-13.3l0.8-15.1c-1.1-0.5-2.2-1-3.3-1.5C154,166.9,152.1,168.2,149.7,169.4z M120,195.6
		c-0.7-2.5-1.1-5.8-1.1-9.3c0-3.5,0.4-6.8,1.1-9.3c0.7,2.5,1.1,5.8,1.1,9.3C121.2,189.9,120.8,193.1,120,195.6z M127,189.6
		c-0.9,0-1.7-0.4-2.2-1.1c-0.7-0.5-1.1-1.3-1.1-2.2c0-1.5,1.2-2.7,2.7-2.7c0.9,0,1.7,0.4,2.2,1.1c0.7,0.5,1.1,1.3,1.1,2.2
		C129.7,188.4,128.5,189.6,127,189.6z"/>
	<path fill="#DEDEDE" d="M149.7,169.4c2.4-1.3,4.3-2.5,5.8-3.5c2.3-1.6,3.5-2.7,3.5-2.7l0,0C159,163.2,155.7,166.2,149.7,169.4z"/>
	<path fill="#757575" d="M149.7,169.4c2.4-1.3,4.3-2.5,5.8-3.5c2.3-1.6,3.5-2.7,3.5-2.7l0,0C159,163.2,155.7,166.2,149.7,169.4z"/>
	<path fill="#DEDEDE" d="M83.9,166.2c0.5,0.4,1,0.9,1.6,1.3c-3.1-2.4-4.4-4.3-4.4-4.3C81.1,163.2,81.9,164.5,83.9,166.2z"/>
	<path fill="#757575" d="M83.9,166.2c0.5,0.4,1,0.9,1.6,1.3c-3.1-2.4-4.4-4.3-4.4-4.3C81.1,163.2,81.9,164.5,83.9,166.2z"/>
	<path fill="#DEDEDE" d="M106,175.8c0.4,0.1,0.7,0.1,1.1,0.2C106.7,175.9,106.4,175.9,106,175.8z"/>
	<path fill="#757575" d="M106,175.8c0.4,0.1,0.7,0.1,1.1,0.2C106.7,175.9,106.4,175.9,106,175.8z"/>
	<path fill="#DEDEDE" d="M99.9,174.4c0.4,0.1,0.8,0.2,1.2,0.3C100.6,174.6,100.3,174.5,99.9,174.4z"/>
	<path fill="#757575" d="M99.9,174.4c0.4,0.1,0.8,0.2,1.2,0.3C100.6,174.6,100.3,174.5,99.9,174.4z"/>
	<path fill="#DEDEDE" d="M139.5,173.7c0.2-0.1,0.5-0.2,0.7-0.2C140,173.6,139.7,173.6,139.5,173.7z"/>
	<path fill="#757575" d="M139.5,173.7c0.2-0.1,0.5-0.2,0.7-0.2C140,173.6,139.7,173.6,139.5,173.7z"/>
	<path fill="#DEDEDE" d="M102,175c0.3,0.1,0.6,0.2,1,0.2C102.6,175.1,102.3,175,102,175z"/>
	<path fill="#757575" d="M102,175c0.3,0.1,0.6,0.2,1,0.2C102.6,175.1,102.3,175,102,175z"/>
	<path fill="#DEDEDE" d="M148.4,170.1c0.3-0.2,0.6-0.3,0.9-0.5C149.1,169.7,148.8,169.9,148.4,170.1z"/>
	<path fill="#757575" d="M148.4,170.1c0.3-0.2,0.6-0.3,0.9-0.5C149.1,169.7,148.8,169.9,148.4,170.1z"/>
	<path fill="#DEDEDE" d="M93.4,172.1c0.3,0.1,0.7,0.3,1,0.4C94,172.4,93.7,172.3,93.4,172.1z"/>
	<path fill="#757575" d="M93.4,172.1c0.3,0.1,0.7,0.3,1,0.4C94,172.4,93.7,172.3,93.4,172.1z"/>
	<path fill="#DEDEDE" d="M95,172.8c0.3,0.1,0.6,0.2,0.9,0.3C95.6,173,95.3,172.9,95,172.8z"/>
	<path fill="#757575" d="M95,172.8c0.3,0.1,0.6,0.2,0.9,0.3C95.6,173,95.3,172.9,95,172.8z"/>
	<path fill="#DEDEDE" d="M92.1,171.5c0.3,0.1,0.6,0.3,0.9,0.4C92.7,171.8,92.4,171.7,92.1,171.5z"/>
	<path fill="#757575" d="M92.1,171.5c0.3,0.1,0.6,0.3,0.9,0.4C92.7,171.8,92.4,171.7,92.1,171.5z"/>
	<path fill="#DEDEDE" d="M96.6,173.4c0.3,0.1,0.6,0.2,0.9,0.3C97.2,173.6,96.9,173.5,96.6,173.4z"/>
	<path fill="#757575" d="M96.6,173.4c0.3,0.1,0.6,0.2,0.9,0.3C97.2,173.6,96.9,173.5,96.6,173.4z"/>
	<path fill="#DEDEDE" d="M98.1,173.9c0.4,0.1,0.7,0.2,1.1,0.4C98.9,174.1,98.5,174,98.1,173.9z"/>
	<path fill="#757575" d="M98.1,173.9c0.4,0.1,0.7,0.2,1.1,0.4C98.9,174.1,98.5,174,98.1,173.9z"/>
	<path fill="#DEDEDE" d="M104.1,175.4c0.3,0.1,0.6,0.1,0.9,0.2C104.7,175.6,104.4,175.5,104.1,175.4z"/>
	<path fill="#757575" d="M104.1,175.4c0.3,0.1,0.6,0.1,0.9,0.2C104.7,175.6,104.4,175.5,104.1,175.4z"/>
	<path fill="#DEDEDE" d="M134.1,175.2c0.2-0.1,0.4-0.1,0.7-0.2C134.6,175.1,134.4,175.2,134.1,175.2z"/>
	<path fill="#757575" d="M134.1,175.2c0.2-0.1,0.4-0.1,0.7-0.2C134.6,175.1,134.4,175.2,134.1,175.2z"/>
	<path fill="#DEDEDE" d="M132.2,175.6c0.2,0,0.4-0.1,0.6-0.1C132.6,175.5,132.4,175.6,132.2,175.6z"/>
	<path fill="#757575" d="M132.2,175.6c0.2,0,0.4-0.1,0.6-0.1C132.6,175.5,132.4,175.6,132.2,175.6z"/>
	<path fill="#DEDEDE" d="M136,174.7c0.2-0.1,0.5-0.1,0.7-0.2C136.5,174.6,136.2,174.7,136,174.7z"/>
	<path fill="#757575" d="M136,174.7c0.2-0.1,0.5-0.1,0.7-0.2C136.5,174.6,136.2,174.7,136,174.7z"/>
	<path fill="#DEDEDE" d="M144.3,172c0.2-0.1,0.4-0.2,0.6-0.3C144.7,171.8,144.5,171.9,144.3,172z"/>
	<path fill="#757575" d="M144.3,172c0.2-0.1,0.4-0.2,0.6-0.3C144.7,171.8,144.5,171.9,144.3,172z"/>
	<path fill="#DEDEDE" d="M137.8,174.2c0.2-0.1,0.4-0.1,0.6-0.2C138.2,174.1,138,174.2,137.8,174.2z"/>
	<path fill="#757575" d="M137.8,174.2c0.2-0.1,0.4-0.1,0.6-0.2C138.2,174.1,138,174.2,137.8,174.2z"/>
	<path fill="#DEDEDE" d="M130.2,176c0.2,0,0.4-0.1,0.6-0.1C130.7,175.9,130.4,175.9,130.2,176z"/>
	<path fill="#757575" d="M130.2,176c0.2,0,0.4-0.1,0.6-0.1C130.7,175.9,130.4,175.9,130.2,176z"/>
	<path fill="#DEDEDE" d="M126.1,176.5c0.3,0,0.7-0.1,1-0.1C126.8,176.5,126.4,176.5,126.1,176.5z"/>
	<path fill="#757575" d="M126.1,176.5c0.3,0,0.7-0.1,1-0.1C126.8,176.5,126.4,176.5,126.1,176.5z"/>
	<path fill="#DEDEDE" d="M121.7,176.8c0.1,0,0.1,0,0.2,0C121.8,176.8,121.7,176.8,121.7,176.8z"/>
	<path fill="#757575" d="M121.7,176.8c0.1,0,0.1,0,0.2,0C121.8,176.8,121.7,176.8,121.7,176.8z"/>
	<path fill="#DEDEDE" d="M112.5,176.6c0.5,0,1.1,0.1,1.6,0.1C113.6,176.7,113.1,176.6,112.5,176.6z"/>
	<path fill="#757575" d="M112.5,176.6c0.5,0,1.1,0.1,1.6,0.1C113.6,176.7,113.1,176.6,112.5,176.6z"/>
	<path fill="#DEDEDE" d="M110.3,176.4c0.5,0,0.9,0.1,1.4,0.1C111.2,176.5,110.8,176.4,110.3,176.4z"/>
	<path fill="#757575" d="M110.3,176.4c0.5,0,0.9,0.1,1.4,0.1C111.2,176.5,110.8,176.4,110.3,176.4z"/>
	<path fill="#DEDEDE" d="M123.9,176.7c0.2,0,0.4,0,0.6-0.1C124.3,176.7,124.1,176.7,123.9,176.7z"/>
	<path fill="#757575" d="M123.9,176.7c0.2,0,0.4,0,0.6-0.1C124.3,176.7,124.1,176.7,123.9,176.7z"/>
	<path fill="#DEDEDE" d="M128.2,176.3c0.3,0,0.6-0.1,0.9-0.1C128.8,176.2,128.5,176.3,128.2,176.3z"/>
	<path fill="#757575" d="M128.2,176.3c0.3,0,0.6-0.1,0.9-0.1C128.8,176.2,128.5,176.3,128.2,176.3z"/>
	<path fill="#DEDEDE" d="M108.2,176.1c0.4,0.1,0.7,0.1,1.1,0.2C109,176.2,108.6,176.2,108.2,176.1z"/>
	<path fill="#757575" d="M108.2,176.1c0.4,0.1,0.7,0.1,1.1,0.2C109,176.2,108.6,176.2,108.2,176.1z"/>
	<path fill="#DEDEDE" d="M88.4,169.5c0.3,0.2,0.6,0.3,0.9,0.5C88.9,169.9,88.7,169.7,88.4,169.5z"/>
	<path fill="#757575" d="M88.4,169.5c0.3,0.2,0.6,0.3,0.9,0.5C88.9,169.9,88.7,169.7,88.4,169.5z"/>
	<path fill="#DEDEDE" d="M85.5,167.6c0.2,0.2,0.5,0.4,0.8,0.6C86,168,85.8,167.8,85.5,167.6z"/>
	<path fill="#757575" d="M85.5,167.6c0.2,0.2,0.5,0.4,0.8,0.6C86,168,85.8,167.8,85.5,167.6z"/>
	<path fill="#DEDEDE" d="M87.2,168.8c0.3,0.2,0.6,0.4,0.9,0.6C87.9,169.2,87.5,169,87.2,168.8z"/>
	<path fill="#757575" d="M87.2,168.8c0.3,0.2,0.6,0.4,0.9,0.6C87.9,169.2,87.5,169,87.2,168.8z"/>
	<path fill="#DEDEDE" d="M90.8,170.9c0.3,0.1,0.6,0.3,0.8,0.4C91.3,171.2,91.1,171,90.8,170.9z"/>
	<path fill="#757575" d="M90.8,170.9c0.3,0.1,0.6,0.3,0.8,0.4C91.3,171.2,91.1,171,90.8,170.9z"/>
	<path fill="#DEDEDE" d="M147.1,170.7c0.3-0.1,0.6-0.3,0.9-0.4C147.7,170.4,147.4,170.6,147.1,170.7z"/>
	<path fill="#757575" d="M147.1,170.7c0.3-0.1,0.6-0.3,0.9-0.4C147.7,170.4,147.4,170.6,147.1,170.7z"/>
	<path fill="#DEDEDE" d="M89.6,170.2c0.3,0.1,0.5,0.3,0.8,0.4C90.1,170.5,89.9,170.4,89.6,170.2z"/>
	<path fill="#757575" d="M89.6,170.2c0.3,0.1,0.5,0.3,0.8,0.4C90.1,170.5,89.9,170.4,89.6,170.2z"/>
	<path fill="#DEDEDE" d="M142.8,172.6c0.2-0.1,0.4-0.2,0.6-0.3C143.2,172.4,143,172.5,142.8,172.6z"/>
	<path fill="#757575" d="M142.8,172.6c0.2-0.1,0.4-0.2,0.6-0.3C143.2,172.4,143,172.5,142.8,172.6z"/>
	<path fill="#DEDEDE" d="M145.7,171.3c0.3-0.1,0.5-0.2,0.8-0.4C146.3,171.1,146,171.2,145.7,171.3z"/>
	<path fill="#757575" d="M145.7,171.3c0.3-0.1,0.5-0.2,0.8-0.4C146.3,171.1,146,171.2,145.7,171.3z"/>
	<path fill="#DEDEDE" d="M141.2,173.1c0.2-0.1,0.5-0.2,0.7-0.3C141.6,173,141.4,173.1,141.2,173.1z"/>
	<path fill="#757575" d="M141.2,173.1c0.2-0.1,0.5-0.2,0.7-0.3C141.6,173,141.4,173.1,141.2,173.1z"/>
	<path fill="#DEDEDE" d="M86.3,168.2c0.3,0.2,0.6,0.4,0.9,0.6C86.9,168.6,86.6,168.4,86.3,168.2z"/>
	<path fill="#757575" d="M86.3,168.2c0.3,0.2,0.6,0.4,0.9,0.6C86.9,168.6,86.6,168.4,86.3,168.2z"/>
	<path fill="#404040" d="M118.9,186.3c0,3.5,0.4,6.8,1.1,9.3c0.7-2.5,1.1-5.8,1.1-9.3c0-3.5-0.4-6.8-1.1-9.3
		C119.3,179.5,118.9,182.8,118.9,186.3z"/>
	<path fill="#404040" d="M128.5,184.8c0.3,0.4,0.5,1,0.5,1.6c0,1.5-1.2,2.7-2.7,2.7c-0.6,0-1.1-0.2-1.6-0.5c0.5,0.7,1.3,1.1,2.2,1.1
		c1.5,0,2.7-1.2,2.7-2.7C129.7,186,129.2,185.2,128.5,184.8z"/>
	<path fill="#757575" d="M128.5,184.8c0.3,0.4,0.5,1,0.5,1.6c0,1.5-1.2,2.7-2.7,2.7c-0.6,0-1.1-0.2-1.6-0.5c0.5,0.7,1.3,1.1,2.2,1.1
		c1.5,0,2.7-1.2,2.7-2.7C129.7,186,129.2,185.2,128.5,184.8z"/>
	<path fill="#404040" d="M128.5,184.8c0.3,0.4,0.5,1,0.5,1.6c0,1.5-1.2,2.7-2.7,2.7c-0.6,0-1.1-0.2-1.6-0.5c0.5,0.7,1.3,1.1,2.2,1.1
		c1.5,0,2.7-1.2,2.7-2.7C129.7,186,129.2,185.2,128.5,184.8z"/>
	<path fill="#FFFFFF" d="M129.1,186.3c0-0.6-0.2-1.1-0.5-1.6c-0.5-0.7-1.3-1.1-2.2-1.1c-1.5,0-2.7,1.2-2.7,2.7
		c0,0.9,0.4,1.7,1.1,2.2c0.4,0.3,1,0.5,1.6,0.5C127.9,189,129.1,187.8,129.1,186.3z"/>
	<path fill="#C3C3C3" d="M135,218.5c0-0.6-0.1-1.1-0.2-1.6c-0.7-2.2-2.8-3.9-5.2-3.9h-19c-2.5,0-4.5,1.6-5.2,3.9
		c-0.2,0.5-0.2,1-0.2,1.6v1.2v9.7c2.3,0.2,4.6,0.4,6.9,0.4v-9.2c0-0.6,0.4-1,1-1h14c0.6,0,1,0.4,1,1v8.2c2.3-0.3,4.7-0.8,6.9-1.3
		v-7.9V218.5z"/>
	<path fill="#A5A5A5" d="M120,105.6c0,0.5,0,1.1-0.1,1.6l0,0l0.1,0l0,0l0,0C120.1,106.6,120,106.1,120,105.6c0,0,3.2-3.9,10.4-5.8
		h-20.8C116.8,101.7,120,105.6,120,105.6z"/>
	<path fill="#404040" d="M75.9,108.5c-0.2,0-0.4,0-0.6,0c-10.8,9.4-16.3,22.6-16.3,22.6s7.8,5.8,20.6,6.5l-1.6-29.3
		C77.4,108.4,76.7,108.5,75.9,108.5z"/>
	<path fill="#DEDEDE" d="M111.3,121.9c-3.2-1.4-5.3-3.7-5.7-6.2h0c0-0.2-0.1-0.5-0.1-0.7c0-4.5,5.8-8.2,13.2-8.6l-9.3-6.5
		c-4.6-1.2-10.9-1.6-19,0.4c-4.7,1.2-8.9,3.4-12.5,6.1c-0.9,0.7-1.8,1.4-2.6,2.1c0.2,0,0.4,0,0.6,0c0.7,0,1.4-0.1,2.1-0.2l1.6,29.3
		c2.6,0.1,5.4,0.1,8.4-0.3c9.8-1.3,18.6-7.6,24.4-14.8C112.1,122.2,111.7,122.1,111.3,121.9C111.3,121.9,111.3,121.9,111.3,121.9z"
		/>
	<path fill="#404040" d="M111.3,121.9c-3.2-1.4-5.3-3.7-5.7-6.2h0c0-0.2-0.1-0.5-0.1-0.7c0-4.5,5.8-8.2,13.2-8.6l-9.3-6.5
		c-4.6-1.2-10.9-1.6-19,0.4c-4.7,1.2-8.9,3.4-12.5,6.1c-0.9,0.7-1.8,1.4-2.6,2.1c0.2,0,0.4,0,0.6,0c0.7,0,1.4-0.1,2.1-0.2l1.6,29.3
		c2.6,0.1,5.4,0.1,8.4-0.3c9.8-1.3,18.6-7.6,24.4-14.8C112.1,122.2,111.7,122.1,111.3,121.9C111.3,121.9,111.3,121.9,111.3,121.9z"
		/>
	<path fill="#939393" d="M118.7,106.3l-9.2-6.5h0.1c-0.1,0-0.1,0-0.2-0.1L118.7,106.3L118.7,106.3z"/>
	<path fill="#404040" d="M118.7,106.3l-9.2-6.5h0.1c-0.1,0-0.1,0-0.2-0.1L118.7,106.3L118.7,106.3z"/>
	<path fill="#404040" d="M117,115.7h-11.4c0.4,2.5,2.5,4.7,5.7,6.2c0.8-0.8,1.9-1.5,3.2-2C115.4,118.4,116.3,117.1,117,115.7z"/>
	<path fill="#404040" d="M117,115.7h-11.4c0.4,2.5,2.5,4.7,5.7,6.2c0.8-0.8,1.9-1.5,3.2-2C115.4,118.4,116.3,117.1,117,115.7z"/>
	<path fill="#DEDEDE" d="M111.3,121.9C111.3,121.9,111.3,121.9,111.3,121.9c0.4,0.2,0.8,0.4,1.2,0.5c0,0,0,0,0,0
		C112.1,122.2,111.7,122,111.3,121.9z"/>
	<path fill="#757575" d="M111.3,121.9C111.3,121.9,111.3,121.9,111.3,121.9c0.4,0.2,0.8,0.4,1.2,0.5c0,0,0,0,0,0
		C112.1,122.2,111.7,122,111.3,121.9z"/>
	<path fill="#404040" d="M111.3,121.9C111.3,121.9,111.3,121.9,111.3,121.9c0.4,0.2,0.8,0.4,1.2,0.5c0,0,0,0,0,0
		C112.1,122.2,111.7,122,111.3,121.9z"/>
	<path fill="#404040" d="M111.3,121.9c0.4,0.2,0.8,0.3,1.2,0.5c0.7-0.8,1.3-1.7,1.9-2.5C113.2,120.3,112.1,121,111.3,121.9z"/>
	<path fill="#757575" d="M111.3,121.9c0.4,0.2,0.8,0.3,1.2,0.5c0.7-0.8,1.3-1.7,1.9-2.5C113.2,120.3,112.1,121,111.3,121.9z"/>
	<path fill="#404040" d="M111.3,121.9c0.4,0.2,0.8,0.3,1.2,0.5c0.7-0.8,1.3-1.7,1.9-2.5C113.2,120.3,112.1,121,111.3,121.9z"/>
	<path fill="#FFFFFF" d="M119.9,107.2l-1.2-0.9h0c-7.4,0.4-13.2,4.1-13.2,8.6c0,0.2,0,0.5,0.1,0.7h0H117
		C118.6,112.7,119.6,109.7,119.9,107.2z"/>
	<path fill="#404040" d="M119.9,107.2l-1.2-0.9h0c-7.4,0.4-13.2,4.1-13.2,8.6c0,0.2,0,0.5,0.1,0.7h0H117
		C118.6,112.7,119.6,109.7,119.9,107.2z"/>
	<path fill="#A5A5A5" d="M118.7,106.3l1.2,0.9c0.1-0.6,0.1-1.1,0.1-1.6c0,0-3.2-3.9-10.4-5.8h-0.1L118.7,106.3z"/>
	<path fill="#404040" d="M118.7,106.3l1.2,0.9c0.1-0.6,0.1-1.1,0.1-1.6c0,0-3.2-3.9-10.4-5.8h-0.1L118.7,106.3z"/>
	<path fill="#404040" d="M162,108.3l-1.6,29.3c12.8-0.7,20.6-6.5,20.6-6.5s-5.5-13.3-16.3-22.6c-0.2,0-0.4,0-0.6,0
		C163.4,108.5,162.7,108.4,162,108.3z"/>
	<path fill="#DEDEDE" d="M149.6,100.2c-8.1-2-14.3-1.6-19-0.4l-9.3,6.5c7.4,0.4,13.2,4.1,13.2,8.6c0,0.2,0,0.5-0.1,0.7h0
		c-0.4,2.5-2.5,4.7-5.7,6.2c0,0,0,0,0,0c-0.4,0.2-0.8,0.3-1.2,0.5c5.9,7.2,14.7,13.6,24.4,14.8c3,0.4,5.8,0.5,8.4,0.3l1.6-29.3
		c0.7,0.1,1.4,0.2,2.1,0.2c0.2,0,0.4,0,0.6,0c-0.8-0.7-1.7-1.4-2.6-2.1C158.5,103.6,154.3,101.4,149.6,100.2z"/>
	<path fill="#404040" d="M149.6,100.2c-8.1-2-14.3-1.6-19-0.4l-9.3,6.5c7.4,0.4,13.2,4.1,13.2,8.6c0,0.2,0,0.5-0.1,0.7h0
		c-0.4,2.5-2.5,4.7-5.7,6.2c0,0,0,0,0,0c-0.4,0.2-0.8,0.3-1.2,0.5c5.9,7.2,14.7,13.6,24.4,14.8c3,0.4,5.8,0.5,8.4,0.3l1.6-29.3
		c0.7,0.1,1.4,0.2,2.1,0.2c0.2,0,0.4,0,0.6,0c-0.8-0.7-1.7-1.4-2.6-2.1C158.5,103.6,154.3,101.4,149.6,100.2z"/>
	<path fill="#939393" d="M130.6,99.8l-9.2,6.5c0,0,0,0,0,0L130.6,99.8c0,0-0.1,0-0.1,0H130.6z"/>
	<path fill="#404040" d="M130.6,99.8l-9.2,6.5c0,0,0,0,0,0L130.6,99.8c0,0-0.1,0-0.1,0H130.6z"/>
	<path fill="#404040" d="M125.6,119.8c1.3,0.5,2.4,1.2,3.2,2c3.2-1.4,5.3-3.7,5.7-6.2h-11.4C123.8,117.1,124.6,118.4,125.6,119.8z"
		/>
	<path fill="#404040" d="M125.6,119.8c1.3,0.5,2.4,1.2,3.2,2c3.2-1.4,5.3-3.7,5.7-6.2h-11.4C123.8,117.1,124.6,118.4,125.6,119.8z"
		/>
	<path fill="#DEDEDE" d="M127.6,122.4c0.4-0.2,0.8-0.3,1.2-0.5c0,0,0,0,0,0C128.4,122,128,122.2,127.6,122.4
		C127.5,122.4,127.5,122.4,127.6,122.4z"/>
	<path fill="#757575" d="M127.6,122.4c0.4-0.2,0.8-0.3,1.2-0.5c0,0,0,0,0,0C128.4,122,128,122.2,127.6,122.4
		C127.5,122.4,127.5,122.4,127.6,122.4z"/>
	<path fill="#404040" d="M127.6,122.4c0.4-0.2,0.8-0.3,1.2-0.5c0,0,0,0,0,0C128.4,122,128,122.2,127.6,122.4
		C127.5,122.4,127.5,122.4,127.6,122.4z"/>
	<path fill="#404040" d="M127.5,122.4c0.4-0.2,0.8-0.3,1.2-0.5c-0.8-0.8-1.9-1.5-3.2-2C126.2,120.7,126.9,121.5,127.5,122.4z"/>
	<path fill="#757575" d="M127.5,122.4c0.4-0.2,0.8-0.3,1.2-0.5c-0.8-0.8-1.9-1.5-3.2-2C126.2,120.7,126.9,121.5,127.5,122.4z"/>
	<path fill="#404040" d="M127.5,122.4c0.4-0.2,0.8-0.3,1.2-0.5c-0.8-0.8-1.9-1.5-3.2-2C126.2,120.7,126.9,121.5,127.5,122.4z"/>
	<path fill="#FFFFFF" d="M120.1,107.2c0.3,2.6,1.3,5.5,2.9,8.5h11.4h0c0-0.2,0.1-0.5,0.1-0.7c0-4.5-5.8-8.2-13.2-8.6c0,0,0,0,0,0
		L120.1,107.2z"/>
	<path fill="#404040" d="M120.1,107.2c0.3,2.6,1.3,5.5,2.9,8.5h11.4h0c0-0.2,0.1-0.5,0.1-0.7c0-4.5-5.8-8.2-13.2-8.6c0,0,0,0,0,0
		L120.1,107.2z"/>
	<path fill="#A5A5A5" d="M120,105.6c0,0.5,0,1.1,0.1,1.6l1.2-0.9l9.2-6.5h-0.1C123.3,101.7,120,105.6,120,105.6z"/>
	<path fill="#404040" d="M120,105.6c0,0.5,0,1.1,0.1,1.6l1.2-0.9l9.2-6.5h-0.1C123.3,101.7,120,105.6,120,105.6z"/>
	<polygon fill="#404040" points="163,195.8 164.9,195.8 161.6,199.8 158.4,195.8 160.2,195.8 160.2,194 153.3,194 153.3,195.8 
		156,195.8 160.7,201.5 160.7,205 158,205 158,206.9 165.3,206.9 165.3,205 162.6,205 162.6,201.5 167.2,195.8 170,195.8 170,194 
		163,194 	"/>
	<polygon fill="#757575" points="163,195.8 164.9,195.8 161.6,199.8 158.4,195.8 160.2,195.8 160.2,194 153.3,194 153.3,195.8 
		156,195.8 160.7,201.5 160.7,205 158,205 158,206.9 165.3,206.9 165.3,205 162.6,205 162.6,201.5 167.2,195.8 170,195.8 170,194 
		163,194 	"/>
</g>
</svg>
