<?xml version="1.0" encoding="utf-8"?>
<!-- Generator: Adobe Illustrator 17.1.0, SVG Export Plug-In . SVG Version: 6.00 Build 0)  -->
<!DOCTYPE svg PUBLIC "-//W3C//DTD SVG 1.1//EN" "http://www.w3.org/Graphics/SVG/1.1/DTD/svg11.dtd">
<svg version="1.1" id="Layer_1" xmlns="http://www.w3.org/2000/svg" xmlns:xlink="http://www.w3.org/1999/xlink" x="0px" y="0px"
	 viewBox="759.9 72.3 680.2 800" enable-background="new 759.9 72.3 680.2 800" xml:space="preserve">
<path fill="#999999" d="M1265.3,265.9c-69.1-5.2-127.9,36.2-159,36.2c-32.8,0-84.7-36.2-138.3-34.6
	c-70.9,1.8-136.6,39.8-172.8,100.2c-74.3,122.8-19,304.2,53.6,402.7c34.6,48.4,77.8,103.7,131.4,101.9
	c53.7-1.8,72.6-32.8,136.6-32.8s81.2,32.8,138.3,31.1c57.1-1.8,93.3-50.1,127.9-98.4c39.8-57.1,57.1-110.6,57.1-114.1
	c-1.8,0-110.6-41.6-112.3-162.4c-1.8-101.9,86.4-150.3,89.9-152.1C1368.9,274.4,1292.8,267.5,1265.3,265.9"/>
<path fill="#999999" d="M1223.7,200.2c29.3-34.6,48.4-81.2,43.2-127.9c-41.6,1.8-93.3,27.7-122.8,60.6
	c-27.7,29.3-50.1,77.8-45,124.4C1145.9,260.6,1194.4,233.1,1223.7,200.2"/>
</svg>
