<?xml version="1.0" encoding="utf-8"?>
<!-- Generator: Adobe Illustrator 18.0.0, SVG Export Plug-In . SVG Version: 6.00 Build 0)  -->
<!DOCTYPE svg PUBLIC "-//W3C//DTD SVG 1.1 Tiny//EN" "http://www.w3.org/Graphics/SVG/1.1/DTD/svg11-tiny.dtd">
<svg version="1.1" baseProfile="tiny" id="Layer_1" xmlns="http://www.w3.org/2000/svg" xmlns:xlink="http://www.w3.org/1999/xlink"
	 x="0px" y="0px" width="786.3px" height="78.6px" viewBox="0 0 786.3 78.6" xml:space="preserve">
<path fill="#595959" d="M447.2,60.1c-7.2-10.9-14-21.1-20.9-31.4c-0.4,0.1-0.7,0.3-1.1,0.4c0,15.9,0,31.8,0,48c-5.4,0-10.3,0-15.5,0
	c0-25.2,0-50.2,0-75.9c5.4,0,10.7-0.2,15.9,0.1c1.1,0.1,2.3,1.7,3.1,2.8c5.3,8.3,10.4,16.6,15.7,25c0.9,1.4,1.8,2.7,3.1,4.6
	c1.2-1.7,2.1-3.1,2.9-4.4c5.1-8.2,10.4-16.3,15.3-24.6c1.7-2.8,3.6-3.9,6.8-3.7c4.1,0.2,8.3,0.1,12.7,0.1c0,25.5,0,50.6,0,76
	c-5,0-9.9,0-15.4,0c-0.7-16,0.1-32.2-0.9-48.6C461.4,38.4,455,49.2,447.2,60.1z"/>
<path fill="#595959" d="M530.7,77.1c0-25.3,0-50.2,0-75.5c1.4-0.2,2.6-0.5,3.9-0.5c10.8,0,21.6,0,32.5,0c5.4,0,10.6,1,15.3,3.9
	c10.6,6.7,11.7,21.7,2.3,30c-0.8,0.7-1.7,1.4-2.9,2.5c1.8,1,3.1,1.9,4.5,2.6c12.8,6.5,11.6,27.4-0.4,33.1c-3.8,1.8-8.1,3.7-12.3,3.8
	C559.5,77.4,545.3,77.1,530.7,77.1z M546.4,63.3c2.6,0,4.8,0,6.9,0c5.5,0,11-0.1,16.5-0.2c0.8,0,1.6-0.3,2.4-0.5
	c4.8-1.4,7.1-4.2,6.9-8.5c-0.2-4-2.7-6.9-7.2-7.8c-8.4-1.5-16.8-0.7-25.5-0.6C546.4,51.6,546.4,57,546.4,63.3z M546.4,32.5
	c7.6-0.4,14.6-0.3,21.5-1.2c4.7-0.6,7-3.8,7-7.7c0-4-2.7-7.6-7.5-7.9c-6.9-0.5-13.8-0.1-21-0.1C546.4,21.1,546.4,26.3,546.4,32.5z"
	/>
<path fill="#595959" d="M310.7,77.2c0-25.5,0-50.4,0-75.7c19,0,37.7,0,56.8,0c0,4.4,0,8.8,0,13.9c-6.8,0-13.5,0-20.3,0
	c-6.7,0-13.3,0-19.8,0c-1.3,3.7-1.4,9.2-0.5,16.1c11.7,0.4,23.6-0.1,35.8,0.3c0,4.8,0,9.2,0,14.3c-11.9,0-23.8,0-36,0
	c0,5.9,0,11.1,0,17c13.9,0,27.6,0,41.6,0c0,5.1,0,9.5,0,14.1C349,77.2,330.1,77.2,310.7,77.2z"/>
<path fill="#595959" d="M728.5,1.4c19.4,0,38.2,0,57.2,0c0,4.6,0,8.9,0,13.8c-13.6,0.2-27.1,0-41,0.2c0,5.6,0,10.6,0,16.2
	c12.1,0,23.9,0,36,0c0,4.9,0,9.3,0,14.5c-5.8,0.2-11.7,0.1-17.7,0.1c-6,0-12,0-18.3,0c0,5.6,0,10.9,0,16.9c13.8,0.2,27.6,0,41.6,0.2
	c0,4.8,0,9.2,0,13.9c-19.2,0-38.1,0-57.7,0C728.4,52,728.5,27,728.5,1.4z"/>
<path fill="#595959" d="M63.6,77.1C61.2,71.4,59,66,56.7,60.4c-11,0-21.9,0-33.2,0c-2.3,5.4-4.6,10.9-7,16.7c-5.2,0-10.4,0-16.5,0
	C11,51.4,21.9,26,32.8,0.6c5.1,0,9.8,0,15.1,0c10.8,25.2,21.6,50.7,32.7,76.5C74.3,77.1,68.9,77.1,63.6,77.1z M49.8,45.2
	c-1-5.3-7.7-20.8-10-23.6c-3.5,5.8-9.2,20.3-9.3,23.6C37,45.2,43.4,45.2,49.8,45.2z"/>
<path fill="#595959" d="M162.4,21.3c-2.6-1.4-5.1-2.9-7.8-4.2c-4.2-2.1-8.8-3.4-13.5-2.8c-2.1,0.2-4.3,0.9-6,2.1
	c-3.9,2.7-3.7,7.9,0.1,10.5c1.6,1.1,3.5,1.9,5.4,2.5c3.1,1.1,6.4,1.8,9.6,2.8c3.5,1.1,7,2.1,10.4,3.5c8,3.5,12.8,9.4,12.9,18.4
	c0.1,9-3.3,16.2-11.5,20.6c-6.7,3.6-14,4-21.4,3.5c-10.4-0.8-20.4-5.3-27.1-12.2c1.5-1.8,3-3.7,4.6-5.6c1.5-1.8,3-3.5,4.6-5.4
	c2.1,1.4,3.8,2.6,5.6,3.8c5.6,3.6,11.6,5.9,18.3,5.4c2.6-0.2,5.3-0.9,7.5-2.1c4.4-2.6,4.3-8.4,0.1-11.2c-1.8-1.2-3.9-2-5.9-2.6
	c-4.3-1.4-8.6-2.5-12.9-3.7c-2.1-0.6-4.1-1.3-6.1-2.1c-7.7-3.2-12.5-8.7-13-17.3c-0.5-8.6,2.2-15.9,9.7-20.5c3-1.9,6.6-3.4,10.1-4
	C148.7-1.2,160.4,1,170.5,9C169.6,12.4,166.4,17.3,162.4,21.3z"/>
<path fill="#595959" d="M267,10c-2.7,3.8-5.4,7.7-8.1,11.6c-3.2-1.8-6-3.4-8.8-4.7c-4.1-2-8.5-3.1-13.1-2.6
	c-1.8,0.2-3.7,0.7-5.2,1.6c-4.7,2.7-4.7,8.5-0.1,11.4c1.5,1,3.3,1.7,5,2.2c3.2,1,6.4,1.8,9.6,2.8c3,0.9,6.1,1.8,9,3
	c9.9,3.9,14.4,10.5,14.2,20.1c-0.2,10.5-5.7,18.1-15.8,21.3c-11.9,3.7-23.4,2.1-34.4-3.3c-3.5-1.7-6.6-4.2-10.4-6.7
	c2-2.5,3.6-4.4,5.1-6.2c1.5-1.8,3-3.5,4.5-5.3c2.6,1.7,4.7,3.2,7,4.6c5.2,3.2,10.9,5.1,17.1,4.6c2.4-0.2,5-0.8,7.1-1.9
	c4.7-2.6,4.8-8.5,0.4-11.4c-1.6-1.1-3.5-1.8-5.4-2.5c-3.3-1.1-6.7-1.9-10.1-2.9c-2.7-0.8-5.5-1.5-8.1-2.5
	c-8.7-3.3-14.1-9.2-14.4-18.9c-0.3-9.4,4.4-17.3,12.9-21.3C235.9-2.4,256.8-0.5,267,10z"/>
<path fill="#595959" d="M689.5,77.2c-17.7,0-35.5,0-53.2,0c-1-3.6-1.3-67.8-0.4-75.6c4.9-1.1,10-0.3,15.7-0.4c0,10.6,0,20.7,0,30.8
	c0,10,0,19.9,0,30.4c12.8,0,25.2,0,37.5,0C690.3,66.4,690.5,71.7,689.5,77.2z"/>
</svg>
