<?xml version="1.0" encoding="utf-8"?>
<!-- Generator: Adobe Illustrator 18.0.0, SVG Export Plug-In . SVG Version: 6.00 Build 0)  -->
<!DOCTYPE svg PUBLIC "-//W3C//DTD SVG 1.1//EN" "http://www.w3.org/Graphics/SVG/1.1/DTD/svg11.dtd">
<svg version="1.1" id="Layer_1" xmlns="http://www.w3.org/2000/svg" xmlns:xlink="http://www.w3.org/1999/xlink" x="0px" y="0px"
	 width="611.9px" height="587.1px" viewBox="304.9 105.6 611.9 587.1" enable-background="new 304.9 105.6 611.9 587.1"
	 xml:space="preserve">
<path fill="#595959" d="M344,241.1c-54.7,77.2-47.5,179.5-6,261.5c0,2.4,1.2,4.8,2.4,7.1c0,1.2,1.2,2.4,2.4,3.5
	c0,1.2,1.2,1.2,1.2,2.4c1.2,1.2,1.2,2.4,2.4,3.5c1.2,2.4,2.4,4.8,3.5,7.1c1.2,1.2,1.2,2.4,2.4,3.5c1.2,2.4,3.5,4.8,4.8,7.1
	c1.2,1.2,1.2,2.4,2.4,3.5c2.4,3.5,4.8,6,7.1,9.5l0,0l1.2,1.2c2.4,2.4,3.5,6,6,8.3c1.2,1.2,1.2,2.4,2.4,2.4c2.4,2.4,3.5,4.8,6,7.1
	c1.2,1.2,1.2,1.2,2.4,2.4c2.4,3.5,4.8,6,8.3,8.3l0,0l0,0c2.4,2.4,4.8,6,8.3,8.3c-1.2,1.2,0,2.4,0,3.5c2.4,2.4,3.5,3.5,6,6
	c1.2,1.2,1.2,1.2,2.4,2.4c2.4,2.4,6,4.8,8.3,8.3l0,0l1.2,1.2c2.4,2.4,4.8,4.8,8.3,7.1c1.2,1.2,2.4,1.2,3.5,2.4
	c2.4,1.2,4.8,3.5,7.1,4.8c1.2,1.2,2.4,1.2,3.5,2.4c2.4,2.4,4.8,3.5,7.1,4.8c1.2,1.2,1.2,1.2,2.4,2.4c0,0,0,0,1.2,0
	c2.4,1.2,4.8,3.5,7.1,4.8c1.2,1.2,2.4,1.2,3.5,2.4c3.5,2.4,7.1,4.8,10.7,7.1c1.2,0,2.4,1.2,3.5,1.2c2.4,1.2,6,3.5,8.3,4.8
	c1.2,1.2,3.5,1.2,4.8,2.4c2.4,1.2,3.5,2.4,6,3.5c0,0,1.2,0,1.2,1.2c1.2,0,1.2,1.2,2.4,1.2c3.5,1.2,6,3.5,9.5,4.8
	c1.2,0,1.2,0,2.4,1.2c3.5,1.2,7.1,3.5,10.7,4.8c1.2,0,1.2,1.2,2.4,1.2c3.5,1.2,7.1,2.4,10.7,3.5h1.2c3.5,1.2,8.3,2.4,11.9,3.5
	c1.2,0,2.4,1.2,2.4,1.2c3.5,1.2,8.3,2.4,11.9,3.5C823.9,733.1,900,528.6,900,528.6c-64.2,83.2-177.1,104.6-285.3,80.8
	c-3.5-1.2-8.3-2.4-11.9-3.5c-1.2,0-2.4,0-2.4-1.2c-3.5-1.2-8.3-2.4-11.9-3.5c0,0-1.2,0-1.2-1.2c-3.5-1.2-7.1-2.4-10.7-3.5
	c-1.2,0-2.4-1.2-2.4-1.2c-3.5-1.2-7.1-3.5-10.7-4.8c-1.2,0-1.2-1.2-2.4-1.2c-3.5-1.2-6-2.4-9.5-4.8c-1.2,0-1.2-1.2-2.4-1.2
	c-2.4-1.2-4.8-2.4-7.1-3.5c-1.2-1.2-3.5-1.2-4.8-2.4c-2.4-1.2-6-3.5-8.3-4.8c-1.2-1.2-2.4-1.2-2.4-1.2c-3.5-2.4-7.1-4.8-10.7-7.1
	c-1.2-1.2-2.4-1.2-3.5-2.4c-2.4-1.2-6-3.5-8.3-4.8c-1.2-1.2-1.2-1.2-2.4-2.4c-2.4-1.2-4.8-3.5-7.1-6c-1.2-1.2-2.4-1.2-3.5-2.4
	c-2.4-1.2-4.8-3.5-7.1-4.8c-1.2-1.2-2.4-1.2-3.5-2.4c-2.4-2.4-6-4.8-8.3-7.1c0,0-1.2,0-1.2-1.2c-2.4-2.4-6-6-8.3-8.3
	c-1.2-1.2-1.2-1.2-2.4-2.4c-2.4-2.4-4.8-3.5-6-6c-1.2-1.2-1.2-1.2-2.4-2.4c-2.4-2.4-4.8-6-8.3-8.3l0,0c-2.4-2.4-4.8-6-8.3-9.5
	c-1.2-1.2-1.2-1.2-2.4-2.4c-2.4-2.4-3.5-4.8-6-7.1c-1.2-1.2-1.2-1.2-2.4-2.4c-2.4-2.4-4.8-6-7.1-8.3
	c-59.4-80.8-80.8-193.8-33.3-285.3"/>
<path fill="#595959" d="M511.6,175.7c-39.2,55.9-36.8,131.9-6,191.4c4.8,9.5,10.7,20.2,17.8,28.5c6,8.3,11.9,17.8,20.2,25
	c2.4,3.5,6,6,8.3,9.5c1.2,1.2,1.2,1.2,2.4,2.4c2.4,2.4,6,6,9.5,8.3l0,0l0,0c3.5,3.5,7.1,6,10.7,8.3c1.2,1.2,1.2,1.2,2.4,2.4
	c3.5,2.4,7.1,6,10.7,8.3l0,0c1.2,1.2,3.5,2.4,4.8,3.5c1.2,0,1.2,1.2,2.4,1.2c2.4,1.2,6,3.5,8.3,4.8c0,0,1.2,0,1.2,1.2
	c2.4,1.2,4.8,2.4,7.1,3.5c1.2,0,1.2,1.2,2.4,1.2c1.2,1.2,3.5,1.2,4.8,2.4c0,0,0,0,1.2,0c3.5,1.2,7.1,3.5,10.7,4.8
	c1.2,0,1.2,1.2,2.4,1.2c2.4,1.2,6,2.4,8.3,3.5c1.2,0,2.4,1.2,3.5,1.2c2.4,1.2,4.8,2.4,8.3,2.4c1.2,0,2.4,1.2,3.5,1.2
	c3.5,1.2,7.1,2.4,11.9,3.5C870.4,528.7,916.8,373,916.8,373c-41.6,60.7-123.6,89.2-210.4,66.6c-3.5-1.2-7.1-2.4-11.9-3.5
	c-1.2,0-2.4-1.2-3.5-1.2c-2.4,1.2-6,1.2-8.3,0c-1.2,0-2.4-1.2-3.5-1.2c-2.4-1.2-6-2.4-8.3-3.5c-1.2,0-1.2-1.2-2.4-1.2
	c-3.5-1.2-7.1-3.5-10.7-4.8c-1.2-1.2-3.5-2.4-4.8-2.4c-1.3,0-2.4-1.2-3.5-1.2c-2.4-1.2-4.8-2.4-7.1-3.5c0,0-1.2,0-1.2-1.2
	c-2.4-1.2-6-3.5-8.3-4.8c-1.2,0-1.2-1.2-2.4-1.2c-1.2-1.2-3.5-2.4-4.8-3.5c-3.5-2.4-7.1-4.8-10.7-8.3c-1.2-1.2-1.2-1.2-2.4-2.4
	c-38-29.7-67.7-71.3-82-117.7c-15.3-48.7-11.8-102.2,14.4-146.2"/>
<path fill="#595959" d="M653.1,127c-22.6,34.5-25,76.1-9.5,114.1c16.7,40.4,51.1,71.3,91.5,85.6c1.2,1.2,3.5,1.2,4.8,1.2
	c1.2,0,1.2,0,2.4,1.2c2.4,1.2,4.8,1.2,7.1,2.4c111.7,21.4,141.4-57,149.8-68.9c-26.2,38-71.3,47.5-126,34.5c-4.8-1.2-9.5-2.4-13-3.5
	c-4.8-2.4-10.7-3.5-15.5-6c-9.5-4.8-19-10.7-27.3-16.7c-48.7-36.8-79.7-108.2-47.5-165.2"/>
</svg>
