<?xml version="1.0" encoding="utf-8"?>
<!-- Generator: Adobe Illustrator 18.0.0, SVG Export Plug-In . SVG Version: 6.00 Build 0)  -->
<!DOCTYPE svg PUBLIC "-//W3C//DTD SVG 1.1//EN" "http://www.w3.org/Graphics/SVG/1.1/DTD/svg11.dtd">
<svg version="1.1" id="Layer_1" xmlns="http://www.w3.org/2000/svg" xmlns:xlink="http://www.w3.org/1999/xlink" x="0px" y="0px"
	 viewBox="0 63.1 612 665.9" enable-background="new 0 63.1 612 665.9" xml:space="preserve">
<path fill="#4D4D4D" d="M327.6,728.9c-156.8,0-284.4-128.7-284.4-286.7c0-158.2,127.6-286.7,284.4-286.7S612,284.3,612,442.3
	S484.4,728.9,327.6,728.9z M327.6,169.7c-148.8,0-270,122.1-270,272.3s121.3,272.3,270,272.3s270-122.1,270-272.3
	S476.7,169.7,327.6,169.7z"/>
<g>
	<path fill="none" d="M513.7,330.8c0,0.6,0,1.4,0,2C513.7,332.2,513.7,331.4,513.7,330.8z"/>
	<path fill="none" d="M104.1,454.9c0,0.3,0,0.3,0.3,0.6c0.6,1.7,1.1,3.4,1.7,5.2l0,0l0,0c2,5.2,4.3,10.3,6.9,15.2l0,0l0,0
		c0.9,1.4,1.7,2.9,2.6,4.6l0,0c0,0,0,0.3,0.3,0.3c0.9,1.4,1.7,2.9,2.6,4.3l0,0l0,0l0,0c19.5,30.4,54.2,55.3,114.7,57.9l-0.6-12
		l-4-73.7c-36.7-2-59.1-18.6-59.1-18.6s15.8-38.1,46.7-64.8c-21.8-0.9-39.3-17.8-41.3-39.3l0,0c0-0.6,0-1.1,0-1.7c0-0.9,0-1.4,0-2.3
		c0-1.1,0-2.3,0.3-3.7c-0.3,0-0.6,0.3-0.6,0.3c-0.3,0.3-0.6,0.3-0.9,0.6c-0.6,0.3-1.1,0.6-1.7,0.9c-0.3,0-0.6,0.3-0.9,0.3
		c-0.6,0.3-1.1,0.6-1.7,0.9c-0.3,0-0.6,0.3-0.9,0.3c-0.9,0.3-1.4,0.6-2.3,0.9c0,0,0,0-0.3,0c-0.9,0.3-1.4,0.6-2.3,0.6
		c-0.3,0-0.3,0-0.6,0c-0.6,0.3-1.1,0.3-1.7,0.3c-0.3,0-0.6,0-0.6,0c-0.6,0-0.9,0.3-1.4,0.3c-0.3,0-0.6,0-0.6,0c-0.6,0-0.9,0-1.4,0.3
		c-0.3,0-0.3,0-0.6,0c-0.6,0-1.1,0-1.7,0c0,0,0,0-0.3,0c-0.6,0-1.1,0-2,0c0,0,0,0-0.3,0c-0.6,0-1.1,0-1.7-0.3c-0.3,0-0.3,0-0.3,0
		c-0.3,0-0.9,0-1.1-0.3c-0.3,0-0.3,0-0.6,0s-0.9-0.3-1.1-0.3h-0.3c-0.6,0-0.9-0.3-1.4-0.3c0,0,0,0-0.3,0c-0.9-0.3-2-0.6-2.9-1.1
		h-0.3c-0.3-0.3-0.6-0.3-1.1-0.6c0,0-0.3,0-0.3-0.3c-0.3-0.3-0.6-0.3-0.9-0.6h-0.3c-0.3-0.3-0.6-0.3-0.9-0.6l0,0
		c-0.6-0.6-1.4-0.9-2-1.4l0,0c-0.3-0.3-0.6-0.3-0.6-0.6c0,0,0,0-0.3-0.3c-0.3-0.3-0.3-0.3-0.6-0.6c0,0,0,0-0.3-0.3
		c-0.3-0.3-0.3-0.3-0.6-0.6l0,0c-0.3-0.3-0.6-0.9-0.9-1.1l0,0c-0.9-0.9-1.1-1.4-1.1-1.4c0.6,3.4,0.6,6.6,0.3,9.7l0,0
		c0,0.9-0.3,2-0.3,2.9l0,0c0,0.9-0.3,1.7-0.6,2.6l0,0c-0.3,0.9-0.3,1.7-0.6,2.3l0,0c-0.3,0.9-0.6,1.4-0.9,2.3l0,0
		c-0.3,0.6-0.6,1.4-0.9,2l0,0c-0.3,0.6-0.6,1.1-1.1,1.7l0,0c-0.3,0.6-0.9,1.1-1.1,1.7l0,0c-0.3,0.6-0.9,1.1-1.4,1.4l0,0
		c-0.6,0.6-0.9,0.9-1.4,1.4l0,0c-0.6,0.3-0.9,0.9-1.4,1.1l0,0c-0.6,0.3-1.1,0.9-1.7,1.1l0,0c-0.6,0.3-1.1,0.6-1.7,0.9l0,0
		c-0.6,0.3-1.1,0.6-1.7,0.9l0,0c-0.6,0.3-1.1,0.6-1.7,0.6l0,0c-0.6,0.3-1.1,0.3-1.7,0.6l0,0c-0.6,0.3-1.1,0.3-1.7,0.6l0,0
		c-7.7,2-14.6,1.1-15.5,1.1l0,0c0,0,0,0,0,0.3l0,0c-0.6,2.6-3.7,23.5-1.7,50.5c0.9,12.6,3.2,26.7,7.5,41l0,0
		C102.9,451.5,103.5,453.2,104.1,454.9z"/>
	<path fill="none" d="M174.6,330.8c0,0.6,0,1.4,0,2C174.6,331.9,174.6,331.4,174.6,330.8z"/>
	<path fill="none" d="M200.4,291.2c0.3,0,0.3-0.3,0.6-0.3l0,0l0,0c3.4-1.4,6.9-2.3,10.6-2.9h-14.9c0.6,1.4,0.9,2.9,1.1,4.3
		C198.6,291.8,199.5,291.5,200.4,291.2z"/>
	<path fill="none" d="M135.6,229.3l-20.6,26.9l18.1,41.3c20.1-20.6,32.4-24.1,41-23.5l-5.4-16.6
		C138.5,268.3,135.6,229.3,135.6,229.3z"/>
	<path fill="none" d="M513.7,330.8c0-0.6,0-1.4,0-2C513.7,329.4,513.7,329.9,513.7,330.8z"/>
	<path fill="#4D4D4D" d="M542.6,618.6c1.7-2,3.4-4.3,4.9-6.3c-12.3-12-24.7-22.1-36.7-30.4C522.9,593.1,533.5,605.4,542.6,618.6z"/>
	<path fill="#828282" d="M180,344.8c-0.3-0.3-0.3-0.3-0.6-0.6C179.7,344.5,180,344.8,180,344.8z"/>
	<path fill="#828282" d="M201.5,310.7c8.6,2.6,14.6,10.6,14.6,20.1c0,11.5-9.5,20.9-20.9,20.9c-0.9,0-1.7,0-2.6-0.3l0,0
		c-0.6,0-1.4,0.3-2,0.3c-8,0-14.6-7.5-16.1-16.9l0,0c2,21.5,19.5,38.4,41.3,39.3c2.3-2,4.9-4,7.5-6l-4.3-80h-7.5
		c-3.7,0.6-7.5,1.4-10.6,2.9C203.5,296.4,204.4,303.3,201.5,310.7z"/>
	<path fill="#828282" d="M178.9,343.4c-0.3-0.3-0.3-0.6-0.6-0.6C178.6,343.1,178.6,343.4,178.9,343.4z"/>
	<path fill="#828282" d="M181.5,346.3c-0.3-0.3-0.3-0.3-0.6-0.6C181.2,346,181.2,346,181.5,346.3z"/>
	<path fill="#828282" d="M182.9,347.4l-0.3-0.3C182.6,347.1,182.6,347.4,182.9,347.4z"/>
	<path fill="#828282" d="M184.3,348.3C184,348.3,184,348.3,184.3,348.3C184,348.3,184,348.3,184.3,348.3z"/>
	<path fill="#828282" d="M177.7,342c-0.3-0.3-0.3-0.6-0.6-0.9C177.4,341.4,177.7,341.7,177.7,342z"/>
	<path fill="#828282" d="M192.9,351.4L192.9,351.4L192.9,351.4L192.9,351.4z"/>
	<path fill="#828282" d="M175.4,336.8c0-0.3-0.3-0.9-0.3-1.1C175.1,335.9,175.1,336.2,175.4,336.8z"/>
	<path fill="#828282" d="M176.9,340.2c-0.3-0.3-0.3-0.6-0.3-0.9C176.6,339.7,176.6,340,176.9,340.2z"/>
	<path fill="#828282" d="M200.4,291.2c0.3,0,0.3-0.3,0.6-0.3C200.7,290.9,200.7,290.9,200.4,291.2z"/>
	<path fill="#828282" d="M176,338.5c0-0.3-0.3-0.6-0.3-0.9C175.7,338,176,338.2,176,338.5z"/>
	<path fill="#828282" d="M174.9,334.5C174.9,334.8,174.9,334.8,174.9,334.5C174.9,334.8,174.9,334.5,174.9,334.5L174.9,334.5z"/>
	<path fill="#828282" d="M174.6,332.8c0-0.6,0-1.4,0-2C174.6,331.4,174.6,331.9,174.6,332.8L174.6,332.8z"/>
	<path fill="#828282" d="M174.6,330.8c0-0.6,0-1.4,0-2C174.6,329.4,174.6,329.9,174.6,330.8z"/>
	<path fill="#828282" d="M201.5,310.7c2.9-7.5,2-14.6-0.6-19.8l0,0l0,0c-0.3,0-0.3,0.3-0.6,0.3c-0.9,0.3-1.7,0.9-2.6,1.1
		c0.9,5.2,0,11.5-3.7,17.5c0.3,0,0.9,0,1.1,0C197.5,309.9,199.5,310.1,201.5,310.7z"/>
	<path fill="#828282" d="M174.9,327.1L174.9,327.1c0,0.3,0,0.6-0.3,0.9C174.6,327.6,174.9,327.3,174.9,327.1z"/>
	<path fill="#828282" d="M174.9,327.1C174.6,327.1,174.6,327.1,174.9,327.1c-0.3,1.1-0.3,2.6-0.3,3.7
		C174.6,329.4,174.6,328.2,174.9,327.1z"/>
	<path fill="#828282" d="M174.6,333.4c0,0.3,0,0.9,0.3,1.1l0,0C174.9,334.2,174.9,333.9,174.6,333.4z"/>
	<path fill="#828282" d="M174.6,333.1c0,0.6,0,1.1,0,1.7l0,0l0,0C174.6,334.2,174.6,333.7,174.6,333.1z"/>
	<path fill="#828282" d="M195.2,351.7c-0.9,0-1.7,0-2.6-0.3C193.8,351.4,194.6,351.7,195.2,351.7z"/>
	<path fill="#828282" d="M174.6,333.4c0,0.3,0,0.9,0.3,1.1c0,0,0,0,0,0.3s0,0.6,0.3,0.9c0,0.3,0.3,0.9,0.3,1.1
		c0,0.3,0.3,0.6,0.3,0.9c0,0.3,0.3,0.6,0.3,0.9s0.3,0.6,0.3,0.9s0.3,0.6,0.3,0.9c0.3,0.3,0.3,0.6,0.6,0.9c0.3,0.3,0.3,0.6,0.6,0.9
		c0.3,0.3,0.3,0.6,0.6,0.9s0.3,0.6,0.6,0.6c0.3,0.3,0.6,0.6,0.6,0.9c0.3,0.3,0.3,0.3,0.6,0.6c0.3,0.3,0.6,0.6,0.9,0.9
		c0.3,0.3,0.3,0.3,0.6,0.6s0.6,0.6,0.9,0.9l0.3,0.3c0.3,0.3,0.9,0.6,1.1,0.9c0,0,0.3,0,0.3,0.3c2.6,1.7,5.4,2.6,8.6,3.2l0,0
		c8-1.1,14.3-10,14.3-20.6c0-10-5.7-18.6-13.2-20.4c-2.9,4.9-7.7,9.5-14.6,14c-0.9,0.6-1.7,1.1-2.9,1.7c-0.3,0.3-0.6,0.3-0.9,0.6
		c0-0.3-0.3-0.3-0.6,0c0,0.3,0,0.6-0.3,0.9c0,0.3,0,0.6,0,0.6c0,0.6,0,1.4,0,2s0,1.4,0,2C174.6,333.1,174.6,333.4,174.6,333.4z"/>
	<path fill="#828282" d="M194.3,309.9L194.3,309.9c0.3,0,0.9,0,1.1,0C194.9,309.9,194.6,309.9,194.3,309.9z"/>
	<path fill="#7C7C7C" d="M207.2,330.8c0,10.6-6.3,19.5-14.3,20.6l0,0l0,0c0.9,0,1.7,0.3,2.6,0.3c11.5,0,20.9-9.5,20.9-20.9
		c0-9.5-6.3-17.5-14.6-20.1c-2-0.6-4-0.9-6-0.9c-0.3,0-0.9,0-1.1,0c0,0,0,0.3-0.3,0.3C201.5,312.2,207.2,320.5,207.2,330.8z"/>
	<path fill="#828282" d="M174.6,327.9c0-0.3,0-0.6,0-0.9l0,0c-0.3,1.1-0.3,2.3-0.3,3.7c0-0.6,0-1.4,0-2
		C174.6,328.5,174.6,328.2,174.6,327.9z"/>
	<path fill="#828282" d="M174.9,334.5c1.4,9.7,8,16.9,16.1,16.9c0.6,0,1.4,0,2-0.3l0,0c-3.2-0.3-6-1.4-8.6-3.2c0,0-0.3,0-0.3-0.3
		c-0.3-0.3-0.9-0.6-1.1-0.9l-0.3-0.3c-0.3-0.3-0.6-0.6-0.9-0.9c-0.3-0.3-0.3-0.3-0.6-0.6c-0.3-0.3-0.6-0.6-0.9-0.9
		c-0.3-0.3-0.3-0.3-0.6-0.6c-0.3-0.3-0.6-0.6-0.6-0.9c-0.3-0.3-0.3-0.6-0.6-0.6c-0.3-0.3-0.3-0.6-0.6-0.9c-0.3-0.3-0.3-0.6-0.6-0.9
		c-0.3-0.3-0.3-0.6-0.6-0.9c-0.3-0.3-0.3-0.6-0.3-0.9s-0.3-0.6-0.3-0.9s-0.3-0.6-0.3-0.9c0-0.3-0.3-0.6-0.3-0.9
		c0-0.3-0.3-0.9-0.3-1.1C174.9,335.4,174.9,335.1,174.9,334.5C174.9,334.8,174.9,334.8,174.9,334.5s0-0.9,0-1.1s0-0.6,0-0.6l0,0
		c0-0.6,0-1.4,0-2c0,0.9,0,1.4,0,2.3C174.6,333.7,174.6,334.2,174.9,334.5z"/>
	<path fill="#828282" d="M503.9,348.3C503.9,348.3,504.2,348.3,503.9,348.3C504.2,348.3,503.9,348.3,503.9,348.3z"/>
	<path fill="#828282" d="M512.2,338.5c0-0.3,0.3-0.6,0.3-1.1C512.5,338,512.2,338.2,512.2,338.5z"/>
	<path fill="#828282" d="M507.4,345.7c-0.3,0.3-0.3,0.3-0.6,0.6C506.8,346,507.1,346,507.4,345.7z"/>
	<path fill="#828282" d="M513.7,328.8c0,0.6,0,1.4,0,2C513.7,329.9,513.7,329.4,513.7,328.8L513.7,328.8z"/>
	<path fill="#828282" d="M513.4,334.8c0-0.6,0-0.9,0.3-1.4C513.4,333.9,513.4,334.2,513.4,334.8z"/>
	<path fill="#828282" d="M511.4,321c0.3,0.3,0.3,0.6,0.6,0.9C511.7,321.6,511.4,321.3,511.4,321z"/>
	<path fill="#828282" d="M468.4,302.1L468.4,302.1l-3.4,65.6c2.6,2,5.2,4,7.5,6c22.4-0.9,40.1-18.6,41.3-40.7
		c-0.9,10.3-8,18.3-16.3,18.3c-0.6,0-1.4,0-2-0.3l0,0c-0.9,0-1.7,0.3-2.6,0.3c-11.5,0-20.9-9.5-20.9-20.9c0-11.5,9.5-20.9,20.9-20.9
		c0.9,0,1.7,0,2.6,0.3c0.6,0,1.4-0.3,2-0.3c8.3,0,15.2,8,16.3,18.3c-1.1-20.6-16.9-37.6-37.3-40.4H469L468.4,302.1z"/>
	<path fill="#828282" d="M510.5,342c0.3-0.3,0.3-0.6,0.6-0.9C510.8,341.4,510.5,341.7,510.5,342z"/>
	<path fill="#828282" d="M509.4,343.7c0.3-0.3,0.3-0.6,0.6-0.6C509.7,343.1,509.4,343.4,509.4,343.7z"/>
	<path fill="#828282" d="M507.9,344.8c0.3-0.3,0.3-0.3,0.6-0.6C508.5,344.5,508.2,344.8,507.9,344.8z"/>
	<path fill="#828282" d="M512.8,336.8c0-0.3,0.3-0.9,0.3-1.1C513.1,335.9,512.8,336.2,512.8,336.8z"/>
	<path fill="#828282" d="M505.4,347.4c0.3,0,0.3-0.3,0.6-0.3C505.7,347.1,505.7,347.4,505.4,347.4z"/>
	<path fill="#828282" d="M511.4,340.2c0.3-0.3,0.3-0.6,0.6-0.9C511.7,339.7,511.4,340,511.4,340.2z"/>
	<path fill="#828282" d="M513.7,332.8c0-0.6,0-1.4,0-2C513.7,331.4,513.7,332.2,513.7,332.8L513.7,332.8z"/>
	<path fill="#828282" d="M506.8,315.3c0.3,0.3,0.3,0.3,0.6,0.6C507.1,315.6,506.8,315.3,506.8,315.3z"/>
	<path fill="#828282" d="M507.9,316.5c0.3,0.3,0.3,0.3,0.6,0.6C508.5,317,508.2,316.7,507.9,316.5z"/>
	<path fill="#828282" d="M509.4,317.9c0.3,0.3,0.3,0.6,0.6,0.6C509.7,318.5,509.4,318.2,509.4,317.9z"/>
	<path fill="#828282" d="M495.3,351.4L495.3,351.4L495.3,351.4L495.3,351.4z"/>
	<path fill="#828282" d="M510.5,319.6c0.3,0.3,0.3,0.6,0.6,0.9C510.8,319.9,510.5,319.6,510.5,319.6z"/>
	<path fill="#828282" d="M512.2,322.8c0,0.3,0.3,0.6,0.3,1.1C512.5,323.6,512.2,323.3,512.2,322.8z"/>
	<path fill="#828282" d="M512.8,324.8c0,0.3,0.3,0.9,0.3,1.1C513.1,325.6,512.8,325.1,512.8,324.8z"/>
	<path fill="#828282" d="M503.9,313C503.9,313,504.2,313.3,503.9,313C504.2,313.3,503.9,313,503.9,313z"/>
	<path fill="#828282" d="M505.4,314.2c0.3,0,0.3,0.3,0.6,0.3C505.7,314.2,505.7,314.2,505.4,314.2z"/>
	<path fill="#828282" d="M513.4,326.8c0,0.6,0.3,0.9,0.3,1.4C513.4,327.6,513.4,327.1,513.4,326.8z"/>
	<path fill="#828282" d="M495.3,310.1c-0.9,0-1.7-0.3-2.6-0.3C493.6,309.9,494.5,309.9,495.3,310.1L495.3,310.1z"/>
	<path fill="#828282" d="M495.3,351.4c-0.9,0-1.7,0.3-2.6,0.3C493.6,351.7,494.5,351.4,495.3,351.4z"/>
	<path fill="#828282" d="M513.4,327.9c0-0.6,0-0.9-0.3-1.4c0-0.3,0-0.6-0.3-0.9c0-0.3-0.3-0.9-0.3-1.1c0-0.3-0.3-0.6-0.3-0.9
		c0-0.3-0.3-0.6-0.3-1.1c0-0.3-0.3-0.6-0.3-0.9s-0.3-0.6-0.6-0.9s-0.3-0.6-0.6-0.9c-0.3-0.3-0.3-0.6-0.6-0.9
		c-0.3-0.3-0.3-0.6-0.6-0.9c-0.3-0.3-0.3-0.6-0.6-0.6c-0.3-0.3-0.6-0.6-0.6-0.9c-0.3-0.3-0.3-0.3-0.6-0.6c-0.3-0.3-0.6-0.6-0.9-0.9
		c-0.3-0.3-0.3-0.3-0.6-0.6c-0.3-0.3-0.6-0.6-0.9-0.9c0,0-0.3-0.3-0.6-0.3c-0.3-0.3-0.9-0.6-1.1-0.9c0,0-0.3,0-0.3-0.3
		c-2.6-1.7-5.4-2.6-8.6-3.2c-8,1.1-14.3,10-14.3,20.6s6.3,19.5,14.3,20.6l0,0c3.2-0.3,6-1.4,8.6-3.2c0,0,0.3,0,0.3-0.3
		c0.3-0.3,0.9-0.6,1.1-0.9c0.3,0,0.3-0.3,0.6-0.3c0.3-0.3,0.6-0.6,0.9-0.9c0.3-0.3,0.3-0.3,0.6-0.6c0.3-0.3,0.6-0.6,0.9-0.9
		c0.3-0.3,0.3-0.3,0.6-0.6c0.3-0.3,0.6-0.6,0.6-0.9c0.3-0.3,0.3-0.6,0.6-0.6c0.3-0.3,0.3-0.6,0.6-0.9c0.3-0.3,0.3-0.6,0.6-0.9
		c0.3-0.3,0.3-0.6,0.6-0.9c0.3-0.3,0.3-0.6,0.6-0.9c0-0.3,0.3-0.6,0.3-0.9c0-0.3,0.3-0.6,0.3-1.1c0-0.3,0.3-0.6,0.3-0.9
		s0.3-0.9,0.3-1.1c0-0.3,0-0.6,0.3-0.9c0-0.6,0-0.9,0.3-1.4c0-0.3,0-0.6,0-0.6c0-0.6,0-1.4,0-2c0-0.6,0-1.4,0-2
		C513.7,328.5,513.7,328.2,513.4,327.9z"/>
	<path fill="#7C7C7C" d="M481,330.8c0-10.6,6.3-19.5,14.3-20.6c-0.9,0-1.7-0.3-2.6-0.3c-11.5,0-20.9,9.5-20.9,20.9
		s9.5,20.9,20.9,20.9c0.9,0,1.7,0,2.6-0.3l0,0l0,0C487.3,350.3,481,341.4,481,330.8z"/>
	<path fill="#828282" d="M497.3,309.9c-0.6,0-1.4,0-2,0.3l0,0c3.2,0.3,6,1.4,8.6,3.2c0,0,0.3,0,0.3,0.3c0.3,0.3,0.9,0.6,1.1,0.9
		c0.3,0,0.3,0.3,0.6,0.3c0.3,0.3,0.6,0.6,0.9,0.9c0.3,0.3,0.3,0.3,0.6,0.6c0.3,0.3,0.6,0.6,0.9,0.9c0.3,0.3,0.3,0.3,0.6,0.6
		c0.3,0.3,0.6,0.6,0.6,0.9c0.3,0.3,0.3,0.6,0.6,0.6c0.3,0.3,0.3,0.6,0.6,0.9c0.3,0.3,0.3,0.6,0.6,0.9c0.3,0.3,0.3,0.6,0.6,0.9
		c0.3,0.3,0.3,0.6,0.6,0.9c0,0.3,0.3,0.6,0.3,0.9c0,0.3,0.3,0.6,0.3,1.1c0,0.3,0.3,0.6,0.3,0.9c0,0.3,0.3,0.9,0.3,1.1s0,0.6,0.3,0.9
		c0,0.6,0.3,0.9,0.3,1.4c0,0.3,0,0.6,0,0.6l0,0c0,0.6,0,1.4,0,2c0-0.9,0-1.7,0-2.6C512.5,317.9,505.7,309.9,497.3,309.9z"/>
	<path fill="#828282" d="M513.7,332.8c0,0.3,0,0.6,0,0.6c0,0.6,0,0.9-0.3,1.4c0,0.3,0,0.6-0.3,0.9c0,0.3-0.3,0.9-0.3,1.1
		s-0.3,0.6-0.3,0.9s-0.3,0.6-0.3,1.1c0,0.3-0.3,0.6-0.3,0.9s-0.3,0.6-0.6,0.9c-0.3,0.3-0.3,0.6-0.6,0.9c-0.3,0.3-0.3,0.6-0.6,0.9
		c-0.3,0.3-0.3,0.6-0.6,0.9s-0.3,0.6-0.6,0.6c-0.3,0.3-0.6,0.6-0.6,0.9c-0.3,0.3-0.3,0.3-0.6,0.6s-0.6,0.6-0.9,0.9
		c-0.3,0.3-0.3,0.3-0.6,0.6c-0.3,0.3-0.6,0.6-0.9,0.9c0,0-0.3,0.3-0.6,0.3c-0.3,0.3-0.9,0.6-1.1,0.9c0,0-0.3,0-0.3,0.3
		c-2.6,1.7-5.4,2.6-8.6,3.2l0,0c0.6,0,1.4,0.3,2,0.3c8.3,0,15.2-8,16.3-18.3c0-0.9,0-1.7,0-2.6C513.7,331.4,513.7,332.2,513.7,332.8
		L513.7,332.8z"/>
	<path fill="#828282" d="M117.2,184.9c0.3-0.3,0.3-0.3,0.6-0.6C117.5,184.6,117.2,184.6,117.2,184.9z"/>
	<path fill="#828282" d="M61.1,342.3c0.6-1.7,1.1-3.2,1.7-4.9C62.2,339.1,61.9,340.5,61.1,342.3z"/>
	<path fill="#828282" d="M35.5,204.7c0-0.9,0-1.7,0-2.3C35.5,202.9,35.5,203.8,35.5,204.7z"/>
	<path fill="#828282" d="M28.4,185.2c-1.7-0.3-3.4-0.6-5.4-0.3C24.9,184.6,26.7,184.6,28.4,185.2z"/>
	<path fill="#828282" d="M63.1,336.5c0.3-1.4,0.9-3.2,1.1-4.6C63.9,333.4,63.3,334.8,63.1,336.5z"/>
	<path fill="#828282" d="M156.8,332.8c-0.3,0-0.3,0-0.6,0C156.2,332.8,156.5,332.8,156.8,332.8z"/>
	<path fill="#828282" d="M123,352.6c0.6-0.3,1.1-0.9,1.4-1.1C124.1,351.7,123.5,352.3,123,352.6z"/>
	<path fill="#828282" d="M116.1,356c0.6-0.3,1.1-0.6,1.7-0.6C117.2,355.7,116.7,356,116.1,356z"/>
	<path fill="#828282" d="M127.6,348.3c0.3-0.6,0.9-1.1,1.1-1.7C128.4,347.1,127.8,347.7,127.6,348.3z"/>
	<path fill="#828282" d="M121.3,353.7c0.6-0.3,1.1-0.6,1.7-1.1C122.4,352.9,121.8,353.4,121.3,353.7z"/>
	<path fill="#828282" d="M133,335.1c0-0.9,0.3-2,0.3-2.9C133,333.1,133,334.2,133,335.1z"/>
	<path fill="#828282" d="M119.5,354.6c0.6-0.3,1.1-0.6,1.7-0.9C120.7,354,120.1,354.3,119.5,354.6z"/>
	<path fill="#828282" d="M126.1,350c0.6-0.6,0.9-0.9,1.4-1.4C127,348.8,126.4,349.4,126.1,350z"/>
	<path fill="#828282" d="M131.9,340.2c0.3-0.9,0.6-1.4,0.6-2.3C132.1,338.8,131.9,339.4,131.9,340.2z"/>
	<path fill="#828282" d="M128.7,346.6c0.3-0.6,0.9-1.1,1.1-1.7C129.6,345.4,129.3,346,128.7,346.6z"/>
	<path fill="#828282" d="M132.4,337.7c0.3-0.9,0.3-1.7,0.6-2.6C132.7,335.9,132.7,336.8,132.4,337.7z"/>
	<path fill="#828282" d="M131,342.5c0.3-0.6,0.6-1.4,0.9-2.3C131.6,341.1,131.3,342,131,342.5z"/>
	<path fill="#828282" d="M129.9,344.5c0.3-0.6,0.6-1.4,0.9-2C130.4,343.4,130.1,344,129.9,344.5z"/>
	<path fill="#828282" d="M117.8,355.4c0.6-0.3,1.1-0.6,1.7-0.9C119,354.9,118.4,355.2,117.8,355.4z"/>
	<path fill="#828282" d="M114.4,356.9c0.6-0.3,1.1-0.3,1.7-0.6C115.5,356.3,114.9,356.6,114.4,356.9z"/>
	<path fill="#828282" d="M178.9,248.2c0,0.3-0.3,0.3-0.3,0.6C178.6,248.5,178.9,248.2,178.9,248.2z"/>
	<path fill="#828282" d="M180,245.7c0,0.3-0.3,0.6-0.3,0.9C180,246.2,180,245.9,180,245.7z"/>
	<path fill="#828282" d="M181.7,240.5c0,0.3,0,0.6-0.3,0.9C181.5,241.1,181.7,240.8,181.7,240.5z"/>
	<path fill="#828282" d="M182.3,237.3C182.3,237.6,182,237.6,182.3,237.3C182,237.6,182.3,237.6,182.3,237.3z"/>
	<path fill="#828282" d="M180.9,243.1c0,0.3-0.3,0.6-0.3,0.9C180.9,243.6,180.9,243.4,180.9,243.1z"/>
	<path fill="#828282" d="M177.2,250.8c0,0.3-0.3,0.3-0.3,0.6C176.9,251.1,177.2,250.8,177.2,250.8z"/>
	<path fill="#828282" d="M112.7,357.2c0.6-0.3,1.1-0.3,1.7-0.6C113.8,356.9,113.2,357.2,112.7,357.2z"/>
	<path fill="#828282" d="M171.4,255.7c-0.3,0-0.6,0.3-0.9,0.3C170.8,256,171.1,256,171.4,255.7z"/>
	<path fill="#828282" d="M175.4,252.5c-0.3,0.3-0.3,0.3-0.6,0.6C175.1,253.1,175.4,252.8,175.4,252.5z"/>
	<path fill="#828282" d="M173.7,254.3c-0.3,0.3-0.6,0.3-0.9,0.6C173.1,254.5,173.4,254.5,173.7,254.3z"/>
	<path fill="#828282" d="M139,328.5L139,328.5L139,328.5z"/>
	<path fill="#828282" d="M147.3,332.2h-0.3C147.1,332.2,147.1,332.2,147.3,332.2z"/>
	<path fill="#828282" d="M182.6,233.9c0,0.3,0,0.6,0,0.9C182.3,234.5,182.6,234.2,182.6,233.9z"/>
	<path fill="#828282" d="M133,325.6c0.3,2.3,0.3,4.6,0,6.6c0.3-2.9,0-6-0.3-9.7c0,0,0.3,0.6,1.1,1.4c0.9-2,1.1-3.2,1.1-3.2
		c35,8,37-22.9,37-22.9L161.4,276c4.9-2,8.9-2.3,12.3-2l0,0c-8.6-0.6-20.9,2.9-41,23.5l-23.5-31l-40.4,10.3l32.4-18.9l41.3-47.9
		c8.9,41.6,32.1,22.1,39.6,14.3c-2.9-21.2-17.2-44.4-33-44.4c-26.9,0-48.4,27.8-48.4,27.8s1.7-4.6,6.9-11.8
		c-32.1,30.7-24.4,69.1-24.4,69.1c-18.9-62.2,40.4-103.5,57-114.9c8-5.7,12.3-13.8,14.3-20.4c-11.2-20.9-93.4-3.4-106.9,104.1
		c0,0-0.3-0.3-0.9-0.9c7.5,30.1,25.5,38.7,25.5,38.7c-47.3-14-50.7-62.8-49.3-86.9c-12,1.4-27.2,15.2-21.8,44.4
		c8.9,48.4,55.6,58.2,55.6,58.2s12,19.5,7.5,43.9c0-0.3,0-0.6,0.3-0.9C109.2,353.7,127.8,335.1,133,325.6z"/>
	<path fill="#828282" d="M137,327.1L137,327.1L137,327.1z"/>
	<path fill="#828282" d="M145.6,331.6L145.6,331.6L145.6,331.6z"/>
	<path fill="#828282" d="M142.8,330.5C142.8,330.5,142.5,330.5,142.8,330.5C142.5,330.5,142.8,330.5,142.8,330.5z"/>
	<path fill="#828282" d="M140.2,329.4C140.2,329.4,140.2,329.1,140.2,329.4C140.2,329.1,140.2,329.4,140.2,329.4z"/>
	<path fill="#828282" d="M126.1,350c-0.6,0.6-0.9,0.9-1.4,1.4C125,350.9,125.6,350.6,126.1,350z"/>
	<path fill="#828282" d="M112.7,357.2c-7.5,2-14.6,1.1-15.5,1.1C98,358.6,104.9,359.2,112.7,357.2z"/>
	<path fill="#828282" d="M136.4,326.5C136.2,326.5,136.2,326.2,136.4,326.5C136.2,326.2,136.2,326.5,136.4,326.5z"/>
	<path fill="#828282" d="M135.6,325.6L135.6,325.6L135.6,325.6z"/>
	<path fill="#828282" d="M135,325.1L135,325.1L135,325.1z"/>
	<path fill="#828282" d="M141.3,329.9L141.3,329.9L141.3,329.9z"/>
	<path fill="#828282" d="M165.7,331.1L165.7,331.1L165.7,331.1z"/>
	<path fill="#828282" d="M168.6,329.9c-0.3,0-0.6,0.3-0.9,0.3C168.3,330.2,168.6,329.9,168.6,329.9z"/>
	<path fill="#828282" d="M171.4,328.8c-0.3,0-0.6,0.3-0.9,0.3C170.6,329.1,171.1,328.8,171.4,328.8z"/>
	<path fill="#828282" d="M163.1,331.6c-0.3,0-0.3,0-0.6,0C162.8,331.9,163.1,331.9,163.1,331.6z"/>
	<path fill="#828282" d="M174,327.3c-0.3,0.3-0.6,0.3-0.9,0.6C173.4,327.9,173.7,327.6,174,327.3z"/>
	<path fill="#828282" d="M161.1,332.2c-0.3,0-0.6,0-0.6,0S160.8,332.2,161.1,332.2z"/>
	<path fill="#828282" d="M152.5,333.1C152.2,333.1,152.2,333.1,152.5,333.1C152.2,333.1,152.2,333.1,152.5,333.1z"/>
	<path fill="#828282" d="M150.5,332.8h-0.3H150.5z"/>
	<path fill="#828282" d="M158.8,332.8c-0.3,0-0.6,0-0.6,0C158.5,332.8,158.5,332.8,158.8,332.8z"/>
	<path fill="#828282" d="M149.1,332.5c-0.3,0-0.3,0-0.6,0C148.8,332.5,148.8,332.5,149.1,332.5z"/>
	<path fill="#828282" d="M154.5,333.1C154.5,333.1,154.2,333.1,154.5,333.1C154.2,333.1,154.5,333.1,154.5,333.1z"/>
	<path fill="#828282" d="M182,224.4c0,0.3,0,0.6,0,0.9C182,225,182,224.7,182,224.4z"/>
	<path fill="#828282" d="M39.6,222.1c0.3,0.6,0.6,1.1,0.9,1.4C40.1,223,39.8,222.4,39.6,222.1z"/>
	<path fill="#828282" d="M35,189.8l0.3,0.3L35,189.8z"/>
	<path fill="#828282" d="M36.1,192.9c0,0.3,0,0.3,0,0.6C36.1,193.5,36.1,193.2,36.1,192.9z"/>
	<path fill="#828282" d="M35.8,191.5c0,0.3,0,0.3,0,0.6C35.8,191.8,35.8,191.5,35.8,191.5z"/>
	<path fill="#828282" d="M34.1,188.3c0,0.3,0.3,0.3,0.3,0.6C34.4,188.9,34.4,188.6,34.1,188.3z"/>
	<path fill="#828282" d="M41,224.4c0.3,0.6,0.6,0.9,0.6,1.1C41.3,225.3,41,224.7,41,224.4z"/>
	<path fill="#828282" d="M141.3,166.2c-0.6,0.3-0.9,0.6-1.4,0.9C140.5,166.8,141,166.5,141.3,166.2z"/>
	<path fill="#828282" d="M145,164.2c-0.3,0.3-0.9,0.6-1.1,0.6C144.2,164.8,144.8,164.5,145,164.2z"/>
	<path fill="#828282" d="M42.1,226.4c0.3,0.3,0.6,0.9,0.6,1.1C42.4,227.3,42.4,227,42.1,226.4z"/>
	<path fill="#828282" d="M44.4,229.9c0.3,0.3,0.3,0.3,0.6,0.6C44.7,230.5,44.4,230.2,44.4,229.9z"/>
	<path fill="#828282" d="M37.3,215.8c0.3,0.9,0.6,2,0.9,2.9C37.8,217.6,37.6,216.7,37.3,215.8z"/>
	<path fill="#828282" d="M30.1,185.5c0.9,0.3,2,0.9,2.6,1.4C31.8,186.3,31,186,30.1,185.5z"/>
	<path fill="#828282" d="M36.4,212.7c0.3,0.6,0.3,1.4,0.6,2C36.7,214.1,36.7,213.5,36.4,212.7z"/>
	<path fill="#828282" d="M38.1,218.7c0.3,0.9,0.6,1.7,0.9,2.3C39,220.4,38.7,219.6,38.1,218.7z"/>
	<path fill="#828282" d="M182.6,230.7c0,0.3,0,0.9,0,1.1C182.6,231.6,182.6,231,182.6,230.7z"/>
	<path fill="#828282" d="M36.1,197.2c-0.3,1.4-0.3,2.6-0.6,3.7C35.8,199.8,35.8,198.4,36.1,197.2z"/>
	<path fill="#828282" d="M36.1,194.6c0,0.3,0,0.3,0,0.6C36.1,195.2,36.1,194.9,36.1,194.6z"/>
	<path fill="#828282" d="M35.5,206.1c0,0.9,0,1.4,0.3,2C35.5,207.5,35.5,206.7,35.5,206.1z"/>
	<path fill="#828282" d="M35.8,209.5c0,0.6,0.3,1.4,0.3,2C36.1,211,36.1,210.1,35.8,209.5z"/>
	<path fill="#828282" d="M43.3,228.5c0.3,0.3,0.3,0.6,0.6,0.9C43.6,229,43.6,228.7,43.3,228.5z"/>
	<path fill="#828282" d="M113.8,188.3c0,0.3-0.3,0.3-0.3,0.6C113.5,188.6,113.5,188.6,113.8,188.3z"/>
	<path fill="#828282" d="M182.3,227.6c0,0.3,0,0.9,0,1.1C182.3,228.5,182.3,227.9,182.3,227.6z"/>
	<path fill="#828282" d="M28.7,185.2c0.3,0,0.9,0.3,1.1,0.3C29.5,185.5,29,185.2,28.7,185.2z"/>
	<path fill="#828282" d="M33.3,187.5c0.3,0.3,0.3,0.3,0.6,0.6C33.5,187.7,33.3,187.5,33.3,187.5z"/>
	<path fill="#828282" d="M111.8,190.6L111.8,190.6L111.8,190.6z"/>
	<path fill="#828282" d="M115.8,186.3c-0.3,0.3-0.3,0.3-0.6,0.6C115.2,186.6,115.5,186.6,115.8,186.3z"/>
	<path fill="#828282" d="M137.9,168.5c-0.6,0.3-0.9,0.6-1.4,0.9C137,169.1,137.6,168.8,137.9,168.5z"/>
	<path fill="#828282" d="M119.8,182.3c-0.3,0.3-0.3,0.3-0.6,0.6C119.5,182.6,119.8,182.3,119.8,182.3z"/>
	<path fill="#828282" d="M122.4,180l-0.3,0.3C122.1,180.3,122.1,180.3,122.4,180z"/>
	<path fill="#828282" d="M125,177.7C125,177.7,125,178,125,177.7C125,178,125,177.7,125,177.7z"/>
	<path fill="#828282" d="M128.4,175.1c-0.3,0.3-0.6,0.3-0.9,0.6C127.8,175.7,128.1,175.4,128.4,175.1z"/>
	<path fill="#828282" d="M131.3,172.8c-0.3,0.3-0.9,0.6-1.1,0.9C130.7,173.4,131,173.1,131.3,172.8z"/>
	<path fill="#828282" d="M134.4,170.5c-0.3,0.3-0.9,0.6-1.1,0.9C133.9,171.1,134.2,170.8,134.4,170.5z"/>
	<path fill="#828282" d="M175.7,326.5c0.3-0.3,0.6-0.3,0.9-0.6C176.3,326.2,176,326.2,175.7,326.5z"/>
	<path fill="#828282" d="M134.7,325.1C135,325.1,135,325.1,134.7,325.1c0.3,0.3,0.6,0.6,0.6,0.6s0,0,0.3,0.3s0.3,0.3,0.6,0.6
		c0,0,0,0,0.3,0.3c0.3,0.3,0.6,0.3,0.6,0.6l0,0c0.6,0.6,1.1,0.9,2,1.4l0,0c0.3,0.3,0.6,0.3,0.9,0.6h0.3c0.3,0.3,0.6,0.3,0.9,0.6
		c0,0,0.3,0,0.3,0.3c0.3,0.3,0.6,0.3,1.1,0.6h0.3c0.9,0.3,1.7,0.9,2.9,1.1c0,0,0,0,0.3,0c0.3,0,0.9,0.3,1.4,0.3h0.3
		c0.3,0,0.9,0.3,1.1,0.3s0.3,0,0.6,0s0.9,0,1.1,0.3h0.3c0.6,0,1.1,0,1.7,0.3c0,0,0,0,0.3,0c0.6,0,1.1,0,2,0c0,0,0,0,0.3,0
		c0.6,0,1.1,0,1.7,0c0.3,0,0.3,0,0.6,0c0.6,0,0.9,0,1.4-0.3c0.3,0,0.6,0,0.6,0c0.6,0,0.9-0.3,1.4-0.3c0.3,0,0.6,0,0.6,0
		c0.6,0,1.1-0.3,1.7-0.3c0.3,0,0.3,0,0.6,0c0.9-0.3,1.4-0.6,2.3-0.6c0,0,0,0,0.3,0c0.9-0.3,1.4-0.6,2.3-0.9c0.3,0,0.6-0.3,0.9-0.3
		c0.6-0.3,1.1-0.6,1.7-0.9c0.3,0,0.6-0.3,0.9-0.3c0.6-0.3,1.1-0.6,1.7-0.9c0.3-0.3,0.6-0.3,0.9-0.6c0.3,0,0.6-0.3,0.6-0.3l0,0l0,0
		l0,0c0.3-0.3,0.6-0.3,0.9-0.6c0.3-0.3,0.6-0.3,0.9-0.6c0.9-0.6,1.7-1.1,2.9-1.7c7.2-4.6,11.8-9.2,14.6-14c0,0,0-0.3,0.3-0.3l0,0
		c3.7-6.3,4.6-12.3,3.7-17.5c-0.3-1.4-0.6-2.9-1.1-4.3h-18.3l-4.6-14c-3.4-0.3-7.5,0.3-12.3,2l10.6,21.8c0,0-2.3,31-37,23.2
		c0,0-0.3,1.1-1.1,3.2l0,0C134.2,324.2,134.4,324.8,134.7,325.1z"/>
	<path fill="#828282" d="M97.2,358.3c0.9,0,8,0.9,15.5-1.1l0,0c0.6-0.3,1.1-0.3,1.7-0.6l0,0c0.6-0.3,1.1-0.3,1.7-0.6l0,0
		c0.6-0.3,1.1-0.6,1.7-0.6l0,0c0.6-0.3,1.1-0.6,1.7-0.9l0,0c0.6-0.3,1.1-0.6,1.7-0.9l0,0c0.6-0.3,1.1-0.6,1.7-1.1l0,0
		c0.6-0.3,1.1-0.9,1.4-1.1l0,0c0.6-0.3,0.9-0.9,1.4-1.4l0,0c0.6-0.6,0.9-0.9,1.4-1.4l0,0c0.3-0.6,0.9-1.1,1.1-1.7l0,0
		c0.3-0.6,0.9-1.1,1.1-1.7l0,0c0.3-0.6,0.6-1.4,0.9-2l0,0c0.3-0.6,0.6-1.4,0.9-2.3l0,0c0.3-0.9,0.6-1.4,0.6-2.3l0,0
		c0.3-0.9,0.3-1.7,0.6-2.6l0,0c0-0.9,0.3-2,0.3-2.9l0,0c0-2,0-4.3,0-6.6c-5.4,9.7-24.1,28.1-68.8,5.2c0,0.3,0,0.6-0.3,0.9v0.3
		c-0.3,1.7-0.6,3.2-1.1,4.6c0,0.3-0.3,0.6-0.3,0.9c-0.6,1.7-0.9,3.2-1.7,4.9L97.2,358.3C96.9,358.3,96.9,358.3,97.2,358.3z"/>
	<path fill="#828282" d="M142.5,210.1L101.2,258l-32.4,18.9l40.4-10.3l23.5,30.7L114.7,256l20.6-26.9c0,0,2.9,38.7,32.7,27.8
		c0.9-0.3,1.7-0.6,2.6-1.1c0.3,0,0.6-0.3,0.9-0.3c0.6-0.3,1.1-0.6,1.4-0.9c0.3-0.3,0.6-0.3,0.9-0.6c0.6-0.3,0.9-0.6,1.1-1.1
		c0.3-0.3,0.6-0.3,0.6-0.6c0.6-0.6,0.9-0.9,1.1-1.4c0-0.3,0.3-0.3,0.3-0.6c0.6-0.6,0.9-1.4,1.4-2c0-0.3,0.3-0.3,0.3-0.6
		c0.3-0.6,0.6-1.1,0.9-1.7c0-0.3,0.3-0.6,0.3-0.9c0.3-0.6,0.3-1.1,0.6-1.7c0-0.3,0.3-0.6,0.3-0.9c0.3-0.6,0.3-1.1,0.6-1.7
		c0-0.3,0.3-0.6,0.3-0.9c0.3-0.9,0.3-1.7,0.6-2.6v-0.3c0-0.9,0.3-1.7,0.3-2.6c0-0.3,0-0.6,0-0.9c0-0.6,0-1.4,0-2c0-0.3,0-0.9,0-1.1
		c0-0.6,0-1.4,0-2c0-0.3,0-0.9,0-1.1c0-0.9,0-1.4-0.3-2.3c0-0.3,0-0.6,0-0.9l0,0l0,0C174.6,232.2,151.4,251.7,142.5,210.1z"/>
	<path fill="#828282" d="M140.2,150.2c-16.6,11.5-76,52.7-57,114.9c0,0-7.7-38.4,24.1-69.1l0,0c1.1-1.7,2.6-3.4,4.3-5.4
		c0,0,0,0,0.3-0.3c0.6-0.6,0.9-1.1,1.4-1.7c0-0.3,0.3-0.3,0.3-0.6c0.6-0.6,0.9-0.9,1.4-1.4c0.3-0.3,0.3-0.3,0.6-0.6
		c0.6-0.6,0.9-0.9,1.4-1.4c0.3-0.3,0.3-0.3,0.6-0.6c0.6-0.6,1.1-1.1,1.7-1.4c0.3-0.3,0.3-0.3,0.6-0.6c0.6-0.6,1.4-1.1,2-1.7l0.3-0.3
		c0.9-0.9,1.7-1.4,2.6-2.3l0,0c0.9-0.6,1.7-1.4,2.6-2c0.3-0.3,0.6-0.3,0.9-0.6c0.6-0.6,1.4-0.9,2-1.4c0.3-0.3,0.9-0.6,1.1-0.9
		c0.6-0.6,1.1-0.9,2-1.4c0.3-0.3,0.9-0.6,1.1-0.9c0.6-0.6,1.4-0.9,2-1.4c0.6-0.3,0.9-0.6,1.4-0.9c0.6-0.6,1.4-0.9,2.3-1.4
		c0.6-0.3,0.9-0.6,1.4-0.9c0.9-0.6,1.7-0.9,2.6-1.4c0.3-0.3,0.9-0.6,1.1-0.6c1.1-0.6,2.6-1.4,3.7-2c0,0,15.2-8.9,6.3-31.2
		c-0.3-0.3-0.3-0.9-0.6-1.1l0,0C152.5,136.4,148.5,144.5,140.2,150.2z"/>
	<path fill="#828282" d="M72.2,271.7c0,0-18.1-8.6-25.5-38.7l0,0c-0.6-0.6-1.1-1.4-2-2.3c-0.3-0.3-0.3-0.3-0.6-0.6
		c-0.3-0.3-0.3-0.6-0.6-0.6c-0.3-0.3-0.3-0.6-0.6-0.9c-0.3-0.3-0.3-0.6-0.6-0.9s-0.6-0.6-0.6-1.1c-0.3-0.3-0.3-0.6-0.6-0.9
		c-0.3-0.3-0.6-0.9-0.6-1.1c-0.3-0.3-0.3-0.6-0.6-0.9c-0.3-0.6-0.6-1.1-0.9-1.4c0-0.3-0.3-0.6-0.3-0.9c-0.3-0.9-0.6-1.7-0.9-2.3
		c0,0,0,0,0-0.3c-0.3-0.9-0.6-1.7-0.9-2.9c0-0.3-0.3-0.6-0.3-0.9c-0.3-0.6-0.3-1.4-0.6-2c0-0.3-0.3-0.9-0.3-1.1c0-0.6-0.3-1.4-0.3-2
		s0-0.9-0.3-1.4c0-0.6,0-1.4-0.3-2c0-0.6,0-0.9,0-1.4c0-0.9,0-1.7,0-2.3c0-0.3,0-0.9,0-1.1c0-1.1,0.3-2.6,0.6-3.7
		c0-0.6,0.3-1.1,0.3-1.7c0-0.3,0-0.3,0-0.6s0-0.9,0-1.1s0-0.3,0-0.6s0-0.9-0.3-1.1c0-0.3,0-0.3,0-0.6c-0.3-0.6-0.3-0.9-0.6-1.4
		c0,0,0-0.3-0.3-0.3c-0.3-0.3-0.3-0.6-0.6-0.9c0-0.3-0.3-0.3-0.3-0.6c-0.3-0.3-0.3-0.3-0.6-0.6c-0.3-0.3-0.3-0.3-0.6-0.6
		c-0.3,0-0.3-0.3-0.6-0.3c-0.9-0.6-1.7-1.1-2.6-1.4h-0.3c-0.3,0-0.6-0.3-1.1-0.3h-0.3c-1.7-0.3-3.4-0.6-5.4-0.3l0,0l0,0
		C21.5,209,24.9,257.7,72.2,271.7z"/>
	<path fill="#4D4D4D" d="M182,577.6L182,577.6c1.7-1.4,3.4-3.2,5.2-4.6c1.7-1.4,3.4-2.9,5.4-4.3c1.1-0.9,2.6-2,3.7-2.9l0,0
		c11.2-8.6,23.2-16.1,36.7-22.6v-0.3c-60.8-2.6-95.2-27.2-114.7-57.9c-25.2,14.6-51.3,18.3-69.4,18.3c0.9,4,2,8,3.2,11.8
		c16.6,57,63.3,107.8,79.7,124.4C145.3,616.6,162,595.7,182,577.6z"/>
	<path fill="#4D4D4D" d="M96.9,358.6L96.9,358.6L96.9,358.6z"/>
	<path fill="#4D4D4D" d="M106.1,460.6c-21.8,11.8-47,14-62.5,14c0.6,5.2,1.4,10.6,2.6,15.8c32.7-0.3,57.9-10.3,66.8-14.6
		C110.4,470.7,108.1,465.8,106.1,460.6z"/>
	<path fill="#4D4D4D" d="M118.1,485C118.4,485,118.4,485,118.1,485L118.1,485C118.1,484.7,118.1,485,118.1,485z"/>
	<path fill="#4D4D4D" d="M115.5,480.1L115.5,480.1L115.5,480.1z"/>
	<path fill="#4D4D4D" d="M42.4,462.9c30.7,0.3,52.2-8.9,60.2-13.2l0,0c-4.3-14-6.3-28.1-7.5-41l0,0c-16.6,10.9-33.8,10.6-50.7,7.5
		C42.4,432.5,41.9,448.3,42.4,462.9L42.4,462.9L42.4,462.9z"/>
	<path fill="#535353" d="M106.1,460.6L106.1,460.6c-0.6-1.7-1.1-3.4-1.7-5.2c0-0.3,0-0.3-0.3-0.6c-0.6-1.7-1.1-3.2-1.4-4.9l0,0
		C103.5,453.5,104.6,456.9,106.1,460.6L106.1,460.6z"/>
	<path fill="#4D4D4D" d="M102.6,449.7L102.6,449.7c-8,4-29.2,13.5-60.2,13.2l0,0c0.3,3.7,0.9,7.7,1.1,11.8c15.5,0,40.4-2.3,62.5-14
		C104.6,456.9,103.5,453.5,102.6,449.7z"/>
	<path fill="#535353" d="M102.6,449.7L102.6,449.7c-8,4-29.2,13.5-60.2,13.2l0,0c0.3,3.7,0.9,7.7,1.1,11.8c15.5,0,40.4-2.3,62.5-14
		C104.6,456.9,103.5,453.5,102.6,449.7z"/>
	<path fill="#535353" d="M118.4,485L118.4,485L118.4,485L118.4,485z"/>
	<path fill="#535353" d="M115.5,480.1c0.9,1.4,1.7,3.2,2.9,4.6C117.2,483.3,116.4,481.9,115.5,480.1
		C115.5,480.4,115.5,480.4,115.5,480.1z"/>
	<path fill="#535353" d="M112.9,475.8L112.9,475.8c0.9,1.4,1.7,2.9,2.6,4.6C114.7,478.7,113.8,477.3,112.9,475.8L112.9,475.8z"/>
	<path fill="#4D4D4D" d="M118.4,485L118.4,485C118.1,485,118.1,484.7,118.4,485c-1.1-1.7-2-3.2-2.9-4.6l0,0l0,0
		c-0.9-1.4-1.7-2.9-2.6-4.6c-9.2,4.3-34.1,14.3-66.8,14.6c0.9,4.3,1.7,8.6,2.9,12.9C67.1,503.4,92.9,499.6,118.4,485L118.4,485z"/>
	<path fill="#535353" d="M118.4,485L118.4,485C118.1,485,118.1,484.7,118.4,485c-1.1-1.7-2-3.2-2.9-4.6l0,0l0,0
		c-0.9-1.4-1.7-2.9-2.6-4.6c-9.2,4.3-34.1,14.3-66.8,14.6c0.9,4.3,1.7,8.6,2.9,12.9C67.1,503.4,92.9,499.6,118.4,485L118.4,485z"/>
	<path fill="#535353" d="M96.9,358.6c-0.6,2.6-3.7,23.5-1.7,50.5C93.2,382.1,96.6,361.2,96.9,358.6z"/>
	<path fill="#535353" d="M44.1,416.2L44.1,416.2c2.9-22.9,8.3-47.9,16.9-74C51.3,368.9,47.3,393.3,44.1,416.2z"/>
	<path fill="#535353" d="M96.9,358.6C96.9,358.3,96.9,358.3,96.9,358.6C96.9,358.3,96.9,358.3,96.9,358.6z"/>
	<path fill="#4D4D4D" d="M95.2,409L95.2,409c-2-26.9,1.4-47.9,1.7-50.5l0,0v-0.3l-35.8-16.1c-8.9,26.4-14,51-16.9,74
		C61.3,419.6,78.5,419.9,95.2,409z"/>
	<path fill="#535353" d="M95.2,409L95.2,409c-2-26.9,1.4-47.9,1.7-50.5l0,0v-0.3l-35.8-16.1c-8.9,26.4-14,51-16.9,74
		C61.3,419.6,78.5,419.9,95.2,409z"/>
	<path fill="#4D4D4D" d="M349.4,569.9c2,0,4-0.3,6-0.3C353.2,569.9,351.1,569.9,349.4,569.9z"/>
	<path fill="#4D4D4D" d="M342.3,570.1c2.3,0,4.3,0,6.6,0C346.6,570.1,344.6,570.1,342.3,570.1z"/>
	<path fill="#4D4D4D" d="M295.3,565.3c1.1,0.3,2,0.6,3.2,0.6C297.3,565.8,296.1,565.6,295.3,565.3z"/>
	<path fill="#4D4D4D" d="M284.4,562.4c0.6,0.3,1.1,0.3,1.7,0.6C285.8,563,284.9,562.7,284.4,562.4z"/>
	<path fill="#4D4D4D" d="M289.8,563.8c0.9,0.3,1.7,0.3,2.6,0.6C291.5,564.4,290.7,564.1,289.8,563.8z"/>
	<path fill="#4D4D4D" d="M313.3,568.4c0.9,0,2,0.3,2.9,0.3C315.3,568.7,314.5,568.4,313.3,568.4z"/>
	<path fill="#4D4D4D" d="M320.2,569c0.9,0,1.7,0,2.6,0.3C321.9,569.3,321,569.3,320.2,569z"/>
	<path fill="#4D4D4D" d="M327.1,569.6c4.9,0.3,9.7,0.6,15.2,0.6C337.1,570.1,331.9,569.9,327.1,569.6z"/>
	<path fill="#4D4D4D" d="M301,566.4c0.9,0.3,2,0.3,2.9,0.6C303,566.7,301.8,566.7,301,566.4z"/>
	<path fill="#4D4D4D" d="M279.5,561c0.6,0.3,1.1,0.3,1.7,0.6C280.6,561.3,280.1,561.3,279.5,561z"/>
	<path fill="#4D4D4D" d="M307,567.6c1.1,0.3,2.3,0.3,3.2,0.6C309.3,567.8,308.1,567.6,307,567.6z"/>
	<path fill="#4D4D4D" d="M262.6,554.1c0.3,0.3,0.9,0.3,1.1,0.6C263.4,554.7,263.1,554.4,262.6,554.1z"/>
	<path fill="#4D4D4D" d="M252.8,548.6c0.3,0,0.3,0.3,0.6,0.3C253.1,548.9,252.8,548.9,252.8,548.6z"/>
	<path fill="#4D4D4D" d="M255.7,550.6c0.3,0.3,0.6,0.3,0.9,0.6C256.6,550.9,256.3,550.6,255.7,550.6z"/>
	<path fill="#4D4D4D" d="M259.1,552.4c0.3,0.3,0.9,0.3,1.1,0.6C260,552.7,259.4,552.7,259.1,552.4z"/>
	<path fill="#4D4D4D" d="M274.9,559.2c0.6,0.3,1.4,0.6,2,0.6C276.3,559.8,275.5,559.5,274.9,559.2z"/>
	<path fill="#4D4D4D" d="M356.9,569.6c1.4,0,2.9-0.3,4.3-0.3C360,569.3,358.3,569.3,356.9,569.6z"/>
	<path fill="#4D4D4D" d="M250,546.9L250,546.9L250,546.9z"/>
	<path fill="#4D4D4D" d="M266.6,556.1c0.3,0.3,0.9,0.3,1.1,0.6C267.2,556.4,266.9,556.1,266.6,556.1z"/>
	<path fill="#4D4D4D" d="M270.6,557.8c0.6,0.3,1.1,0.6,1.7,0.6C271.7,558.1,271.2,557.8,270.6,557.8z"/>
	<path fill="#4D4D4D" d="M247.4,545.2L247.4,545.2L247.4,545.2z"/>
	<path fill="#4D4D4D" d="M495.9,569c1.7,1.4,3.4,2.9,5.2,4.3C499.3,571.6,497.6,570.4,495.9,569z"/>
	<path fill="#4D4D4D" d="M245.1,543.5L245.1,543.5L245.1,543.5z"/>
	<path fill="#4D4D4D" d="M396.7,561.8c1.1-0.3,2-0.6,3.2-0.9C399,561.3,397.9,561.5,396.7,561.8z"/>
	<path fill="#4D4D4D" d="M424.2,551.2c0.3-0.3,0.9-0.3,1.1-0.6C425.1,550.6,424.8,550.9,424.2,551.2z"/>
	<path fill="#4D4D4D" d="M411.1,557c0.9-0.3,1.7-0.6,2.6-1.1C412.8,556.4,411.9,556.7,411.1,557z"/>
	<path fill="#4D4D4D" d="M428.3,549.2c0.3-0.3,0.6-0.3,0.9-0.6C428.8,548.9,428.5,548.9,428.3,549.2z"/>
	<path fill="#4D4D4D" d="M415.4,555.2c0.9-0.3,1.7-0.6,2.3-1.1C417.1,554.4,416.2,554.9,415.4,555.2z"/>
	<path fill="#4D4D4D" d="M419.9,553.2c0.6-0.3,1.1-0.6,1.7-0.9C421.1,552.7,420.5,552.9,419.9,553.2z"/>
	<path fill="#4D4D4D" d="M387,715.5c19.8-4.3,38.4-10.6,56.5-18.9c-18.1-1.7-37-2.9-56.5-3.4V715.5z"/>
	<path fill="#4D4D4D" d="M364.3,568.7c1.1,0,2-0.3,3.2-0.3C366.3,568.4,365.5,568.7,364.3,568.7z"/>
	<path fill="#4D4D4D" d="M364,692.5h-40.1c-1.7,0-2.9,1.1-2.9,2.9v26.4c2.3,0,4.3,0,6.6,0c13.5,0,26.4-0.9,39.3-2.9v-23.5
		C366.9,693.7,365.8,692.5,364,692.5z"/>
	<path fill="#4D4D4D" d="M218.1,699.1c25.8,11.2,53.9,18.6,83.1,21.5v-27.8C272.3,694,244.2,696,218.1,699.1z"/>
	<path fill="#4D4D4D" d="M381,566.1c1.1-0.3,2.6-0.6,3.7-0.9C383.3,565.6,382.1,565.8,381,566.1z"/>
	<path fill="#4D4D4D" d="M375.2,567.3c1.1-0.3,2.6-0.6,3.7-0.6C377.8,566.7,376.4,567,375.2,567.3z"/>
	<path fill="#4D4D4D" d="M386.4,564.7c1.1-0.3,2.3-0.6,3.4-0.9C388.7,564.1,387.6,564.4,386.4,564.7z"/>
	<path fill="#4D4D4D" d="M370.1,568.1c1.1-0.3,2.3-0.3,3.4-0.6C372.1,567.6,370.9,567.8,370.1,568.1z"/>
	<path fill="#4D4D4D" d="M401.9,560.4c0.9-0.3,1.7-0.6,2.9-0.9C403.9,559.8,402.7,560.1,401.9,560.4z"/>
	<path fill="#4D4D4D" d="M391.9,563.3c1.1-0.3,2-0.6,3.2-0.9C393.9,563,393,563,391.9,563.3z"/>
	<path fill="#4D4D4D" d="M406.8,558.7c0.9-0.3,1.7-0.6,2.6-0.9C408.5,558.1,407.6,558.4,406.8,558.7z"/>
	<path fill="#4D4D4D" d="M452.9,586.5c0,0-41.9,38.1-110.6,38.1c-81.7,0-106.9-38.1-106.9-38.1l-2.3-43.3
		c-13.2,6.6-25.5,14-36.7,22.6c-13.8,18.9-33.8,52.7-40.7,95.5c15.2,12,31.5,22.6,49,31.5c30.1-4,62.8-6.9,97.2-8
		c2-6.3,8-11.2,14.9-11.2h54.5c7.2,0,12.9,4.6,14.9,11.2c24.4,0.9,48.2,2.6,70.5,4.9c26.1-13.8,49.9-31.8,70.2-53
		c-9.2-31.2-24.1-55.6-35.3-70.8c-11.2-8.6-23.2-16.1-36.7-22.6L452.9,586.5z M487.3,624.3h-7.7l-13.2,16.3V651h7.7v5.2h-21.2v-5.4
		h7.7v-10.3L447.5,624h-8v-4.9h19.8v5.2h-5.2l9.2,11.5l9.2-11.5h-5.2v-5.2H487v5.2H487.3z"/>
	<path fill="#4D4D4D" d="M534,628.9c2.9-3.4,5.7-6.9,8.6-10.3c-9.5-13.2-20.1-25.5-31.8-36.7c-1.7-1.4-3.2-2.9-4.9-4.6
		C519.1,594.2,528,612,534,628.9z"/>
	<path fill="#4D4D4D" d="M192.6,568.7c-1.7,1.4-3.7,2.9-5.4,4.3C189.2,571.6,190.9,570.1,192.6,568.7z"/>
	<path fill="#4D4D4D" d="M131.6,639.8c3.7,3.7,5.7,5.7,5.7,5.7c3.2,2.9,6.3,5.7,9.5,8.6c5.4-23.5,15.8-51,35.3-76.2
		C162,595.7,145.3,616.6,131.6,639.8z"/>
	<path fill="#4D4D4D" d="M301.3,689.4c0-1.7,0.3-3.2,0.6-4.6c-34.4,1.1-67.1,4-97.2,8c4.3,2.3,8.9,4.3,13.5,6.3
		c26.1-3.2,53.9-5.2,83.1-6.3L301.3,689.4L301.3,689.4z"/>
	<path fill="#535353" d="M301.3,689.4c0-1.7,0.3-3.2,0.6-4.6c-34.4,1.1-67.1,4-97.2,8c4.3,2.3,8.9,4.3,13.5,6.3
		c26.1-3.2,53.9-5.2,83.1-6.3L301.3,689.4L301.3,689.4z"/>
	<path fill="#4D4D4D" d="M387,689.4v3.4c19.5,0.6,38.1,2,56.5,3.4c4.6-2,8.9-4.3,13.5-6.6c-22.4-2.3-46.2-4-70.5-4.9
		C386.7,686.2,387,687.7,387,689.4z"/>
	<path fill="#535353" d="M387,689.4v3.4c19.5,0.6,38.1,2,56.5,3.4c4.6-2,8.9-4.3,13.5-6.6c-22.4-2.3-46.2-4-70.5-4.9
		C386.7,686.2,387,687.7,387,689.4z"/>
	<path fill="#4D4D4D" d="M196.4,565.8C196.4,565.8,196.4,565.6,196.4,565.8c-1.1,0.9-2.6,2-3.7,2.9c-1.7,1.4-3.7,2.9-5.4,4.3
		c-1.7,1.4-3.4,2.9-5.2,4.6l0,0c-19.5,25.2-30.1,53-35.3,76.2c2.9,2.6,6,5.2,8.9,7.5C162.5,618.3,182.6,584.8,196.4,565.8z"/>
	<path fill="#535353" d="M196.4,565.8C196.4,565.8,196.4,565.6,196.4,565.8c-1.1,0.9-2.6,2-3.7,2.9c-1.7,1.4-3.7,2.9-5.4,4.3
		c-1.7,1.4-3.4,2.9-5.2,4.6l0,0c-19.5,25.2-30.1,53-35.3,76.2c2.9,2.6,6,5.2,8.9,7.5C162.5,618.3,182.6,584.8,196.4,565.8z"/>
	<path fill="#535353" d="M505.9,577.6c-1.7-1.4-3.4-2.9-5.2-4.3C502.8,574.4,504.5,575.9,505.9,577.6L505.9,577.6z"/>
	<path fill="#535353" d="M491.6,565.6C491.6,565.6,491.6,565.8,491.6,565.6c1.4,1.1,2.9,2.3,4,3.2
		C494.5,567.8,493,566.7,491.6,565.6z"/>
	<path fill="#4D4D4D" d="M526.9,636.6c2.3-2.6,4.9-5.2,7.2-7.7c-6-16.9-14.9-34.7-28.1-51.3c-1.7-1.4-3.4-2.9-5.2-4.3
		c-1.7-1.4-3.4-2.9-5.2-4.3c-1.4-1.1-2.6-2-4-3.2C502.8,580.7,517.7,605.4,526.9,636.6z"/>
	<path fill="#535353" d="M526.9,636.6c2.3-2.6,4.9-5.2,7.2-7.7c-6-16.9-14.9-34.7-28.1-51.3c-1.7-1.4-3.4-2.9-5.2-4.3
		c-1.7-1.4-3.4-2.9-5.2-4.3c-1.4-1.1-2.6-2-4-3.2C502.8,580.7,517.7,605.4,526.9,636.6z"/>
	<path fill="#828282" d="M435.7,456.3c-28.1-3.7-53.3-21.8-69.9-42.4c-6.3,2.6-13.8,4.9-21.5,4.9c-8,0-15.2-2.3-21.5-4.9
		c-16.9,20.6-42.1,39-69.9,42.4c-8.6,1.1-16.6,1.4-24.1,0.9l4,73.7c0,0,3.7,5.4,12.6,12.3c0,0,0,0,0.3,0c0.6,0.6,1.4,1.1,2.3,1.7
		l0,0c0.9,0.6,1.7,1.1,2.6,1.7l0,0c0.9,0.6,1.7,1.1,2.6,1.7c0.3,0,0.3,0.3,0.6,0.3c0.9,0.6,1.7,0.9,2.6,1.4c0.3,0.3,0.6,0.3,0.9,0.6
		c0.9,0.3,1.4,0.9,2.3,1.1c0.3,0.3,0.9,0.3,1.1,0.6c0.9,0.3,1.7,0.9,2.3,1.1c0.3,0.3,0.9,0.3,1.1,0.6c0.9,0.3,1.7,0.9,2.6,1.1
		c0.3,0.3,0.9,0.3,1.1,0.6c0.9,0.3,2,0.9,2.9,1.1c0.6,0.3,1.1,0.6,1.7,0.6c0.9,0.3,1.7,0.6,2.6,0.9c0.6,0.3,1.4,0.6,2,0.6
		c0.9,0.3,1.7,0.6,2.6,0.9c0.6,0.3,1.1,0.3,1.7,0.6c1.1,0.3,2,0.6,3.2,1.1c0.6,0.3,1.1,0.3,1.7,0.6c1.1,0.3,2.3,0.6,3.4,0.9
		c0.9,0.3,1.7,0.3,2.6,0.6c0.9,0.3,1.7,0.6,2.9,0.6c1.1,0.3,2,0.6,3.2,0.6c0.9,0.3,1.7,0.3,2.6,0.6c0.9,0.3,2,0.3,2.9,0.6
		c1.1,0.3,2,0.3,3.2,0.6c1.1,0.3,2.3,0.3,3.2,0.6c1.1,0.3,2,0.3,3.2,0.6c0.9,0,2,0.3,2.9,0.3c1.4,0,2.6,0.3,4,0.3
		c0.9,0,1.7,0,2.6,0.3c1.4,0,3.2,0.3,4.6,0.3c4.9,0.3,9.7,0.6,15.2,0.6c2.3,0,4.3,0,6.6,0c0.3,0,0.3,0,0.6,0c2,0,4-0.3,6-0.3
		c0.6,0,1.1,0,1.7-0.3c1.4,0,2.9-0.3,4.3-0.3c0.9,0,2-0.3,2.9-0.3c1.1,0,2-0.3,3.2-0.3c0.9,0,1.7-0.3,2.6-0.3
		c1.1-0.3,2.3-0.3,3.4-0.6c0.6,0,1.1-0.3,1.7-0.3c1.1-0.3,2.6-0.6,3.7-0.6c0.6,0,1.1-0.3,1.7-0.3c1.1-0.3,2.6-0.6,3.7-0.9
		c0.6-0.3,1.1-0.3,2-0.6c1.1-0.3,2.3-0.6,3.4-0.9c0.6-0.3,1.4-0.3,2-0.6c1.1-0.3,2-0.6,3.2-0.9c0.6-0.3,1.1-0.3,1.7-0.6
		c1.1-0.3,2-0.6,3.2-0.9c0.6-0.3,1.4-0.6,2-0.6c0.9-0.3,1.7-0.6,2.9-0.9c0.6-0.3,1.4-0.6,2-0.9c0.9-0.3,1.7-0.6,2.6-0.9
		c0.6-0.3,1.1-0.6,1.7-0.9c0.9-0.3,1.7-0.6,2.6-1.1c0.6-0.3,1.1-0.6,1.7-0.9c0.9-0.3,1.7-0.6,2.3-1.1c0.9-0.3,1.4-0.6,2.3-1.1
		c0.6-0.3,1.1-0.6,1.7-0.9c0.9-0.3,1.7-0.9,2.6-1.1c0.3-0.3,0.9-0.3,1.1-0.6c0.9-0.6,1.7-0.9,2.6-1.4c0.3-0.3,0.6-0.3,0.9-0.6
		c17.2-9.2,26.7-17.8,26.7-17.8l0,0l0,0l4-73.7C452.3,457.8,444.3,457.5,435.7,456.3z M344,433.7c8.3,0,16.3-1.4,22.9-4
		c-5.2,6.9-13.5,11.2-22.9,11.2c-9.2,0-17.5-4.3-22.9-11.2C327.9,432.3,335.7,433.7,344,433.7z M344,507.7c14.3,0,27.8-2.6,39-6.9
		c-8.9,11.8-22.9,19.2-39,19.2s-30.1-7.5-39-19.2C316.2,505.1,329.6,507.7,344,507.7z"/>
	<path fill="#828282" d="M321.3,344.3h45.6c4.3-17.2,0.3-40.7,0.3-40.7l0.9-1.4h-47.9l0.9,1.4C321,303.6,317,327.3,321.3,344.3z"/>
	<path fill="#828282" d="M427.4,302.1c8.3,5.7,12.9,11.5,12.9,11.5c-9.7-5.2-18.3-8.9-25.8-11.5h-36.7l-1.4,1.7
		c12.3,24.4,41,26.4,41,26.4c-30.1,3.2-41.3-15.8-41.3-15.8c1.7,14.9-1.4,34.4-1.4,34.4l0,0c13.2-3.4,31.2-4.6,54.5,1.1
		c13.5,3.4,25.5,9.7,35.8,17.5l3.4-65.6h-41V302.1z"/>
	<path fill="#828282" d="M259.4,350.3c23.2-5.7,41-4.6,54.5-1.1l0,0c0,0-3.2-19.5-1.4-34.4c0,0-11.2,18.9-41.3,15.8
		c0,0,28.7-2,41-26.4l-1.4-1.7h-37c-7.5,2.6-16.3,6.3-25.8,11.5c0,0,4.6-5.7,12.9-11.5h-41l-0.9-14.3l0,0l4.3,80
		C233.9,360,245.9,353.7,259.4,350.3z"/>
	<path fill="#5A5A5A" d="M248,313.6c9.7-5.2,18.3-8.9,25.8-11.5h-12.9C252.5,307.9,248,313.6,248,313.6z"/>
	<path fill="#5A5A5A" d="M376.1,314.7c0,0,11.2,18.9,41.3,15.8c0,0-28.7-2-41-26.4l1.4-1.7h-9.5l-0.9,1.4c0,0,4,23.5-0.3,40.7h-45.6
		c-4.3-17.2-0.3-40.7-0.3-40.7l-0.9-1.4H311l1.4,1.7c-12.3,24.4-41,26.4-41,26.4c30.1,3.2,41.3-15.8,41.3-15.8
		c-1.7,14.9,1.4,34.4,1.4,34.4l0,0c0.3,0,0.3,0,0.6,0.3h59.6c0.3,0,0.3,0,0.6-0.3l0,0C374.7,349.1,377.8,329.6,376.1,314.7z"/>
	<path fill="#5A5A5A" d="M440.3,313.6c0,0-4.6-5.7-12.9-11.5h-13.2C422,304.7,430.5,308.4,440.3,313.6z"/>
	<path fill="#4D4D4D" d="M328.2,406.5c4.6-1.7,10-2.9,16.1-2.9c6,0,11.5,1.1,16.1,2.9c-2.9-4-5.2-8-7.5-11.8h-17.2
		C333.4,398.7,330.8,402.4,328.2,406.5z"/>
	<path fill="#828282" d="M344,417.4c-7.7,0-15.2-1.4-21.5-3.7l0,0c6.3,2.6,13.8,4.9,21.5,4.9c8,0,15.2-2.3,21.5-4.9l0,0
		C359.2,416.2,352,417.4,344,417.4z"/>
	<path fill="#535353" d="M344,417.4c-7.7,0-15.2-1.4-21.5-3.7l0,0c6.3,2.6,13.8,4.9,21.5,4.9c8,0,15.2-2.3,21.5-4.9l0,0
		C359.2,416.2,352,417.4,344,417.4z"/>
	<path fill="#4D4D4D" d="M328.2,406.5c-1.7,2.6-3.4,4.9-5.4,7.2c6.3,2.3,13.5,3.7,21.5,3.7c7.7,0,15.2-1.4,21.5-3.7
		c-2-2.3-3.7-4.9-5.4-7.2c-4.6-1.7-10-2.9-16.1-2.9C338.2,403.6,332.8,404.7,328.2,406.5z"/>
	<path fill="#535353" d="M328.2,406.5c-1.7,2.6-3.4,4.9-5.4,7.2c6.3,2.3,13.5,3.7,21.5,3.7c7.7,0,15.2-1.4,21.5-3.7
		c-2-2.3-3.7-4.9-5.4-7.2c-4.6-1.7-10-2.9-16.1-2.9C338.2,403.6,332.8,404.7,328.2,406.5z"/>
	<path fill="#9E9E9E" d="M344,370.3L344,370.3L344,370.3c-1.1,7.5-4,15.8-8.6,24.4h17.2C348,386.1,345.1,377.5,344,370.3L344,370.3
		L344,370.3z"/>
	<path fill="#676767" d="M344,440.9c9.2,0,17.5-4.3,22.9-11.2c-6.6,2.6-14.3,4-22.9,4c-8.3,0-16.3-1.4-22.9-4
		C326.5,436.3,334.8,440.9,344,440.9z"/>
	<path fill="#676767" d="M344,520c16.1,0,30.1-7.5,39-19.2c-11.2,4.3-24.7,6.9-39,6.9s-27.8-2.6-39-6.9
		C314.2,512.2,328.2,520,344,520z"/>
	<polygon fill="#6E6E6E" points="260.9,302.1 273.8,302.1 310.7,302.1 320.2,302.1 368.1,302.1 377.5,302.1 414.5,302.1 
		427.4,302.1 468.4,302.1 468.4,302.1 469,288.1 219,288.1 219.9,302.1 	"/>
	<path fill="#4D4D4D" d="M307.3,202.1c6.6-13.8,20.6-23.2,37-23.2s30.4,9.5,37,23.2H481l-9.5,55l22.4-128.4
		c0,0-33.5-65.6-148.8-65.6c-140.2,0-150.5,65.6-150.5,65.6L217,257.1l-9.5-55L307.3,202.1L307.3,202.1z"/>
	<path fill="#4D4D4D" d="M381,202.1c2.6,5.4,4,11.2,4,17.5c0,16.6-10,31.2-24.4,37.6h110.1h0.6l9.5-55L381,202.1L381,202.1z"/>
	<path fill="#535353" d="M381,202.1c2.6,5.4,4,11.2,4,17.5c0,16.6-10,31.2-24.4,37.6h110.1h0.6l9.5-55L381,202.1L381,202.1z"/>
	<path fill="#4D4D4D" d="M327.6,257.4c-14.3-6.3-24.4-20.6-24.4-37.6c0-6.3,1.4-12.3,4-17.5h-100l9.5,55h0.6H327.6z"/>
	<path fill="#535353" d="M327.6,257.4c-14.3-6.3-24.4-20.6-24.4-37.6c0-6.3,1.4-12.3,4-17.5h-100l9.5,55h0.6H327.6z"/>
	<path fill="#4D4D4D" d="M173.7,273.7l4.6,14h18.3h14.9h7.5l0,0h250h7.5h33.3l10.3-30.7h-48.7h-0.6H360.6
		c-5.2,2.3-10.6,3.4-16.3,3.4c-5.7,0-11.5-1.1-16.3-3.4H217.6H217h-48.7L173.7,273.7L173.7,273.7z"/>
	<path fill="#4D4D4D" d="M353.7,225.3l7.7,8.9c1.7-2,2.9-4,3.7-6.6L353.7,225.3z"/>
	<path fill="#4D4D4D" d="M385,219.9c0-6.3-1.4-12.3-4-17.5c-6.6-13.8-20.6-23.2-37-23.2c-16.3,0-30.4,9.5-37,23.2
		c-2.6,5.4-4,11.2-4,17.5c0,16.6,10,31.2,24.4,37.6c5.2,2.3,10.6,3.4,16.3,3.4c5.7,0,11.5-1.1,16.3-3.4
		C374.9,250.8,385,236.5,385,219.9z M344,255.7c-19.8,0-35.8-16.1-35.8-35.8S324.2,184,344,184c19.8,0,35.8,16.1,35.8,35.8
		C380.1,239.6,364,255.7,344,255.7z"/>
	<path fill="#4D4D4D" d="M344,188.6c-17.2,0-31.2,14-31.2,31.2s14,31.2,31.2,31.2c17.2,0,31.2-14,31.2-31.2S361.2,188.6,344,188.6z
		 M344,245.7c-14.3,0-26.1-11.8-26.1-25.8c0-14.3,11.8-26.1,26.1-26.1c14.3,0,26.1,11.8,26.1,26.1
		C370.1,234.2,358.3,245.7,344,245.7z"/>
	<path fill="#4D4D4D" d="M338.8,241.6c1.7,0.3,3.4,0.6,5.2,0.6c0.9,0,1.4,0,2.3,0l-3.2-11.2L338.8,241.6z"/>
	<path fill="#4D4D4D" d="M342.8,208.7l2.3-11.5c-0.3,0-0.6,0-1.1,0c-2.3,0-4.3,0.3-6.3,0.9L342.8,208.7z"/>
	<path fill="#4D4D4D" d="M350.6,210.7l9.5-6.9c-1.7-1.7-3.7-3.2-6-4.3L350.6,210.7z"/>
	<path fill="#4D4D4D" d="M346.8,209l6.3-9.7c-2.3-0.9-4.6-1.7-7.2-1.7L346.8,209z"/>
	<path fill="#4D4D4D" d="M338.8,209.8l-2-11.5c-2.3,0.9-4.6,2-6.6,3.4L338.8,209.8z"/>
	<path fill="#4D4D4D" d="M364.6,210.7c-1.1-2.3-2.3-4.3-4-6.3l-7.2,9.2L364.6,210.7z"/>
	<path fill="#4D4D4D" d="M355.2,239.3c2.3-1.1,4-2.9,5.7-4.6l-9.7-6.3L355.2,239.3z"/>
	<path fill="#4D4D4D" d="M366.6,218.7c0-2.6-0.6-5.2-1.4-7.2l-10,6L366.6,218.7z"/>
	<path fill="#4D4D4D" d="M329.6,202.4c-2,1.7-3.4,3.4-4.9,5.7l10.9,4.3L329.6,202.4z"/>
	<path fill="#4D4D4D" d="M365.5,227c0.9-2.3,1.1-4.6,1.1-7.2v-0.3l-11.5,2L365.5,227z"/>
	<path fill="#4D4D4D" d="M322.2,225c0.6,2.6,1.4,4.9,2.9,6.9l8.9-7.7L322.2,225z"/>
	<path fill="#4D4D4D" d="M325.3,232.5c1.4,2,3.2,4,5.2,5.4l5.4-10.3L325.3,232.5z"/>
	<path fill="#4D4D4D" d="M331.4,238.5c2,1.4,4.3,2.6,6.9,3.2l1.1-11.5L331.4,238.5z"/>
	<path fill="#4D4D4D" d="M347.1,242.2c2.6-0.3,4.9-1.1,7.2-2.3l-6.9-9.5L347.1,242.2z"/>
	<path fill="#4D4D4D" d="M321.9,216.7c-0.3,1.1-0.3,2-0.3,3.2c0,1.4,0.3,2.9,0.6,4.3l10.9-4L321.9,216.7z"/>
	<path fill="#4D4D4D" d="M324.5,208.7c-1.1,2.3-2,4.6-2.6,7.2l11.8,0.3L324.5,208.7z"/>
	<path fill="#4D4D4D" d="M344,183.7c-19.8,0-35.8,16.1-35.8,35.8s16.1,35.8,35.8,35.8c19.8,0,35.8-16.1,35.8-35.8
		C380.1,200.1,364,183.7,344,183.7z M344,251.1c-17.2,0-31.2-14-31.2-31.2s14-31.2,31.2-31.2c17.2,0,31.2,14,31.2,31.2
		S361.2,251.1,344,251.1z"/>
	<path fill="#535353" d="M344,183.7c-19.8,0-35.8,16.1-35.8,35.8s16.1,35.8,35.8,35.8c19.8,0,35.8-16.1,35.8-35.8
		C380.1,200.1,364,183.7,344,183.7z M344,251.1c-17.2,0-31.2-14-31.2-31.2s14-31.2,31.2-31.2c17.2,0,31.2,14,31.2,31.2
		S361.2,251.1,344,251.1z"/>
	<path fill="#4D4D4D" d="M344,193.8c-14.3,0-26.1,11.8-26.1,26.1s11.8,25.8,26.1,25.8c14.3,0,26.1-11.8,26.1-25.8
		C370.1,205.5,358.3,193.8,344,193.8z M363.2,236.5l-2.6-1.4c-1.7,1.7-3.7,3.4-5.7,4.6l0.9,2.6l-1.7-2.3c-2.3,1.1-4.6,2-7.2,2.3v2.9
		l-0.9-2.9c-0.9,0-1.4,0-2.3,0c-1.7,0-3.4-0.3-5.2-0.6l-1.1,2.6l0.3-2.9c-2.6-0.6-4.9-1.7-6.9-3.2l-2,2l1.4-2.6
		c-2-1.4-3.7-3.4-5.2-5.4l-2.6,1.1l2.3-2c-1.4-2-2.3-4.3-2.9-6.9l-2.9,0.3l2.6-0.9c-0.3-1.4-0.6-2.9-0.6-4.3c0-1.1,0-2,0.3-3.2
		l-2.9-0.9h2.9c0.6-2.6,1.4-4.9,2.6-7.2l-2.3-1.7l2.6,1.1c1.4-2,2.9-4,4.9-5.7l-1.4-2.6l2,2c2-1.4,4.3-2.6,6.6-3.4l-0.6-2.9l1.1,2.6
		c2-0.6,4-0.9,6.3-0.9c0.3,0,0.6,0,1.1,0l0.6-2.9l0.3,2.9c2.6,0.3,4.9,0.9,7.2,1.7l1.7-2.3l-0.9,2.9c2.3,1.1,4.3,2.6,6,4.3l2.3-1.7
		l-1.7,2.3c1.7,1.7,3.2,4,4,6.3l2.9-0.9L364,211c0.9,2.3,1.4,4.9,1.4,7.2l2.9,0.3l-2.9,0.6v0.3c0,2.6-0.3,4.9-1.1,7.2l2.6,1.4
		l-2.9-0.6c-0.9,2.3-2.3,4.6-3.7,6.6L363.2,236.5z"/>
	<path fill="#535353" d="M344,193.8c-14.3,0-26.1,11.8-26.1,26.1s11.8,25.8,26.1,25.8c14.3,0,26.1-11.8,26.1-25.8
		C370.1,205.5,358.3,193.8,344,193.8z M363.2,236.5l-2.6-1.4c-1.7,1.7-3.7,3.4-5.7,4.6l0.9,2.6l-1.7-2.3c-2.3,1.1-4.6,2-7.2,2.3v2.9
		l-0.9-2.9c-0.9,0-1.4,0-2.3,0c-1.7,0-3.4-0.3-5.2-0.6l-1.1,2.6l0.3-2.9c-2.6-0.6-4.9-1.7-6.9-3.2l-2,2l1.4-2.6
		c-2-1.4-3.7-3.4-5.2-5.4l-2.6,1.1l2.3-2c-1.4-2-2.3-4.3-2.9-6.9l-2.9,0.3l2.6-0.9c-0.3-1.4-0.6-2.9-0.6-4.3c0-1.1,0-2,0.3-3.2
		l-2.9-0.9h2.9c0.6-2.6,1.4-4.9,2.6-7.2l-2.3-1.7l2.6,1.1c1.4-2,2.9-4,4.9-5.7l-1.4-2.6l2,2c2-1.4,4.3-2.6,6.6-3.4l-0.6-2.9l1.1,2.6
		c2-0.6,4-0.9,6.3-0.9c0.3,0,0.6,0,1.1,0l0.6-2.9l0.3,2.9c2.6,0.3,4.9,0.9,7.2,1.7l1.7-2.3l-0.9,2.9c2.3,1.1,4.3,2.6,6,4.3l2.3-1.7
		l-1.7,2.3c1.7,1.7,3.2,4,4,6.3l2.9-0.9L364,211c0.9,2.3,1.4,4.9,1.4,7.2l2.9,0.3l-2.9,0.6v0.3c0,2.6-0.3,4.9-1.1,7.2l2.6,1.4
		l-2.9-0.6c-0.9,2.3-2.3,4.6-3.7,6.6L363.2,236.5z"/>
	<path fill="#4D4D4D" d="M365.2,227.6c0-0.3,0.3-0.6,0.3-0.9l-10.3-5.4l11.5-2c0-0.3,0-0.6,0-0.9l-11.5-1.4l10-6
		c0-0.3-0.3-0.6-0.3-0.9l-11.2,2.9l7.2-9.2c-0.3-0.3-0.3-0.3-0.6-0.6l-9.5,6.9l3.4-11.2c-0.3,0-0.6-0.3-0.9-0.3l-6.3,9.7l-0.9-11.8
		c-0.3,0-0.6,0-0.9,0l-2.3,11.5l-5.2-10.6c-0.3,0-0.6,0.3-0.9,0.3l2,11.5l-8.6-8c-0.3,0.3-0.6,0.3-0.6,0.6l6,10l-10.9-4.3
		c0,0.3-0.3,0.6-0.3,0.6l9.2,7.2l-11.8-0.3c0,0.3,0,0.6,0,0.9l11.2,3.4l-10.9,4c0,0.3,0,0.6,0.3,0.9l11.8-0.9l-8.9,7.7
		c0.3,0.3,0.3,0.6,0.6,0.6l10.6-4.9l-5.4,10.3c0.3,0.3,0.3,0.3,0.6,0.6l8-8.6l-1.1,11.5c0.3,0,0.6,0,0.9,0.3l4.6-10.9l3.2,11.2
		c0.3,0,0.6,0,0.9,0l0.3-11.8l6.9,9.5c0.3,0,0.6-0.3,0.9-0.3l-4-10.9l9.7,6.3c0.3-0.3,0.3-0.3,0.6-0.6l-7.7-8.9L365.2,227.6z
		 M344,227.6c-4.3,0-7.7-3.4-7.7-7.7c0-4.3,3.4-7.7,7.7-7.7c4.3,0,7.7,3.4,7.7,7.7C351.7,224.2,348.3,227.6,344,227.6z"/>
	<path fill="#535353" d="M365.2,227.6c0-0.3,0.3-0.6,0.3-0.9l-10.3-5.4l11.5-2c0-0.3,0-0.6,0-0.9l-11.5-1.4l10-6
		c0-0.3-0.3-0.6-0.3-0.9l-11.2,2.9l7.2-9.2c-0.3-0.3-0.3-0.3-0.6-0.6l-9.5,6.9l3.4-11.2c-0.3,0-0.6-0.3-0.9-0.3l-6.3,9.7l-0.9-11.8
		c-0.3,0-0.6,0-0.9,0l-2.3,11.5l-5.2-10.6c-0.3,0-0.6,0.3-0.9,0.3l2,11.5l-8.6-8c-0.3,0.3-0.6,0.3-0.6,0.6l6,10l-10.9-4.3
		c0,0.3-0.3,0.6-0.3,0.6l9.2,7.2l-11.8-0.3c0,0.3,0,0.6,0,0.9l11.2,3.4l-10.9,4c0,0.3,0,0.6,0.3,0.9l11.8-0.9l-8.9,7.7
		c0.3,0.3,0.3,0.6,0.6,0.6l10.6-4.9l-5.4,10.3c0.3,0.3,0.3,0.3,0.6,0.6l8-8.6l-1.1,11.5c0.3,0,0.6,0,0.9,0.3l4.6-10.9l3.2,11.2
		c0.3,0,0.6,0,0.9,0l0.3-11.8l6.9,9.5c0.3,0,0.6-0.3,0.9-0.3l-4-10.9l9.7,6.3c0.3-0.3,0.3-0.3,0.6-0.6l-7.7-8.9L365.2,227.6z
		 M344,227.6c-4.3,0-7.7-3.4-7.7-7.7c0-4.3,3.4-7.7,7.7-7.7c4.3,0,7.7,3.4,7.7,7.7C351.7,224.2,348.3,227.6,344,227.6z"/>
	<path fill="#4D4D4D" d="M354.9,196.6l-1.7,2.3c0.3,0,0.6,0.3,0.9,0.3L354.9,196.6z"/>
	<path fill="#535353" d="M354.9,196.6l-1.7,2.3c0.3,0,0.6,0.3,0.9,0.3L354.9,196.6z"/>
	<path fill="#535353" d="M354.9,196.6l-1.7,2.3c0.3,0,0.6,0.3,0.9,0.3L354.9,196.6z"/>
	<path fill="#4D4D4D" d="M345.7,194.3l-0.6,2.9c0.3,0,0.6,0,0.9,0L345.7,194.3z"/>
	<path fill="#535353" d="M345.7,194.3l-0.6,2.9c0.3,0,0.6,0,0.9,0L345.7,194.3z"/>
	<path fill="#535353" d="M345.7,194.3l-0.6,2.9c0.3,0,0.6,0,0.9,0L345.7,194.3z"/>
	<path fill="#4D4D4D" d="M336.5,195.5l0.6,2.9c0.3,0,0.6-0.3,0.9-0.3L336.5,195.5z"/>
	<path fill="#535353" d="M336.5,195.5l0.6,2.9c0.3,0,0.6-0.3,0.9-0.3L336.5,195.5z"/>
	<path fill="#535353" d="M336.5,195.5l0.6,2.9c0.3,0,0.6-0.3,0.9-0.3L336.5,195.5z"/>
	<path fill="#4D4D4D" d="M330.2,202.1l-2-2l1.4,2.6C329.9,202.4,330.2,202.1,330.2,202.1z"/>
	<path fill="#535353" d="M330.2,202.1l-2-2l1.4,2.6C329.9,202.4,330.2,202.1,330.2,202.1z"/>
	<path fill="#535353" d="M330.2,202.1l-2-2l1.4,2.6C329.9,202.4,330.2,202.1,330.2,202.1z"/>
	<path fill="#4D4D4D" d="M347.1,245.1v-2.9c-0.3,0-0.6,0-0.9,0L347.1,245.1z"/>
	<path fill="#535353" d="M347.1,245.1v-2.9c-0.3,0-0.6,0-0.9,0L347.1,245.1z"/>
	<path fill="#535353" d="M347.1,245.1v-2.9c-0.3,0-0.6,0-0.9,0L347.1,245.1z"/>
	<path fill="#4D4D4D" d="M368.1,228.2l-2.6-1.4c0,0.3-0.3,0.6-0.3,0.9L368.1,228.2z"/>
	<path fill="#535353" d="M368.1,228.2l-2.6-1.4c0,0.3-0.3,0.6-0.3,0.9L368.1,228.2z"/>
	<path fill="#535353" d="M368.1,228.2l-2.6-1.4c0,0.3-0.3,0.6-0.3,0.9L368.1,228.2z"/>
	<path fill="#4D4D4D" d="M356,242.2l-0.9-2.6c-0.3,0-0.6,0.3-0.9,0.3L356,242.2z"/>
	<path fill="#535353" d="M356,242.2l-0.9-2.6c-0.3,0-0.6,0.3-0.9,0.3L356,242.2z"/>
	<path fill="#535353" d="M356,242.2l-0.9-2.6c-0.3,0-0.6,0.3-0.9,0.3L356,242.2z"/>
	<path fill="#4D4D4D" d="M363.2,236.5l-2-2.3c-0.3,0.3-0.3,0.3-0.6,0.6L363.2,236.5z"/>
	<path fill="#535353" d="M363.2,236.5l-2-2.3c-0.3,0.3-0.3,0.3-0.6,0.6L363.2,236.5z"/>
	<path fill="#535353" d="M363.2,236.5l-2-2.3c-0.3,0.3-0.3,0.3-0.6,0.6L363.2,236.5z"/>
	<path fill="#4D4D4D" d="M367.5,209.8l-2.9,0.9c0,0.3,0.3,0.6,0.3,0.9L367.5,209.8z"/>
	<path fill="#535353" d="M367.5,209.8l-2.9,0.9c0,0.3,0.3,0.6,0.3,0.9L367.5,209.8z"/>
	<path fill="#535353" d="M367.5,209.8l-2.9,0.9c0,0.3,0.3,0.6,0.3,0.9L367.5,209.8z"/>
	<path fill="#4D4D4D" d="M322.8,233.6l2.6-1.1c-0.3-0.3-0.3-0.6-0.6-0.6L322.8,233.6z"/>
	<path fill="#535353" d="M322.8,233.6l2.6-1.1c-0.3-0.3-0.3-0.6-0.6-0.6L322.8,233.6z"/>
	<path fill="#535353" d="M322.8,233.6l2.6-1.1c-0.3-0.3-0.3-0.6-0.6-0.6L322.8,233.6z"/>
	<path fill="#4D4D4D" d="M329.4,240.5l2-2c-0.3-0.3-0.6-0.3-0.6-0.6L329.4,240.5z"/>
	<path fill="#535353" d="M329.4,240.5l2-2c-0.3-0.3-0.6-0.3-0.6-0.6L329.4,240.5z"/>
	<path fill="#535353" d="M329.4,240.5l2-2c-0.3-0.3-0.6-0.3-0.6-0.6L329.4,240.5z"/>
	<path fill="#4D4D4D" d="M322.2,207l2.3,1.7c0-0.3,0.3-0.6,0.3-0.6L322.2,207z"/>
	<path fill="#535353" d="M322.2,207l2.3,1.7c0-0.3,0.3-0.6,0.3-0.6L322.2,207z"/>
	<path fill="#535353" d="M322.2,207l2.3,1.7c0-0.3,0.3-0.6,0.3-0.6L322.2,207z"/>
	<path fill="#4D4D4D" d="M362.3,202.1l-2.3,1.7c0.3,0.3,0.3,0.3,0.6,0.6L362.3,202.1z"/>
	<path fill="#535353" d="M362.3,202.1l-2.3,1.7c0.3,0.3,0.3,0.3,0.6,0.6L362.3,202.1z"/>
	<path fill="#535353" d="M362.3,202.1l-2.3,1.7c0.3,0.3,0.3,0.3,0.6,0.6L362.3,202.1z"/>
	<path fill="#4D4D4D" d="M319.3,225l2.9-0.3c0-0.3,0-0.6-0.3-0.9L319.3,225z"/>
	<path fill="#535353" d="M319.3,225l2.9-0.3c0-0.3,0-0.6-0.3-0.9L319.3,225z"/>
	<path fill="#535353" d="M319.3,225l2.9-0.3c0-0.3,0-0.6-0.3-0.9L319.3,225z"/>
	<path fill="#4D4D4D" d="M338,244.5l1.1-2.6c-0.3,0-0.6,0-0.9-0.3L338,244.5z"/>
	<path fill="#535353" d="M338,244.5l1.1-2.6c-0.3,0-0.6,0-0.9-0.3L338,244.5z"/>
	<path fill="#535353" d="M338,244.5l1.1-2.6c-0.3,0-0.6,0-0.9-0.3L338,244.5z"/>
	<path fill="#4D4D4D" d="M369.5,219l-2.9-0.3c0,0.3,0,0.6,0,0.9L369.5,219z"/>
	<path fill="#535353" d="M369.5,219l-2.9-0.3c0,0.3,0,0.6,0,0.9L369.5,219z"/>
	<path fill="#535353" d="M369.5,219l-2.9-0.3c0,0.3,0,0.6,0,0.9L369.5,219z"/>
	<path fill="#4D4D4D" d="M319,215.8l2.9,0.9c0-0.3,0-0.6,0-0.9H319z"/>
	<path fill="#535353" d="M319,215.8l2.9,0.9c0-0.3,0-0.6,0-0.9H319z"/>
	<path fill="#535353" d="M319,215.8l2.9,0.9c0-0.3,0-0.6,0-0.9H319z"/>
	<path fill="#4D4D4D" d="M344,212.1c-4.3,0-7.7,3.4-7.7,7.7c0,4.3,3.4,7.7,7.7,7.7c4.3,0,7.7-3.4,7.7-7.7
		C351.7,215.6,348.3,212.1,344,212.1z"/>
	<path fill="#535353" d="M233,542.9L233,542.9c2.3-1.1,4.9-2.3,7.2-3.2c-5.7-5.2-8-8.6-8-8.6L233,542.9L233,542.9z"/>
	<path fill="#535353" d="M455.2,543.2l0.6-12c0,0-3.4,3.2-10,7.7C448.9,540,452,541.5,455.2,543.2z"/>
	<path fill="#4D4D4D" d="M429.1,548.6c-0.3,0.3-0.6,0.3-0.9,0.6c-0.9,0.6-1.7,0.9-2.6,1.4c-0.3,0.3-0.9,0.3-1.1,0.6
		c-0.9,0.3-1.7,0.9-2.6,1.1c-0.6,0.3-1.1,0.6-1.7,0.9c-0.9,0.3-1.4,0.6-2.3,1.1c-0.9,0.3-1.4,0.6-2.3,1.1c-0.6,0.3-1.1,0.6-1.7,0.9
		c-0.9,0.3-1.7,0.6-2.6,1.1c-0.6,0.3-1.1,0.6-1.7,0.9c-0.9,0.3-1.7,0.6-2.6,0.9c-0.6,0.3-1.4,0.6-2,0.9c-0.9,0.3-1.7,0.6-2.9,0.9
		c-0.6,0.3-1.4,0.6-2,0.6c-1.1,0.3-2,0.6-3.2,0.9c-0.6,0.3-1.1,0.3-1.7,0.6c-1.1,0.3-2,0.6-3.2,0.9c-0.6,0.3-1.4,0.3-2,0.6
		c-1.1,0.3-2.3,0.6-3.4,0.9c-0.6,0.3-1.1,0.3-2,0.6c-1.1,0.3-2.3,0.6-3.7,0.9c-0.6,0-1.1,0.3-1.7,0.3c-1.1,0.3-2.6,0.6-3.7,0.6
		c-0.6,0-1.1,0.3-1.7,0.3c-1.1,0.3-2.3,0.3-3.4,0.6c-0.9,0-1.7,0.3-2.6,0.3c-1.1,0-2,0.3-3.2,0.3c-0.9,0-2,0.3-2.9,0.3
		c-1.4,0.3-2.9,0.3-4.3,0.3c-0.6,0-1.1,0-1.7,0.3c-2,0-4,0.3-6,0.3c-0.3,0-0.3,0-0.6,0c-2.3,0-4.3,0-6.6,0c-5.2,0-10.3-0.3-15.2-0.6
		c-1.4,0-3.2-0.3-4.6-0.3c-0.9,0-1.7,0-2.6-0.3c-1.4,0-2.6-0.3-4-0.3c-0.9,0-2-0.3-2.9-0.3c-1.1,0-2-0.3-3.2-0.6
		c-1.1-0.3-2.3-0.3-3.2-0.6c-1.1-0.3-2-0.3-3.2-0.6c-0.9-0.3-2-0.3-2.9-0.6c-0.9-0.3-1.7-0.3-2.6-0.6c-1.1-0.3-2.3-0.3-3.2-0.6
		c-0.9-0.3-2-0.6-2.9-0.6c-0.9-0.3-1.7-0.3-2.6-0.6c-1.1-0.3-2.3-0.6-3.4-0.9c-0.6-0.3-1.1-0.3-1.7-0.6c-1.1-0.3-2.3-0.6-3.2-1.1
		c-0.6-0.3-1.1-0.3-1.7-0.6c-0.9-0.3-1.7-0.6-2.6-0.9c-0.6-0.3-1.4-0.6-2-0.6c-0.9-0.3-1.7-0.6-2.6-0.9c-0.6-0.3-1.1-0.6-1.7-0.6
		c-1.1-0.3-2-0.9-2.9-1.1c-0.3-0.3-0.9-0.3-1.1-0.6c-0.9-0.3-1.7-0.9-2.6-1.1c-0.3-0.3-0.9-0.3-1.1-0.6c-0.9-0.3-1.7-0.9-2.3-1.1
		c-0.3-0.3-0.9-0.3-1.1-0.6c-0.9-0.3-1.4-0.9-2.3-1.1c-0.3-0.3-0.6-0.3-0.9-0.6c-0.9-0.6-1.7-0.9-2.6-1.4c-0.3,0-0.3-0.3-0.6-0.3
		c-0.9-0.6-1.7-1.1-2.6-1.7l0,0c-0.9-0.6-1.7-1.1-2.6-1.7l0,0c-0.9-0.6-1.4-1.1-2.3-1.7c0,0,0,0-0.3,0c-1.7-1.4-3.2-2.6-4.6-3.7
		c-2.6,1.1-4.9,2.3-7.2,3.4l0,0c0,0,0,0-0.3,0v0.3l2.3,43.3c0,0,25.2,38.1,106.9,38.1c68.8,0,110.6-38.1,110.6-38.1l2.3-43.3
		c-3.2-1.4-6.3-2.9-9.5-4.3C441.4,541.5,436,545.2,429.1,548.6z M344,623.7c-2-7.2-3.2-16.6-3.2-26.7c0-10,1.1-19.5,3.2-26.7
		c2,7.2,3.2,16.6,3.2,26.7C347.4,607.4,346.3,616.6,344,623.7z M364,606.5c-2.6,0-4.9-1.1-6.3-3.2c-2-1.4-3.2-3.7-3.2-6.3
		c0-4.3,3.4-7.7,7.7-7.7c2.6,0,4.9,1.1,6.3,3.2c2,1.4,3.2,3.7,3.2,6.3C371.8,603.1,368.3,606.5,364,606.5z"/>
	<path fill="#535353" d="M429.1,548.6c-0.3,0.3-0.6,0.3-0.9,0.6c-0.9,0.6-1.7,0.9-2.6,1.4c-0.3,0.3-0.9,0.3-1.1,0.6
		c-0.9,0.3-1.7,0.9-2.6,1.1c-0.6,0.3-1.1,0.6-1.7,0.9c-0.9,0.3-1.4,0.6-2.3,1.1c-0.9,0.3-1.4,0.6-2.3,1.1c-0.6,0.3-1.1,0.6-1.7,0.9
		c-0.9,0.3-1.7,0.6-2.6,1.1c-0.6,0.3-1.1,0.6-1.7,0.9c-0.9,0.3-1.7,0.6-2.6,0.9c-0.6,0.3-1.4,0.6-2,0.9c-0.9,0.3-1.7,0.6-2.9,0.9
		c-0.6,0.3-1.4,0.6-2,0.6c-1.1,0.3-2,0.6-3.2,0.9c-0.6,0.3-1.1,0.3-1.7,0.6c-1.1,0.3-2,0.6-3.2,0.9c-0.6,0.3-1.4,0.3-2,0.6
		c-1.1,0.3-2.3,0.6-3.4,0.9c-0.6,0.3-1.1,0.3-2,0.6c-1.1,0.3-2.3,0.6-3.7,0.9c-0.6,0-1.1,0.3-1.7,0.3c-1.1,0.3-2.6,0.6-3.7,0.6
		c-0.6,0-1.1,0.3-1.7,0.3c-1.1,0.3-2.3,0.3-3.4,0.6c-0.9,0-1.7,0.3-2.6,0.3c-1.1,0-2,0.3-3.2,0.3c-0.9,0-2,0.3-2.9,0.3
		c-1.4,0.3-2.9,0.3-4.3,0.3c-0.6,0-1.1,0-1.7,0.3c-2,0-4,0.3-6,0.3c-0.3,0-0.3,0-0.6,0c-2.3,0-4.3,0-6.6,0c-5.2,0-10.3-0.3-15.2-0.6
		c-1.4,0-3.2-0.3-4.6-0.3c-0.9,0-1.7,0-2.6-0.3c-1.4,0-2.6-0.3-4-0.3c-0.9,0-2-0.3-2.9-0.3c-1.1,0-2-0.3-3.2-0.6
		c-1.1-0.3-2.3-0.3-3.2-0.6c-1.1-0.3-2-0.3-3.2-0.6c-0.9-0.3-2-0.3-2.9-0.6c-0.9-0.3-1.7-0.3-2.6-0.6c-1.1-0.3-2.3-0.3-3.2-0.6
		c-0.9-0.3-2-0.6-2.9-0.6c-0.9-0.3-1.7-0.3-2.6-0.6c-1.1-0.3-2.3-0.6-3.4-0.9c-0.6-0.3-1.1-0.3-1.7-0.6c-1.1-0.3-2.3-0.6-3.2-1.1
		c-0.6-0.3-1.1-0.3-1.7-0.6c-0.9-0.3-1.7-0.6-2.6-0.9c-0.6-0.3-1.4-0.6-2-0.6c-0.9-0.3-1.7-0.6-2.6-0.9c-0.6-0.3-1.1-0.6-1.7-0.6
		c-1.1-0.3-2-0.9-2.9-1.1c-0.3-0.3-0.9-0.3-1.1-0.6c-0.9-0.3-1.7-0.9-2.6-1.1c-0.3-0.3-0.9-0.3-1.1-0.6c-0.9-0.3-1.7-0.9-2.3-1.1
		c-0.3-0.3-0.9-0.3-1.1-0.6c-0.9-0.3-1.4-0.9-2.3-1.1c-0.3-0.3-0.6-0.3-0.9-0.6c-0.9-0.6-1.7-0.9-2.6-1.4c-0.3,0-0.3-0.3-0.6-0.3
		c-0.9-0.6-1.7-1.1-2.6-1.7l0,0c-0.9-0.6-1.7-1.1-2.6-1.7l0,0c-0.9-0.6-1.4-1.1-2.3-1.7c0,0,0,0-0.3,0c-1.7-1.4-3.2-2.6-4.6-3.7
		c-2.6,1.1-4.9,2.3-7.2,3.4l0,0c0,0,0,0-0.3,0v0.3l2.3,43.3c0,0,25.2,38.1,106.9,38.1c68.8,0,110.6-38.1,110.6-38.1l2.3-43.3
		c-3.2-1.4-6.3-2.9-9.5-4.3C441.4,541.5,436,545.2,429.1,548.6z M344,623.7c-2-7.2-3.2-16.6-3.2-26.7c0-10,1.1-19.5,3.2-26.7
		c2,7.2,3.2,16.6,3.2,26.7C347.4,607.4,346.3,616.6,344,623.7z M364,606.5c-2.6,0-4.9-1.1-6.3-3.2c-2-1.4-3.2-3.7-3.2-6.3
		c0-4.3,3.4-7.7,7.7-7.7c2.6,0,4.9,1.1,6.3,3.2c2,1.4,3.2,3.7,3.2,6.3C371.8,603.1,368.3,606.5,364,606.5z"/>
	<path fill="#828282" d="M429.1,548.6c6.9-3.7,12.3-7.2,16.6-10c6.6-4.6,10-7.7,10-7.7l0,0C455.8,530.9,446.3,539.5,429.1,548.6z"/>
	<path fill="#535353" d="M429.1,548.6c6.9-3.7,12.3-7.2,16.6-10c6.6-4.6,10-7.7,10-7.7l0,0C455.8,530.9,446.3,539.5,429.1,548.6z"/>
	<path fill="#828282" d="M240.5,539.5c1.4,1.1,2.9,2.6,4.6,3.7c-8.9-6.9-12.6-12.3-12.6-12.3S234.8,534.6,240.5,539.5z"/>
	<path fill="#535353" d="M240.5,539.5c1.4,1.1,2.9,2.6,4.6,3.7c-8.9-6.9-12.6-12.3-12.6-12.3S234.8,534.6,240.5,539.5z"/>
	<path fill="#828282" d="M303.9,567c1.1,0.3,2,0.3,3.2,0.6C305.9,567.3,305,567.3,303.9,567z"/>
	<path fill="#535353" d="M303.9,567c1.1,0.3,2,0.3,3.2,0.6C305.9,567.3,305,567.3,303.9,567z"/>
	<path fill="#828282" d="M286.4,563c1.1,0.3,2.3,0.6,3.4,0.9C288.4,563.5,287.5,563.3,286.4,563z"/>
	<path fill="#535353" d="M286.4,563c1.1,0.3,2.3,0.6,3.4,0.9C288.4,563.5,287.5,563.3,286.4,563z"/>
	<path fill="#828282" d="M399.9,561c0.6-0.3,1.4-0.6,2-0.6C401.3,560.7,400.5,560.7,399.9,561z"/>
	<path fill="#535353" d="M399.9,561c0.6-0.3,1.4-0.6,2-0.6C401.3,560.7,400.5,560.7,399.9,561z"/>
	<path fill="#828282" d="M292.4,564.7c0.9,0.3,1.7,0.6,2.9,0.6C294.1,565,293.2,564.7,292.4,564.7z"/>
	<path fill="#535353" d="M292.4,564.7c0.9,0.3,1.7,0.6,2.9,0.6C294.1,565,293.2,564.7,292.4,564.7z"/>
	<path fill="#828282" d="M425.4,550.6c0.9-0.6,1.7-0.9,2.6-1.4C427.4,549.5,426.5,550.1,425.4,550.6z"/>
	<path fill="#535353" d="M425.4,550.6c0.9-0.6,1.7-0.9,2.6-1.4C427.4,549.5,426.5,550.1,425.4,550.6z"/>
	<path fill="#828282" d="M267.7,556.4c0.9,0.3,2,0.9,2.9,1.1C269.5,557.2,268.6,557,267.7,556.4z"/>
	<path fill="#535353" d="M267.7,556.4c0.9,0.3,2,0.9,2.9,1.1C269.5,557.2,268.6,557,267.7,556.4z"/>
	<path fill="#828282" d="M272.3,558.4c0.9,0.3,1.7,0.6,2.6,0.9C274,559,273.2,558.7,272.3,558.4z"/>
	<path fill="#535353" d="M272.3,558.4c0.9,0.3,1.7,0.6,2.6,0.9C274,559,273.2,558.7,272.3,558.4z"/>
	<path fill="#828282" d="M264,554.7c0.9,0.3,1.7,0.9,2.6,1.1C265.7,555.5,264.9,555.2,264,554.7z"/>
	<path fill="#535353" d="M264,554.7c0.9,0.3,1.7,0.9,2.6,1.1C265.7,555.5,264.9,555.2,264,554.7z"/>
	<path fill="#828282" d="M276.9,560.1c0.9,0.3,1.7,0.6,2.6,0.9C278.6,560.7,277.8,560.4,276.9,560.1z"/>
	<path fill="#535353" d="M276.9,560.1c0.9,0.3,1.7,0.6,2.6,0.9C278.6,560.7,277.8,560.4,276.9,560.1z"/>
	<path fill="#828282" d="M281.2,561.5c1.1,0.3,2,0.6,3.2,1.1C283.5,562.1,282.4,561.8,281.2,561.5z"/>
	<path fill="#535353" d="M281.2,561.5c1.1,0.3,2,0.6,3.2,1.1C283.5,562.1,282.4,561.8,281.2,561.5z"/>
	<path fill="#828282" d="M298.4,565.8c0.9,0.3,1.7,0.3,2.6,0.6C300.1,566.4,299.3,566.1,298.4,565.8z"/>
	<path fill="#535353" d="M298.4,565.8c0.9,0.3,1.7,0.3,2.6,0.6C300.1,566.4,299.3,566.1,298.4,565.8z"/>
	<path fill="#828282" d="M384.4,565.3c0.6-0.3,1.1-0.3,2-0.6C385.8,565,385.3,565.3,384.4,565.3z"/>
	<path fill="#535353" d="M384.4,565.3c0.6-0.3,1.1-0.3,2-0.6C385.8,565,385.3,565.3,384.4,565.3z"/>
	<path fill="#828282" d="M379,566.4c0.6,0,1.1-0.3,1.7-0.3C380.1,566.1,379.5,566.4,379,566.4z"/>
	<path fill="#535353" d="M379,566.4c0.6,0,1.1-0.3,1.7-0.3C380.1,566.1,379.5,566.4,379,566.4z"/>
	<path fill="#828282" d="M389.8,563.8c0.6-0.3,1.4-0.3,2-0.6C391.3,563.5,390.4,563.8,389.8,563.8z"/>
	<path fill="#535353" d="M389.8,563.8c0.6-0.3,1.4-0.3,2-0.6C391.3,563.5,390.4,563.8,389.8,563.8z"/>
	<path fill="#828282" d="M413.6,556.1c0.6-0.3,1.1-0.6,1.7-0.9C414.8,555.5,414.2,555.8,413.6,556.1z"/>
	<path fill="#535353" d="M413.6,556.1c0.6-0.3,1.1-0.6,1.7-0.9C414.8,555.5,414.2,555.8,413.6,556.1z"/>
	<path fill="#828282" d="M395,562.4c0.6-0.3,1.1-0.3,1.7-0.6C396.2,562.1,395.6,562.4,395,562.4z"/>
	<path fill="#535353" d="M395,562.4c0.6-0.3,1.1-0.3,1.7-0.6C396.2,562.1,395.6,562.4,395,562.4z"/>
	<path fill="#828282" d="M373.2,567.6c0.6,0,1.1-0.3,1.7-0.3C374.7,567.3,373.8,567.3,373.2,567.6z"/>
	<path fill="#535353" d="M373.2,567.6c0.6,0,1.1-0.3,1.7-0.3C374.7,567.3,373.8,567.3,373.2,567.6z"/>
	<path fill="#828282" d="M361.5,569c0.9,0,2-0.3,2.9-0.3C363.5,569,362.3,569,361.5,569z"/>
	<path fill="#535353" d="M361.5,569c0.9,0,2-0.3,2.9-0.3C363.5,569,362.3,569,361.5,569z"/>
	<path fill="#828282" d="M348.9,569.9c0.3,0,0.3,0,0.6,0C349.1,569.9,348.9,569.9,348.9,569.9z"/>
	<path fill="#535353" d="M348.9,569.9c0.3,0,0.3,0,0.6,0C349.1,569.9,348.9,569.9,348.9,569.9z"/>
	<path fill="#828282" d="M322.5,569.3c1.4,0,3.2,0.3,4.6,0.3C325.6,569.6,324.2,569.3,322.5,569.3z"/>
	<path fill="#535353" d="M322.5,569.3c1.4,0,3.2,0.3,4.6,0.3C325.6,569.6,324.2,569.3,322.5,569.3z"/>
	<path fill="#828282" d="M316.2,568.7c1.4,0,2.6,0.3,4,0.3C318.8,569,317.6,568.7,316.2,568.7z"/>
	<path fill="#535353" d="M316.2,568.7c1.4,0,2.6,0.3,4,0.3C318.8,569,317.6,568.7,316.2,568.7z"/>
	<path fill="#828282" d="M355.2,569.6c0.6,0,1.1,0,1.7-0.3C356.3,569.6,355.7,569.6,355.2,569.6z"/>
	<path fill="#535353" d="M355.2,569.6c0.6,0,1.1,0,1.7-0.3C356.3,569.6,355.7,569.6,355.2,569.6z"/>
	<path fill="#828282" d="M367.5,568.4c0.9,0,1.7-0.3,2.6-0.3C369.2,568.1,368.3,568.4,367.5,568.4z"/>
	<path fill="#535353" d="M367.5,568.4c0.9,0,1.7-0.3,2.6-0.3C369.2,568.1,368.3,568.4,367.5,568.4z"/>
	<path fill="#828282" d="M310.2,567.8c1.1,0.3,2,0.3,3.2,0.6C312.4,568.1,311.3,568.1,310.2,567.8z"/>
	<path fill="#535353" d="M310.2,567.8c1.1,0.3,2,0.3,3.2,0.6C312.4,568.1,311.3,568.1,310.2,567.8z"/>
	<path fill="#828282" d="M253.4,548.9c0.9,0.6,1.7,0.9,2.6,1.4C254.8,550.1,254.3,549.5,253.4,548.9z"/>
	<path fill="#535353" d="M253.4,548.9c0.9,0.6,1.7,0.9,2.6,1.4C254.8,550.1,254.3,549.5,253.4,548.9z"/>
	<path fill="#828282" d="M245.1,543.5c0.6,0.6,1.4,1.1,2.3,1.7C246.5,544.6,245.9,544.1,245.1,543.5z"/>
	<path fill="#535353" d="M245.1,543.5c0.6,0.6,1.4,1.1,2.3,1.7C246.5,544.6,245.9,544.1,245.1,543.5z"/>
	<path fill="#828282" d="M250,546.9c0.9,0.6,1.7,1.1,2.6,1.7C252,548.1,250.8,547.5,250,546.9z"/>
	<path fill="#535353" d="M250,546.9c0.9,0.6,1.7,1.1,2.6,1.7C252,548.1,250.8,547.5,250,546.9z"/>
	<path fill="#828282" d="M260.3,552.9c0.9,0.3,1.7,0.9,2.3,1.1C261.7,553.8,261.1,553.2,260.3,552.9z"/>
	<path fill="#535353" d="M260.3,552.9c0.9,0.3,1.7,0.9,2.3,1.1C261.7,553.8,261.1,553.2,260.3,552.9z"/>
	<path fill="#828282" d="M421.7,552.4c0.9-0.3,1.7-0.9,2.6-1.1C423.4,551.5,422.5,552.1,421.7,552.4z"/>
	<path fill="#535353" d="M421.7,552.4c0.9-0.3,1.7-0.9,2.6-1.1C423.4,551.5,422.5,552.1,421.7,552.4z"/>
	<path fill="#828282" d="M256.8,550.9c0.9,0.3,1.4,0.9,2.3,1.1C258.3,551.8,257.7,551.5,256.8,550.9z"/>
	<path fill="#535353" d="M256.8,550.9c0.9,0.3,1.4,0.9,2.3,1.1C258.3,551.8,257.7,551.5,256.8,550.9z"/>
	<path fill="#828282" d="M409.3,557.8c0.6-0.3,1.1-0.6,1.7-0.9C410.5,557.2,409.9,557.5,409.3,557.8z"/>
	<path fill="#535353" d="M409.3,557.8c0.6-0.3,1.1-0.6,1.7-0.9C410.5,557.2,409.9,557.5,409.3,557.8z"/>
	<path fill="#828282" d="M417.7,554.1c0.9-0.3,1.4-0.6,2.3-1.1C419.4,553.5,418.5,553.8,417.7,554.1z"/>
	<path fill="#535353" d="M417.7,554.1c0.9-0.3,1.4-0.6,2.3-1.1C419.4,553.5,418.5,553.8,417.7,554.1z"/>
	<path fill="#828282" d="M404.8,559.2c0.6-0.3,1.4-0.6,2-0.9C405.9,559,405.3,559.2,404.8,559.2z"/>
	<path fill="#535353" d="M404.8,559.2c0.6-0.3,1.4-0.6,2-0.9C405.9,559,405.3,559.2,404.8,559.2z"/>
	<path fill="#828282" d="M247.4,545.2c0.9,0.6,1.7,1.1,2.6,1.7C249.1,546.3,248.2,545.8,247.4,545.2z"/>
	<path fill="#535353" d="M247.4,545.2c0.9,0.6,1.7,1.1,2.6,1.7C249.1,546.3,248.2,545.8,247.4,545.2z"/>
	<path fill="#4D4D4D" d="M340.8,597.1c0,10,1.1,19.5,3.2,26.7c2-7.2,3.2-16.6,3.2-26.7c0-10-1.1-19.5-3.2-26.7
		C342,577.6,340.8,587.1,340.8,597.1z"/>
	<path fill="#4D4D4D" d="M368.3,592.8c0.9,1.1,1.4,2.9,1.4,4.6c0,4.3-3.4,7.7-7.7,7.7c-1.7,0-3.2-0.6-4.6-1.4c1.4,2,3.7,3.2,6.3,3.2
		c4.3,0,7.7-3.4,7.7-7.7C371.8,596.2,370.4,593.9,368.3,592.8z"/>
	<path fill="#535353" d="M368.3,592.8c0.9,1.1,1.4,2.9,1.4,4.6c0,4.3-3.4,7.7-7.7,7.7c-1.7,0-3.2-0.6-4.6-1.4c1.4,2,3.7,3.2,6.3,3.2
		c4.3,0,7.7-3.4,7.7-7.7C371.8,596.2,370.4,593.9,368.3,592.8z"/>
	<path fill="#4D4D4D" d="M368.3,592.8c0.9,1.1,1.4,2.9,1.4,4.6c0,4.3-3.4,7.7-7.7,7.7c-1.7,0-3.2-0.6-4.6-1.4c1.4,2,3.7,3.2,6.3,3.2
		c4.3,0,7.7-3.4,7.7-7.7C371.8,596.2,370.4,593.9,368.3,592.8z"/>
	<path fill="#9E9E9E" d="M370.1,597.1c0-1.7-0.6-3.2-1.4-4.6c-1.4-2-3.7-3.2-6.3-3.2c-4.3,0-7.7,3.4-7.7,7.7c0,2.6,1.1,4.9,3.2,6.3
		c1.1,0.9,2.9,1.4,4.6,1.4C366.6,604.8,370.1,601.4,370.1,597.1z"/>
	<path fill="#757575" d="M387,689.4c0-1.7-0.3-3.2-0.6-4.6c-2-6.3-8-11.2-14.9-11.2H317c-7.2,0-12.9,4.6-14.9,11.2
		c-0.6,1.4-0.6,2.9-0.6,4.6v3.4v27.8c6.6,0.6,13.2,1.1,19.8,1.1v-26.4c0-1.7,1.1-2.9,2.9-2.9h40.1c1.7,0,2.9,1.1,2.9,2.9v23.5
		c6.6-0.9,13.5-2.3,19.8-3.7v-22.6V689.4z"/>
	<path fill="#676767" d="M344,365.8c0,1.4,0,3.2-0.3,4.6l0,0h0.3l0,0l0,0C344.3,368.6,344,367.2,344,365.8c0,0,9.2-11.2,29.8-16.6
		h-59.6C334.8,354.6,344,365.8,344,365.8z"/>
	<path fill="#4D4D4D" d="M217.6,374.1c-0.6,0-1.1,0-1.7,0c-31,26.9-46.7,64.8-46.7,64.8s22.4,16.6,59.1,18.6l-4.6-84
		C221.9,373.8,219.9,374.1,217.6,374.1z"/>
	<path fill="#828282" d="M319,412.5c-9.2-4-15.2-10.6-16.3-17.8l0,0c0-0.6-0.3-1.4-0.3-2c0-12.9,16.6-23.5,37.8-24.7l-26.7-18.6
		c-13.2-3.4-31.2-4.6-54.5,1.1c-13.5,3.4-25.5,9.7-35.8,17.5c-2.6,2-5.2,4-7.5,6c0.6,0,1.1,0,1.7,0c2,0,4-0.3,6-0.6l4.6,84
		c7.5,0.3,15.5,0.3,24.1-0.9c28.1-3.7,53.3-21.8,69.9-42.4C321.3,413.3,320.2,413.1,319,412.5L319,412.5z"/>
	<path fill="#4D4D4D" d="M319,412.5c-9.2-4-15.2-10.6-16.3-17.8l0,0c0-0.6-0.3-1.4-0.3-2c0-12.9,16.6-23.5,37.8-24.7l-26.7-18.6
		c-13.2-3.4-31.2-4.6-54.5,1.1c-13.5,3.4-25.5,9.7-35.8,17.5c-2.6,2-5.2,4-7.5,6c0.6,0,1.1,0,1.7,0c2,0,4-0.3,6-0.6l4.6,84
		c7.5,0.3,15.5,0.3,24.1-0.9c28.1-3.7,53.3-21.8,69.9-42.4C321.3,413.3,320.2,413.1,319,412.5L319,412.5z"/>
	<path fill="#5A5A5A" d="M340.3,367.8l-26.4-18.6h0.3c-0.3,0-0.3,0-0.6-0.3L340.3,367.8L340.3,367.8z"/>
	<path fill="#4D4D4D" d="M340.3,367.8l-26.4-18.6h0.3c-0.3,0-0.3,0-0.6-0.3L340.3,367.8L340.3,367.8z"/>
	<path fill="#4D4D4D" d="M335.4,394.7h-32.7c1.1,7.2,7.2,13.5,16.3,17.8c2.3-2.3,5.4-4.3,9.2-5.7
		C330.8,402.4,333.4,398.7,335.4,394.7z"/>
	<path fill="#4D4D4D" d="M335.4,394.7h-32.7c1.1,7.2,7.2,13.5,16.3,17.8c2.3-2.3,5.4-4.3,9.2-5.7
		C330.8,402.4,333.4,398.7,335.4,394.7z"/>
	<path fill="#828282" d="M319,412.5L319,412.5c1.1,0.6,2.3,1.1,3.4,1.4l0,0C321.3,413.3,320.2,412.8,319,412.5z"/>
	<path fill="#535353" d="M319,412.5L319,412.5c1.1,0.6,2.3,1.1,3.4,1.4l0,0C321.3,413.3,320.2,412.8,319,412.5z"/>
	<path fill="#4D4D4D" d="M319,412.5L319,412.5c1.1,0.6,2.3,1.1,3.4,1.4l0,0C321.3,413.3,320.2,412.8,319,412.5z"/>
	<path fill="#4D4D4D" d="M319,412.5c1.1,0.6,2.3,0.9,3.4,1.4c2-2.3,3.7-4.9,5.4-7.2C324.5,407.9,321.3,409.9,319,412.5z"/>
	<path fill="#535353" d="M319,412.5c1.1,0.6,2.3,0.9,3.4,1.4c2-2.3,3.7-4.9,5.4-7.2C324.5,407.9,321.3,409.9,319,412.5z"/>
	<path fill="#4D4D4D" d="M319,412.5c1.1,0.6,2.3,0.9,3.4,1.4c2-2.3,3.7-4.9,5.4-7.2C324.5,407.9,321.3,409.9,319,412.5z"/>
	<path fill="#9E9E9E" d="M343.7,370.3l-3.4-2.6l0,0c-21.2,1.1-37.8,11.8-37.8,24.7c0,0.6,0,1.4,0.3,2l0,0h32.7
		C340,386.1,342.8,377.5,343.7,370.3z"/>
	<path fill="#4D4D4D" d="M343.7,370.3l-3.4-2.6l0,0c-21.2,1.1-37.8,11.8-37.8,24.7c0,0.6,0,1.4,0.3,2l0,0h32.7
		C340,386.1,342.8,377.5,343.7,370.3z"/>
	<path fill="#676767" d="M340.3,367.8l3.4,2.6c0.3-1.7,0.3-3.2,0.3-4.6c0,0-9.2-11.2-29.8-16.6h-0.3L340.3,367.8z"/>
	<path fill="#4D4D4D" d="M340.3,367.8l3.4,2.6c0.3-1.7,0.3-3.2,0.3-4.6c0,0-9.2-11.2-29.8-16.6h-0.3L340.3,367.8z"/>
	<path fill="#4D4D4D" d="M464.4,373.5l-4.6,84c36.7-2,59.1-18.6,59.1-18.6s-15.8-38.1-46.7-64.8c-0.6,0-1.1,0-1.7,0
		C468.4,374.1,466.4,373.8,464.4,373.5z"/>
	<path fill="#828282" d="M428.8,350.3c-23.2-5.7-41-4.6-54.5-1.1l-26.7,18.6c21.2,1.1,37.8,11.8,37.8,24.7c0,0.6,0,1.4-0.3,2l0,0
		c-1.1,7.2-7.2,13.5-16.3,17.8l0,0c-1.1,0.6-2.3,0.9-3.4,1.4c16.9,20.6,42.1,39,69.9,42.4c8.6,1.1,16.6,1.4,24.1,0.9l4.6-84
		c2,0.3,4,0.6,6,0.6c0.6,0,1.1,0,1.7,0c-2.3-2-4.9-4-7.5-6C454.3,360,442.3,353.7,428.8,350.3z"/>
	<path fill="#4D4D4D" d="M428.8,350.3c-23.2-5.7-41-4.6-54.5-1.1l-26.7,18.6c21.2,1.1,37.8,11.8,37.8,24.7c0,0.6,0,1.4-0.3,2l0,0
		c-1.1,7.2-7.2,13.5-16.3,17.8l0,0c-1.1,0.6-2.3,0.9-3.4,1.4c16.9,20.6,42.1,39,69.9,42.4c8.6,1.1,16.6,1.4,24.1,0.9l4.6-84
		c2,0.3,4,0.6,6,0.6c0.6,0,1.1,0,1.7,0c-2.3-2-4.9-4-7.5-6C454.3,360,442.3,353.7,428.8,350.3z"/>
	<path fill="#5A5A5A" d="M374.4,349.1L348,367.8l0,0L374.4,349.1h-0.3H374.4z"/>
	<path fill="#4D4D4D" d="M374.4,349.1L348,367.8l0,0L374.4,349.1h-0.3H374.4z"/>
	<path fill="#4D4D4D" d="M360,406.5c3.7,1.4,6.9,3.4,9.2,5.7c9.2-4,15.2-10.6,16.3-17.8h-32.7C354.9,398.7,357.2,402.4,360,406.5z"
		/>
	<path fill="#4D4D4D" d="M360,406.5c3.7,1.4,6.9,3.4,9.2,5.7c9.2-4,15.2-10.6,16.3-17.8h-32.7C354.9,398.7,357.2,402.4,360,406.5z"
		/>
	<path fill="#828282" d="M365.8,413.9c1.1-0.6,2.3-0.9,3.4-1.4l0,0C368.1,412.8,366.9,413.3,365.8,413.9
		C365.5,413.9,365.5,413.9,365.8,413.9z"/>
	<path fill="#535353" d="M365.8,413.9c1.1-0.6,2.3-0.9,3.4-1.4l0,0C368.1,412.8,366.9,413.3,365.8,413.9
		C365.5,413.9,365.5,413.9,365.8,413.9z"/>
	<path fill="#4D4D4D" d="M365.8,413.9c1.1-0.6,2.3-0.9,3.4-1.4l0,0C368.1,412.8,366.9,413.3,365.8,413.9
		C365.5,413.9,365.5,413.9,365.8,413.9z"/>
	<path fill="#4D4D4D" d="M365.5,413.9c1.1-0.6,2.3-0.9,3.4-1.4c-2.3-2.3-5.4-4.3-9.2-5.7C361.8,409,363.8,411.3,365.5,413.9z"/>
	<path fill="#535353" d="M365.5,413.9c1.1-0.6,2.3-0.9,3.4-1.4c-2.3-2.3-5.4-4.3-9.2-5.7C361.8,409,363.8,411.3,365.5,413.9z"/>
	<path fill="#4D4D4D" d="M365.5,413.9c1.1-0.6,2.3-0.9,3.4-1.4c-2.3-2.3-5.4-4.3-9.2-5.7C361.8,409,363.8,411.3,365.5,413.9z"/>
	<path fill="#9E9E9E" d="M344.3,370.3c0.9,7.5,3.7,15.8,8.3,24.4h32.7l0,0c0-0.6,0.3-1.4,0.3-2c0-12.9-16.6-23.5-37.8-24.7l0,0
		L344.3,370.3z"/>
	<path fill="#4D4D4D" d="M344.3,370.3c0.9,7.5,3.7,15.8,8.3,24.4h32.7l0,0c0-0.6,0.3-1.4,0.3-2c0-12.9-16.6-23.5-37.8-24.7l0,0
		L344.3,370.3z"/>
	<path fill="#676767" d="M344,365.8c0,1.4,0,3.2,0.3,4.6l3.4-2.6l26.4-18.6h-0.3C353.4,354.6,344,365.8,344,365.8z"/>
	<path fill="#4D4D4D" d="M344,365.8c0,1.4,0,3.2,0.3,4.6l3.4-2.6l26.4-18.6h-0.3C353.4,354.6,344,365.8,344,365.8z"/>
	<polygon fill="#4D4D4D" points="467.2,624.3 472.7,624.3 463.2,635.8 454.1,624.3 459.2,624.3 459.2,619.2 439.4,619.2 
		439.4,624.3 447.2,624.3 460.6,640.7 460.6,650.7 452.9,650.7 452.9,656.1 473.8,656.1 473.8,650.7 466.1,650.7 466.1,640.7 
		479.3,624.3 487.3,624.3 487.3,619.2 467.2,619.2 	"/>
	<polygon fill="#535353" points="467.2,624.3 472.7,624.3 463.2,635.8 454.1,624.3 459.2,624.3 459.2,619.2 439.4,619.2 
		439.4,624.3 447.2,624.3 460.6,640.7 460.6,650.7 452.9,650.7 452.9,656.1 473.8,656.1 473.8,650.7 466.1,650.7 466.1,640.7 
		479.3,624.3 487.3,624.3 487.3,619.2 467.2,619.2 	"/>
</g>
</svg>
